%FSLAX34Y34*%
G04 Gerber Fmt 3.4, Leading zero omitted, Abs format*
G04 (created by PCBNEW (2013-jul-14)-product) date Sunday, 05 January 2014 05:56:02 pm*
%MOIN*%
G01*
G70*
G90*
G04 APERTURE LIST*
%ADD10C,0.005906*%
%ADD11C,0.015000*%
%ADD12C,0.012000*%
%ADD13C,0.005000*%
%ADD14C,0.008000*%
%ADD15C,0.002953*%
%ADD16C,0.002400*%
G04 APERTURE END LIST*
G54D10*
G54D11*
X80633Y-41015D02*
X80633Y-38062D01*
X80633Y-45937D02*
X80633Y-42984D01*
X72366Y-41015D02*
X72366Y-38062D01*
X72366Y-45937D02*
X72366Y-42984D01*
X72366Y-45937D02*
X80634Y-45937D01*
X80634Y-38063D02*
X72366Y-38063D01*
G54D12*
X77500Y-37750D02*
X77500Y-34750D01*
X77500Y-34750D02*
X75500Y-34750D01*
X75500Y-34750D02*
X75500Y-37750D01*
X76500Y-37750D02*
X76500Y-36750D01*
X76500Y-36750D02*
X75500Y-36750D01*
X77500Y-37750D02*
X75500Y-37750D01*
G54D13*
X85500Y-42079D02*
X85382Y-41961D01*
X85382Y-41961D02*
X85618Y-41961D01*
X85618Y-41961D02*
X85500Y-42079D01*
X85539Y-42039D02*
X85461Y-42039D01*
X85421Y-42000D02*
X85579Y-42000D01*
X85815Y-42118D02*
X85185Y-42118D01*
X85185Y-41882D02*
X85815Y-41882D01*
X85185Y-41606D02*
X85185Y-42394D01*
X85185Y-42394D02*
X85815Y-42394D01*
X85815Y-42394D02*
X85815Y-41606D01*
X85815Y-41606D02*
X85185Y-41606D01*
X82805Y-35805D02*
X82638Y-35805D01*
X82638Y-35805D02*
X82805Y-35638D01*
X82805Y-35638D02*
X82805Y-35805D01*
X82805Y-35750D02*
X82750Y-35805D01*
X82694Y-35805D02*
X82805Y-35694D01*
X83056Y-35610D02*
X82610Y-36056D01*
X82443Y-35889D02*
X82889Y-35443D01*
X82248Y-35694D02*
X82805Y-36251D01*
X82805Y-36251D02*
X83251Y-35805D01*
X83251Y-35805D02*
X82694Y-35248D01*
X82694Y-35248D02*
X82248Y-35694D01*
X82694Y-48305D02*
X82694Y-48138D01*
X82694Y-48138D02*
X82861Y-48305D01*
X82861Y-48305D02*
X82694Y-48305D01*
X82750Y-48305D02*
X82694Y-48250D01*
X82694Y-48194D02*
X82805Y-48305D01*
X82889Y-48556D02*
X82443Y-48110D01*
X82610Y-47943D02*
X83056Y-48389D01*
X82805Y-47748D02*
X82248Y-48305D01*
X82248Y-48305D02*
X82694Y-48751D01*
X82694Y-48751D02*
X83251Y-48194D01*
X83251Y-48194D02*
X82805Y-47748D01*
X76579Y-33000D02*
X76461Y-33118D01*
X76461Y-33118D02*
X76461Y-32882D01*
X76461Y-32882D02*
X76579Y-33000D01*
X76539Y-32961D02*
X76539Y-33039D01*
X76500Y-33079D02*
X76500Y-32921D01*
X76618Y-32685D02*
X76618Y-33315D01*
X76382Y-33315D02*
X76382Y-32685D01*
X76106Y-33315D02*
X76894Y-33315D01*
X76894Y-33315D02*
X76894Y-32685D01*
X76894Y-32685D02*
X76106Y-32685D01*
X76106Y-32685D02*
X76106Y-33315D01*
X76421Y-51000D02*
X76539Y-50882D01*
X76539Y-50882D02*
X76539Y-51118D01*
X76539Y-51118D02*
X76421Y-51000D01*
X76461Y-51039D02*
X76461Y-50961D01*
X76500Y-50921D02*
X76500Y-51079D01*
X76382Y-51315D02*
X76382Y-50685D01*
X76618Y-50685D02*
X76618Y-51315D01*
X76894Y-50685D02*
X76106Y-50685D01*
X76106Y-50685D02*
X76106Y-51315D01*
X76106Y-51315D02*
X76894Y-51315D01*
X76894Y-51315D02*
X76894Y-50685D01*
X70305Y-35694D02*
X70305Y-35861D01*
X70305Y-35861D02*
X70138Y-35694D01*
X70138Y-35694D02*
X70305Y-35694D01*
X70250Y-35694D02*
X70305Y-35750D01*
X70305Y-35805D02*
X70194Y-35694D01*
X70110Y-35443D02*
X70556Y-35889D01*
X70389Y-36056D02*
X69943Y-35610D01*
X70194Y-36251D02*
X70751Y-35694D01*
X70751Y-35694D02*
X70305Y-35248D01*
X70305Y-35248D02*
X69748Y-35805D01*
X69748Y-35805D02*
X70194Y-36251D01*
X70194Y-48194D02*
X70361Y-48194D01*
X70361Y-48194D02*
X70194Y-48361D01*
X70194Y-48361D02*
X70194Y-48194D01*
X70194Y-48250D02*
X70250Y-48194D01*
X70305Y-48194D02*
X70194Y-48305D01*
X69943Y-48389D02*
X70389Y-47943D01*
X70556Y-48110D02*
X70110Y-48556D01*
X70751Y-48305D02*
X70194Y-47748D01*
X70194Y-47748D02*
X69748Y-48194D01*
X69748Y-48194D02*
X70305Y-48751D01*
X70305Y-48751D02*
X70751Y-48305D01*
X67500Y-41921D02*
X67618Y-42039D01*
X67618Y-42039D02*
X67382Y-42039D01*
X67382Y-42039D02*
X67500Y-41921D01*
X67461Y-41961D02*
X67539Y-41961D01*
X67579Y-42000D02*
X67421Y-42000D01*
X67185Y-41882D02*
X67815Y-41882D01*
X67815Y-42118D02*
X67185Y-42118D01*
X67815Y-42394D02*
X67815Y-41606D01*
X67815Y-41606D02*
X67185Y-41606D01*
X67185Y-41606D02*
X67185Y-42394D01*
X67185Y-42394D02*
X67815Y-42394D01*
X84750Y-41750D02*
X84250Y-41750D01*
X84750Y-42250D02*
X84260Y-42250D01*
X84750Y-42400D02*
X84750Y-41600D01*
X84750Y-41600D02*
X84250Y-41600D01*
X84250Y-41600D02*
X84250Y-42400D01*
X84250Y-42400D02*
X84750Y-42400D01*
X82000Y-36146D02*
X81646Y-36500D01*
X82353Y-36500D02*
X82007Y-36846D01*
X82459Y-36606D02*
X81893Y-36040D01*
X81893Y-36040D02*
X81540Y-36393D01*
X81540Y-36393D02*
X82106Y-36959D01*
X82106Y-36959D02*
X82459Y-36606D01*
X82353Y-47500D02*
X82000Y-47146D01*
X82000Y-47853D02*
X81653Y-47507D01*
X81893Y-47959D02*
X82459Y-47393D01*
X82459Y-47393D02*
X82106Y-47040D01*
X82106Y-47040D02*
X81540Y-47606D01*
X81540Y-47606D02*
X81893Y-47959D01*
X76250Y-33750D02*
X76250Y-34250D01*
X76750Y-33750D02*
X76750Y-34240D01*
X76900Y-33750D02*
X76100Y-33750D01*
X76100Y-33750D02*
X76100Y-34250D01*
X76100Y-34250D02*
X76900Y-34250D01*
X76900Y-34250D02*
X76900Y-33750D01*
X76750Y-50250D02*
X76750Y-49750D01*
X76250Y-50250D02*
X76250Y-49760D01*
X76100Y-50250D02*
X76900Y-50250D01*
X76900Y-50250D02*
X76900Y-49750D01*
X76900Y-49750D02*
X76100Y-49750D01*
X76100Y-49750D02*
X76100Y-50250D01*
X70646Y-36500D02*
X71000Y-36853D01*
X71000Y-36146D02*
X71346Y-36492D01*
X71106Y-36040D02*
X70540Y-36606D01*
X70540Y-36606D02*
X70893Y-36959D01*
X70893Y-36959D02*
X71459Y-36393D01*
X71459Y-36393D02*
X71106Y-36040D01*
X71000Y-47853D02*
X71353Y-47500D01*
X70646Y-47500D02*
X70992Y-47153D01*
X70540Y-47393D02*
X71106Y-47959D01*
X71106Y-47959D02*
X71459Y-47606D01*
X71459Y-47606D02*
X70893Y-47040D01*
X70893Y-47040D02*
X70540Y-47393D01*
X68250Y-42250D02*
X68750Y-42250D01*
X68250Y-41750D02*
X68740Y-41750D01*
X68250Y-41600D02*
X68250Y-42400D01*
X68250Y-42400D02*
X68750Y-42400D01*
X68750Y-42400D02*
X68750Y-41600D01*
X68750Y-41600D02*
X68250Y-41600D01*
G54D12*
X76971Y-39004D02*
X76885Y-39032D01*
X76857Y-39061D01*
X76828Y-39118D01*
X76828Y-39204D01*
X76857Y-39261D01*
X76885Y-39290D01*
X76942Y-39318D01*
X77171Y-39318D01*
X77171Y-38718D01*
X76971Y-38718D01*
X76914Y-38747D01*
X76885Y-38775D01*
X76857Y-38832D01*
X76857Y-38890D01*
X76885Y-38947D01*
X76914Y-38975D01*
X76971Y-39004D01*
X77171Y-39004D01*
X76657Y-38718D02*
X76314Y-38718D01*
X76485Y-39318D02*
X76485Y-38718D01*
X75800Y-39318D02*
X76142Y-39318D01*
X75971Y-39318D02*
X75971Y-38718D01*
X76028Y-38804D01*
X76085Y-38861D01*
X76142Y-38890D01*
X79971Y-44909D02*
X79885Y-44938D01*
X79857Y-44967D01*
X79828Y-45024D01*
X79828Y-45109D01*
X79857Y-45167D01*
X79885Y-45195D01*
X79942Y-45224D01*
X80171Y-45224D01*
X80171Y-44624D01*
X79971Y-44624D01*
X79914Y-44652D01*
X79885Y-44681D01*
X79857Y-44738D01*
X79857Y-44795D01*
X79885Y-44852D01*
X79914Y-44881D01*
X79971Y-44909D01*
X80171Y-44909D01*
X79600Y-45052D02*
X79314Y-45052D01*
X79657Y-45224D02*
X79457Y-44624D01*
X79257Y-45224D01*
X79142Y-44624D02*
X78800Y-44624D01*
X78971Y-45224D02*
X78971Y-44624D01*
X78685Y-44624D02*
X78342Y-44624D01*
X78514Y-45224D02*
X78514Y-44624D01*
X78142Y-44909D02*
X77942Y-44909D01*
X77857Y-45224D02*
X78142Y-45224D01*
X78142Y-44624D01*
X77857Y-44624D01*
X77257Y-45224D02*
X77457Y-44938D01*
X77600Y-45224D02*
X77600Y-44624D01*
X77371Y-44624D01*
X77314Y-44652D01*
X77285Y-44681D01*
X77257Y-44738D01*
X77257Y-44824D01*
X77285Y-44881D01*
X77314Y-44909D01*
X77371Y-44938D01*
X77600Y-44938D01*
X76885Y-44938D02*
X76885Y-45224D01*
X77085Y-44624D02*
X76885Y-44938D01*
X76685Y-44624D01*
X76628Y-45281D02*
X76171Y-45281D01*
X75685Y-45167D02*
X75714Y-45195D01*
X75800Y-45224D01*
X75857Y-45224D01*
X75942Y-45195D01*
X76000Y-45138D01*
X76028Y-45081D01*
X76057Y-44967D01*
X76057Y-44881D01*
X76028Y-44767D01*
X76000Y-44709D01*
X75942Y-44652D01*
X75857Y-44624D01*
X75800Y-44624D01*
X75714Y-44652D01*
X75685Y-44681D01*
X75085Y-45224D02*
X75285Y-44938D01*
X75428Y-45224D02*
X75428Y-44624D01*
X75200Y-44624D01*
X75142Y-44652D01*
X75114Y-44681D01*
X75085Y-44738D01*
X75085Y-44824D01*
X75114Y-44881D01*
X75142Y-44909D01*
X75200Y-44938D01*
X75428Y-44938D01*
X74857Y-44681D02*
X74828Y-44652D01*
X74771Y-44624D01*
X74628Y-44624D01*
X74571Y-44652D01*
X74542Y-44681D01*
X74514Y-44738D01*
X74514Y-44795D01*
X74542Y-44881D01*
X74885Y-45224D01*
X74514Y-45224D01*
X74142Y-44624D02*
X74085Y-44624D01*
X74028Y-44652D01*
X74000Y-44681D01*
X73971Y-44738D01*
X73942Y-44852D01*
X73942Y-44995D01*
X73971Y-45109D01*
X74000Y-45167D01*
X74028Y-45195D01*
X74085Y-45224D01*
X74142Y-45224D01*
X74200Y-45195D01*
X74228Y-45167D01*
X74257Y-45109D01*
X74285Y-44995D01*
X74285Y-44852D01*
X74257Y-44738D01*
X74228Y-44681D01*
X74200Y-44652D01*
X74142Y-44624D01*
X73742Y-44624D02*
X73371Y-44624D01*
X73571Y-44852D01*
X73485Y-44852D01*
X73428Y-44881D01*
X73400Y-44909D01*
X73371Y-44967D01*
X73371Y-45109D01*
X73400Y-45167D01*
X73428Y-45195D01*
X73485Y-45224D01*
X73657Y-45224D01*
X73714Y-45195D01*
X73742Y-45167D01*
X73142Y-44681D02*
X73114Y-44652D01*
X73057Y-44624D01*
X72914Y-44624D01*
X72857Y-44652D01*
X72828Y-44681D01*
X72799Y-44738D01*
X72799Y-44795D01*
X72828Y-44881D01*
X73171Y-45224D01*
X72799Y-45224D01*
G54D14*
X78142Y-34926D02*
X78161Y-34907D01*
X78180Y-34850D01*
X78180Y-34811D01*
X78161Y-34754D01*
X78123Y-34716D01*
X78085Y-34697D01*
X78009Y-34678D01*
X77952Y-34678D01*
X77876Y-34697D01*
X77838Y-34716D01*
X77800Y-34754D01*
X77780Y-34811D01*
X77780Y-34850D01*
X77800Y-34907D01*
X77819Y-34926D01*
X77780Y-35173D02*
X77780Y-35250D01*
X77800Y-35288D01*
X77838Y-35326D01*
X77914Y-35345D01*
X78047Y-35345D01*
X78123Y-35326D01*
X78161Y-35288D01*
X78180Y-35250D01*
X78180Y-35173D01*
X78161Y-35135D01*
X78123Y-35097D01*
X78047Y-35078D01*
X77914Y-35078D01*
X77838Y-35097D01*
X77800Y-35135D01*
X77780Y-35173D01*
X78180Y-35516D02*
X77780Y-35516D01*
X78180Y-35745D01*
X77780Y-35745D01*
X78180Y-36145D02*
X78180Y-35916D01*
X78180Y-36030D02*
X77780Y-36030D01*
X77838Y-35992D01*
X77876Y-35954D01*
X77895Y-35916D01*
X78219Y-36221D02*
X78219Y-36526D01*
X78180Y-36621D02*
X77780Y-36621D01*
X78142Y-37040D02*
X78161Y-37021D01*
X78180Y-36964D01*
X78180Y-36926D01*
X78161Y-36869D01*
X78123Y-36830D01*
X78085Y-36811D01*
X78009Y-36792D01*
X77952Y-36792D01*
X77876Y-36811D01*
X77838Y-36830D01*
X77800Y-36869D01*
X77780Y-36926D01*
X77780Y-36964D01*
X77800Y-37021D01*
X77819Y-37040D01*
X78161Y-37192D02*
X78180Y-37250D01*
X78180Y-37345D01*
X78161Y-37383D01*
X78142Y-37402D01*
X78104Y-37421D01*
X78066Y-37421D01*
X78028Y-37402D01*
X78009Y-37383D01*
X77990Y-37345D01*
X77971Y-37269D01*
X77952Y-37230D01*
X77933Y-37211D01*
X77895Y-37192D01*
X77857Y-37192D01*
X77819Y-37211D01*
X77800Y-37230D01*
X77780Y-37269D01*
X77780Y-37364D01*
X77800Y-37421D01*
X78180Y-37592D02*
X77780Y-37592D01*
X77780Y-37745D01*
X77800Y-37783D01*
X77819Y-37802D01*
X77857Y-37821D01*
X77914Y-37821D01*
X77952Y-37802D01*
X77971Y-37783D01*
X77990Y-37745D01*
X77990Y-37592D01*
G54D15*
X85053Y-41421D02*
X85053Y-41365D01*
X84935Y-41365D01*
X85053Y-41460D02*
X84935Y-41460D01*
X84935Y-41488D01*
X84940Y-41505D01*
X84952Y-41516D01*
X84963Y-41522D01*
X84985Y-41528D01*
X85002Y-41528D01*
X85025Y-41522D01*
X85036Y-41516D01*
X85047Y-41505D01*
X85053Y-41488D01*
X85053Y-41460D01*
X84946Y-41573D02*
X84940Y-41578D01*
X84935Y-41589D01*
X84935Y-41618D01*
X84940Y-41629D01*
X84946Y-41634D01*
X84957Y-41640D01*
X84969Y-41640D01*
X84985Y-41634D01*
X85053Y-41567D01*
X85053Y-41640D01*
X83017Y-36593D02*
X83057Y-36633D01*
X83141Y-36549D01*
X82990Y-36565D02*
X83073Y-36482D01*
X83053Y-36462D01*
X83037Y-36454D01*
X83021Y-36454D01*
X83009Y-36458D01*
X82990Y-36470D01*
X82978Y-36482D01*
X82966Y-36501D01*
X82962Y-36513D01*
X82962Y-36529D01*
X82970Y-36545D01*
X82990Y-36565D01*
X82950Y-36358D02*
X82990Y-36398D01*
X82954Y-36442D01*
X82954Y-36434D01*
X82950Y-36422D01*
X82930Y-36402D01*
X82918Y-36398D01*
X82910Y-36398D01*
X82898Y-36402D01*
X82878Y-36422D01*
X82874Y-36434D01*
X82874Y-36442D01*
X82878Y-36454D01*
X82898Y-36474D01*
X82910Y-36478D01*
X82918Y-36478D01*
X83093Y-47482D02*
X83133Y-47442D01*
X83049Y-47358D01*
X83065Y-47509D02*
X82982Y-47426D01*
X82962Y-47446D01*
X82954Y-47462D01*
X82954Y-47478D01*
X82958Y-47490D01*
X82970Y-47509D01*
X82982Y-47521D01*
X83001Y-47533D01*
X83013Y-47537D01*
X83029Y-47537D01*
X83045Y-47529D01*
X83065Y-47509D01*
X82862Y-47545D02*
X82878Y-47529D01*
X82890Y-47525D01*
X82898Y-47525D01*
X82918Y-47529D01*
X82938Y-47541D01*
X82970Y-47573D01*
X82974Y-47585D01*
X82974Y-47593D01*
X82970Y-47605D01*
X82954Y-47621D01*
X82942Y-47625D01*
X82934Y-47625D01*
X82922Y-47621D01*
X82902Y-47601D01*
X82898Y-47589D01*
X82898Y-47581D01*
X82902Y-47569D01*
X82918Y-47553D01*
X82930Y-47549D01*
X82938Y-47549D01*
X82950Y-47553D01*
X77078Y-33553D02*
X77134Y-33553D01*
X77134Y-33435D01*
X77039Y-33553D02*
X77039Y-33435D01*
X77011Y-33435D01*
X76994Y-33440D01*
X76983Y-33452D01*
X76977Y-33463D01*
X76971Y-33485D01*
X76971Y-33502D01*
X76977Y-33525D01*
X76983Y-33536D01*
X76994Y-33547D01*
X77011Y-33553D01*
X77039Y-33553D01*
X76915Y-33553D02*
X76893Y-33553D01*
X76881Y-33547D01*
X76876Y-33542D01*
X76865Y-33525D01*
X76859Y-33502D01*
X76859Y-33457D01*
X76865Y-33446D01*
X76870Y-33440D01*
X76881Y-33435D01*
X76904Y-33435D01*
X76915Y-33440D01*
X76921Y-33446D01*
X76926Y-33457D01*
X76926Y-33485D01*
X76921Y-33497D01*
X76915Y-33502D01*
X76904Y-33508D01*
X76881Y-33508D01*
X76870Y-33502D01*
X76865Y-33497D01*
X76859Y-33485D01*
X77134Y-50553D02*
X77191Y-50553D01*
X77191Y-50435D01*
X77095Y-50553D02*
X77095Y-50435D01*
X77067Y-50435D01*
X77050Y-50440D01*
X77039Y-50452D01*
X77033Y-50463D01*
X77028Y-50485D01*
X77028Y-50502D01*
X77033Y-50525D01*
X77039Y-50536D01*
X77050Y-50547D01*
X77067Y-50553D01*
X77095Y-50553D01*
X76915Y-50553D02*
X76983Y-50553D01*
X76949Y-50553D02*
X76949Y-50435D01*
X76960Y-50452D01*
X76971Y-50463D01*
X76983Y-50469D01*
X76842Y-50435D02*
X76831Y-50435D01*
X76820Y-50440D01*
X76814Y-50446D01*
X76808Y-50457D01*
X76803Y-50480D01*
X76803Y-50508D01*
X76808Y-50530D01*
X76814Y-50542D01*
X76820Y-50547D01*
X76831Y-50553D01*
X76842Y-50553D01*
X76853Y-50547D01*
X76859Y-50542D01*
X76865Y-50530D01*
X76870Y-50508D01*
X76870Y-50480D01*
X76865Y-50457D01*
X76859Y-50446D01*
X76853Y-50440D01*
X76842Y-50435D01*
X71133Y-35442D02*
X71172Y-35402D01*
X71089Y-35319D01*
X71105Y-35470D02*
X71021Y-35386D01*
X71001Y-35406D01*
X70994Y-35422D01*
X70994Y-35438D01*
X70998Y-35450D01*
X71009Y-35470D01*
X71021Y-35482D01*
X71041Y-35494D01*
X71053Y-35498D01*
X71069Y-35498D01*
X71085Y-35490D01*
X71105Y-35470D01*
X70978Y-35597D02*
X71025Y-35549D01*
X71001Y-35573D02*
X70918Y-35490D01*
X70938Y-35494D01*
X70954Y-35494D01*
X70966Y-35490D01*
X70866Y-35541D02*
X70815Y-35593D01*
X70874Y-35597D01*
X70862Y-35609D01*
X70858Y-35621D01*
X70858Y-35629D01*
X70862Y-35641D01*
X70882Y-35661D01*
X70894Y-35665D01*
X70902Y-35665D01*
X70914Y-35661D01*
X70938Y-35637D01*
X70942Y-35625D01*
X70942Y-35617D01*
X71057Y-48633D02*
X71097Y-48672D01*
X71180Y-48589D01*
X71029Y-48605D02*
X71113Y-48521D01*
X71093Y-48501D01*
X71077Y-48494D01*
X71061Y-48494D01*
X71049Y-48498D01*
X71029Y-48509D01*
X71017Y-48521D01*
X71005Y-48541D01*
X71001Y-48553D01*
X71001Y-48569D01*
X71009Y-48585D01*
X71029Y-48605D01*
X70902Y-48478D02*
X70950Y-48525D01*
X70926Y-48501D02*
X71009Y-48418D01*
X71005Y-48438D01*
X71005Y-48454D01*
X71009Y-48466D01*
X70886Y-48350D02*
X70830Y-48406D01*
X70938Y-48338D02*
X70898Y-48418D01*
X70846Y-48366D01*
X68053Y-41365D02*
X68053Y-41308D01*
X67935Y-41308D01*
X68053Y-41404D02*
X67935Y-41404D01*
X67935Y-41432D01*
X67940Y-41449D01*
X67952Y-41460D01*
X67963Y-41466D01*
X67985Y-41471D01*
X68002Y-41471D01*
X68025Y-41466D01*
X68036Y-41460D01*
X68047Y-41449D01*
X68053Y-41432D01*
X68053Y-41404D01*
X68053Y-41584D02*
X68053Y-41516D01*
X68053Y-41550D02*
X67935Y-41550D01*
X67952Y-41539D01*
X67963Y-41528D01*
X67969Y-41516D01*
X67935Y-41685D02*
X67935Y-41663D01*
X67940Y-41651D01*
X67946Y-41646D01*
X67963Y-41634D01*
X67985Y-41629D01*
X68030Y-41629D01*
X68042Y-41634D01*
X68047Y-41640D01*
X68053Y-41651D01*
X68053Y-41674D01*
X68047Y-41685D01*
X68042Y-41691D01*
X68030Y-41696D01*
X68002Y-41696D01*
X67991Y-41691D01*
X67985Y-41685D01*
X67980Y-41674D01*
X67980Y-41651D01*
X67985Y-41640D01*
X67991Y-41634D01*
X68002Y-41629D01*
G54D16*
X84943Y-41980D02*
X84887Y-41941D01*
X84943Y-41912D02*
X84825Y-41912D01*
X84825Y-41957D01*
X84831Y-41969D01*
X84836Y-41974D01*
X84847Y-41980D01*
X84864Y-41980D01*
X84875Y-41974D01*
X84881Y-41969D01*
X84887Y-41957D01*
X84887Y-41912D01*
X84825Y-42019D02*
X84825Y-42092D01*
X84870Y-42053D01*
X84870Y-42070D01*
X84875Y-42081D01*
X84881Y-42087D01*
X84892Y-42092D01*
X84920Y-42092D01*
X84932Y-42087D01*
X84937Y-42081D01*
X84943Y-42070D01*
X84943Y-42036D01*
X84937Y-42025D01*
X84932Y-42019D01*
X82251Y-36275D02*
X82319Y-36263D01*
X82299Y-36323D02*
X82383Y-36240D01*
X82351Y-36208D01*
X82339Y-36204D01*
X82331Y-36204D01*
X82319Y-36208D01*
X82307Y-36220D01*
X82303Y-36232D01*
X82303Y-36240D01*
X82307Y-36252D01*
X82339Y-36283D01*
X82263Y-36120D02*
X82279Y-36136D01*
X82283Y-36148D01*
X82283Y-36156D01*
X82279Y-36176D01*
X82267Y-36196D01*
X82236Y-36228D01*
X82224Y-36232D01*
X82216Y-36232D01*
X82204Y-36228D01*
X82188Y-36212D01*
X82184Y-36200D01*
X82184Y-36192D01*
X82188Y-36180D01*
X82208Y-36160D01*
X82220Y-36156D01*
X82228Y-36156D01*
X82240Y-36160D01*
X82255Y-36176D01*
X82259Y-36188D01*
X82259Y-36196D01*
X82255Y-36208D01*
X82327Y-47799D02*
X82315Y-47732D01*
X82375Y-47751D02*
X82291Y-47668D01*
X82259Y-47700D01*
X82255Y-47712D01*
X82255Y-47720D01*
X82259Y-47732D01*
X82271Y-47743D01*
X82283Y-47747D01*
X82291Y-47747D01*
X82303Y-47743D01*
X82335Y-47712D01*
X82216Y-47743D02*
X82160Y-47799D01*
X82279Y-47847D01*
X76575Y-33663D02*
X76615Y-33607D01*
X76643Y-33663D02*
X76643Y-33545D01*
X76598Y-33545D01*
X76587Y-33551D01*
X76581Y-33556D01*
X76575Y-33567D01*
X76575Y-33584D01*
X76581Y-33595D01*
X76587Y-33601D01*
X76598Y-33607D01*
X76643Y-33607D01*
X76463Y-33663D02*
X76530Y-33663D01*
X76497Y-33663D02*
X76497Y-33545D01*
X76508Y-33562D01*
X76519Y-33573D01*
X76530Y-33579D01*
X76390Y-33545D02*
X76379Y-33545D01*
X76367Y-33551D01*
X76362Y-33556D01*
X76356Y-33567D01*
X76351Y-33590D01*
X76351Y-33618D01*
X76356Y-33640D01*
X76362Y-33652D01*
X76367Y-33657D01*
X76379Y-33663D01*
X76390Y-33663D01*
X76401Y-33657D01*
X76407Y-33652D01*
X76412Y-33640D01*
X76418Y-33618D01*
X76418Y-33590D01*
X76412Y-33567D01*
X76407Y-33556D01*
X76401Y-33551D01*
X76390Y-33545D01*
X76575Y-50443D02*
X76615Y-50387D01*
X76643Y-50443D02*
X76643Y-50325D01*
X76598Y-50325D01*
X76587Y-50331D01*
X76581Y-50336D01*
X76575Y-50347D01*
X76575Y-50364D01*
X76581Y-50375D01*
X76587Y-50381D01*
X76598Y-50387D01*
X76643Y-50387D01*
X76463Y-50443D02*
X76530Y-50443D01*
X76497Y-50443D02*
X76497Y-50325D01*
X76508Y-50342D01*
X76519Y-50353D01*
X76530Y-50359D01*
X76351Y-50443D02*
X76418Y-50443D01*
X76384Y-50443D02*
X76384Y-50325D01*
X76396Y-50342D01*
X76407Y-50353D01*
X76418Y-50359D01*
X70815Y-36208D02*
X70803Y-36140D01*
X70863Y-36160D02*
X70779Y-36077D01*
X70748Y-36109D01*
X70744Y-36120D01*
X70744Y-36128D01*
X70748Y-36140D01*
X70759Y-36152D01*
X70771Y-36156D01*
X70779Y-36156D01*
X70791Y-36152D01*
X70823Y-36120D01*
X70736Y-36287D02*
X70783Y-36240D01*
X70759Y-36263D02*
X70676Y-36180D01*
X70696Y-36184D01*
X70712Y-36184D01*
X70724Y-36180D01*
X70609Y-36303D02*
X70664Y-36359D01*
X70597Y-36252D02*
X70676Y-36291D01*
X70624Y-36343D01*
X70740Y-47867D02*
X70807Y-47855D01*
X70787Y-47914D02*
X70871Y-47831D01*
X70839Y-47799D01*
X70827Y-47795D01*
X70819Y-47795D01*
X70807Y-47799D01*
X70795Y-47811D01*
X70791Y-47823D01*
X70791Y-47831D01*
X70795Y-47843D01*
X70827Y-47875D01*
X70660Y-47787D02*
X70708Y-47835D01*
X70684Y-47811D02*
X70767Y-47728D01*
X70763Y-47747D01*
X70763Y-47763D01*
X70767Y-47775D01*
X70668Y-47628D02*
X70708Y-47668D01*
X70672Y-47712D01*
X70672Y-47704D01*
X70668Y-47692D01*
X70648Y-47672D01*
X70636Y-47668D01*
X70628Y-47668D01*
X70616Y-47672D01*
X70597Y-47692D01*
X70593Y-47704D01*
X70593Y-47712D01*
X70597Y-47724D01*
X70616Y-47743D01*
X70628Y-47747D01*
X70636Y-47747D01*
X68163Y-41924D02*
X68107Y-41884D01*
X68163Y-41856D02*
X68045Y-41856D01*
X68045Y-41901D01*
X68051Y-41912D01*
X68056Y-41918D01*
X68067Y-41924D01*
X68084Y-41924D01*
X68095Y-41918D01*
X68101Y-41912D01*
X68107Y-41901D01*
X68107Y-41856D01*
X68163Y-42036D02*
X68163Y-41969D01*
X68163Y-42002D02*
X68045Y-42002D01*
X68062Y-41991D01*
X68073Y-41980D01*
X68079Y-41969D01*
X68045Y-42075D02*
X68045Y-42154D01*
X68163Y-42103D01*
M02*
