M48
INCH,TZ
T1C0.025
T2C0.039
T3C0.079
%
G90
G05
T1
X68000Y-44250
X68250Y-38500
X69750Y-46000
X70000Y-39750
X70250Y-38500
X70250Y-46000
X71250Y-38500
X71500Y-37500
X71750Y-38000
X72250Y-36500
X72250Y-41000
X72250Y-46000
X72750Y-45000
X73000Y-37500
X73250Y-34000
X73500Y-36500
X74000Y-35750
X74000Y-40000
X74250Y-45500
X74250Y-46750
X74500Y-39500
X74500Y-50750
X74750Y-45500
X74750Y-46750
X75000Y-38000
X75250Y-45250
X75250Y-46000
X76000Y-39500
X77000Y-39750
X78000Y-39500
X78500Y-45750
X78750Y-40000
X79000Y-45750
X79250Y-40500
X79250Y-42500
X79250Y-47750
X79750Y-42500
X79750Y-44250
X79750Y-45250
X80000Y-34000
X80250Y-39500
X80250Y-44750
X80500Y-46750
X81000Y-40000
X81000Y-45500
X81250Y-47250
X81500Y-40500
X81750Y-42750
X81750Y-45500
X82250Y-42750
X82250Y-43750
X82750Y-37750
X82750Y-41000
X82750Y-42750
X82750Y-43750
X82750Y-46500
X83250Y-43750
X83250Y-45500
X84000Y-46750
X84500Y-38000
T2
X71000Y-42750
X71000Y-43750
X71000Y-44750
X72750Y-47250
X73750Y-47250
X76000Y-35250
X76000Y-36250
X76000Y-37250
X77000Y-35250
X77000Y-36250
X77000Y-37250
X79500Y-49000
X80500Y-49000
T3
X72366Y-42000
X80634Y-42000
T0
M30
