%FSLAX34Y34*%
G04 Gerber Fmt 3.4, Leading zero omitted, Abs format*
G04 (created by PCBNEW (2013-jul-14)-product) date Sunday, 05 January 2014 05:56:02 pm*
%MOIN*%
G01*
G70*
G90*
G04 APERTURE LIST*
%ADD10C,0.005906*%
%ADD11C,0.009843*%
%ADD12C,0.002953*%
%ADD13C,0.005000*%
%ADD14C,0.012000*%
%ADD15C,0.005900*%
%ADD16C,0.002400*%
%ADD17C,0.008000*%
%ADD18C,0.004921*%
G04 APERTURE END LIST*
G54D10*
G54D11*
X78551Y-35344D02*
X78737Y-35158D01*
X78684Y-35211D02*
X78724Y-35198D01*
X78750Y-35198D01*
X78790Y-35211D01*
X78816Y-35238D01*
X78843Y-35636D02*
X78989Y-35490D01*
X79002Y-35450D01*
X78989Y-35410D01*
X78936Y-35357D01*
X78896Y-35344D01*
X78856Y-35622D02*
X78816Y-35609D01*
X78750Y-35543D01*
X78737Y-35503D01*
X78750Y-35463D01*
X78777Y-35437D01*
X78816Y-35423D01*
X78856Y-35437D01*
X78923Y-35503D01*
X78962Y-35516D01*
X79161Y-35582D02*
X78976Y-35768D01*
X79135Y-35609D02*
X79161Y-35609D01*
X79201Y-35622D01*
X79241Y-35662D01*
X79254Y-35702D01*
X79241Y-35742D01*
X79095Y-35887D01*
X79360Y-36126D02*
X79320Y-36113D01*
X79267Y-36060D01*
X79254Y-36020D01*
X79254Y-35993D01*
X79267Y-35954D01*
X79347Y-35874D01*
X79387Y-35861D01*
X79413Y-35861D01*
X79453Y-35874D01*
X79506Y-35927D01*
X79519Y-35967D01*
X79466Y-36259D02*
X79652Y-36073D01*
X79744Y-35980D02*
X79718Y-35980D01*
X79718Y-36007D01*
X79744Y-36007D01*
X79744Y-35980D01*
X79718Y-36007D01*
X79718Y-36510D02*
X79996Y-36232D01*
X79731Y-36497D02*
X79691Y-36484D01*
X79638Y-36431D01*
X79625Y-36391D01*
X79625Y-36365D01*
X79638Y-36325D01*
X79718Y-36245D01*
X79758Y-36232D01*
X79784Y-36232D01*
X79824Y-36245D01*
X79877Y-36298D01*
X79890Y-36338D01*
X79850Y-36643D02*
X80129Y-36365D01*
X80023Y-36471D02*
X80063Y-36484D01*
X80116Y-36537D01*
X80129Y-36577D01*
X80129Y-36603D01*
X80116Y-36643D01*
X80036Y-36723D01*
X79996Y-36736D01*
X79970Y-36736D01*
X79930Y-36723D01*
X79877Y-36670D01*
X79864Y-36630D01*
X80222Y-37014D02*
X80367Y-36868D01*
X80381Y-36829D01*
X80367Y-36789D01*
X80314Y-36736D01*
X80275Y-36723D01*
X80235Y-37001D02*
X80195Y-36988D01*
X80129Y-36921D01*
X80116Y-36882D01*
X80129Y-36842D01*
X80155Y-36815D01*
X80195Y-36802D01*
X80235Y-36815D01*
X80301Y-36882D01*
X80341Y-36895D01*
X80487Y-37253D02*
X80447Y-37240D01*
X80394Y-37187D01*
X80381Y-37147D01*
X80381Y-37120D01*
X80394Y-37080D01*
X80474Y-37001D01*
X80513Y-36988D01*
X80540Y-36988D01*
X80580Y-37001D01*
X80633Y-37054D01*
X80646Y-37094D01*
X80633Y-37425D02*
X80619Y-37385D01*
X80619Y-37359D01*
X80633Y-37319D01*
X80712Y-37240D01*
X80752Y-37226D01*
X80778Y-37226D01*
X80818Y-37240D01*
X80858Y-37279D01*
X80871Y-37319D01*
X80871Y-37346D01*
X80858Y-37385D01*
X80778Y-37465D01*
X80739Y-37478D01*
X80712Y-37478D01*
X80672Y-37465D01*
X80633Y-37425D01*
X81030Y-37452D02*
X80845Y-37637D01*
X81004Y-37478D02*
X81030Y-37478D01*
X81070Y-37491D01*
X81110Y-37531D01*
X81123Y-37571D01*
X81110Y-37611D01*
X80964Y-37757D01*
X81123Y-37863D02*
X81123Y-37889D01*
X81097Y-37889D01*
X81097Y-37863D01*
X81123Y-37863D01*
X81097Y-37889D01*
X81362Y-38128D02*
X81322Y-38115D01*
X81269Y-38061D01*
X81256Y-38022D01*
X81256Y-37995D01*
X81269Y-37955D01*
X81348Y-37876D01*
X81388Y-37863D01*
X81415Y-37863D01*
X81455Y-37876D01*
X81508Y-37929D01*
X81521Y-37969D01*
X81508Y-38300D02*
X81494Y-38260D01*
X81494Y-38234D01*
X81508Y-38194D01*
X81587Y-38115D01*
X81627Y-38101D01*
X81653Y-38101D01*
X81693Y-38115D01*
X81733Y-38154D01*
X81746Y-38194D01*
X81746Y-38221D01*
X81733Y-38260D01*
X81653Y-38340D01*
X81614Y-38353D01*
X81587Y-38353D01*
X81547Y-38340D01*
X81508Y-38300D01*
X81720Y-38512D02*
X81905Y-38327D01*
X81879Y-38353D02*
X81905Y-38353D01*
X81945Y-38366D01*
X81985Y-38406D01*
X81998Y-38446D01*
X81985Y-38486D01*
X81839Y-38632D01*
X81985Y-38486D02*
X82025Y-38472D01*
X82064Y-38486D01*
X82104Y-38525D01*
X82117Y-38565D01*
X82104Y-38605D01*
X81958Y-38751D01*
X82581Y-38791D02*
X81985Y-38910D01*
X82568Y-38989D02*
X82290Y-39268D01*
X82555Y-39003D02*
X82595Y-39016D01*
X82648Y-39069D01*
X82661Y-39109D01*
X82661Y-39135D01*
X82648Y-39175D01*
X82568Y-39255D01*
X82528Y-39268D01*
X82502Y-39268D01*
X82462Y-39255D01*
X82409Y-39202D01*
X82396Y-39162D01*
X83125Y-39334D02*
X82528Y-39453D01*
X82926Y-39692D02*
X82939Y-39732D01*
X82992Y-39785D01*
X83032Y-39798D01*
X83072Y-39785D01*
X83085Y-39772D01*
X83098Y-39732D01*
X83085Y-39692D01*
X83045Y-39652D01*
X83032Y-39612D01*
X83045Y-39573D01*
X83059Y-39559D01*
X83098Y-39546D01*
X83138Y-39559D01*
X83178Y-39599D01*
X83191Y-39639D01*
X83337Y-39758D02*
X83059Y-40037D01*
X83324Y-39772D02*
X83363Y-39785D01*
X83417Y-39838D01*
X83430Y-39878D01*
X83430Y-39904D01*
X83417Y-39944D01*
X83337Y-40023D01*
X83297Y-40037D01*
X83271Y-40037D01*
X83231Y-40023D01*
X83178Y-39970D01*
X83165Y-39931D01*
X83403Y-40196D02*
X83589Y-40010D01*
X83682Y-39917D02*
X83655Y-39917D01*
X83655Y-39944D01*
X83682Y-39944D01*
X83682Y-39917D01*
X83655Y-39944D01*
X83721Y-40143D02*
X83536Y-40328D01*
X83695Y-40169D02*
X83721Y-40169D01*
X83761Y-40183D01*
X83801Y-40222D01*
X83814Y-40262D01*
X83801Y-40302D01*
X83655Y-40448D01*
X79769Y-36976D02*
X79795Y-36976D01*
X79835Y-36990D01*
X79902Y-37056D01*
X79915Y-37096D01*
X79915Y-37122D01*
X79902Y-37162D01*
X79875Y-37189D01*
X79822Y-37215D01*
X79504Y-37215D01*
X79676Y-37387D01*
X80127Y-37281D02*
X80153Y-37308D01*
X80167Y-37348D01*
X80167Y-37374D01*
X80153Y-37414D01*
X80114Y-37480D01*
X80047Y-37546D01*
X79981Y-37586D01*
X79941Y-37599D01*
X79915Y-37599D01*
X79875Y-37586D01*
X79848Y-37560D01*
X79835Y-37520D01*
X79835Y-37493D01*
X79848Y-37454D01*
X79888Y-37387D01*
X79955Y-37321D01*
X80021Y-37281D01*
X80061Y-37268D01*
X80087Y-37268D01*
X80127Y-37281D01*
X80206Y-37918D02*
X80047Y-37759D01*
X80127Y-37838D02*
X80405Y-37560D01*
X80339Y-37573D01*
X80286Y-37573D01*
X80246Y-37560D01*
X80631Y-37971D02*
X80445Y-38156D01*
X80670Y-37798D02*
X80405Y-37931D01*
X80578Y-38103D01*
X80922Y-38077D02*
X80949Y-38103D01*
X80962Y-38143D01*
X80962Y-38170D01*
X80949Y-38209D01*
X80909Y-38276D01*
X80843Y-38342D01*
X80776Y-38382D01*
X80737Y-38395D01*
X80710Y-38395D01*
X80670Y-38382D01*
X80644Y-38355D01*
X80631Y-38315D01*
X80631Y-38289D01*
X80644Y-38249D01*
X80684Y-38183D01*
X80750Y-38116D01*
X80816Y-38077D01*
X80856Y-38063D01*
X80883Y-38063D01*
X80922Y-38077D01*
X81002Y-38713D02*
X80843Y-38554D01*
X80922Y-38633D02*
X81201Y-38355D01*
X81134Y-38368D01*
X81081Y-38368D01*
X81042Y-38355D01*
X81453Y-38607D02*
X81479Y-38633D01*
X81492Y-38673D01*
X81492Y-38700D01*
X81479Y-38740D01*
X81439Y-38806D01*
X81373Y-38872D01*
X81307Y-38912D01*
X81267Y-38925D01*
X81240Y-38925D01*
X81201Y-38912D01*
X81174Y-38885D01*
X81161Y-38846D01*
X81161Y-38819D01*
X81174Y-38779D01*
X81214Y-38713D01*
X81280Y-38647D01*
X81346Y-38607D01*
X81386Y-38594D01*
X81413Y-38594D01*
X81453Y-38607D01*
X81797Y-38952D02*
X81665Y-38819D01*
X81519Y-38938D01*
X81545Y-38938D01*
X81585Y-38952D01*
X81651Y-39018D01*
X81665Y-39058D01*
X81665Y-39084D01*
X81651Y-39124D01*
X81585Y-39190D01*
X81545Y-39204D01*
X81519Y-39204D01*
X81479Y-39190D01*
X81413Y-39124D01*
X81400Y-39084D01*
X81400Y-39058D01*
X81718Y-39270D02*
X81850Y-39402D01*
X81612Y-39323D02*
X81983Y-39137D01*
X81797Y-39508D01*
G54D12*
X70910Y-41940D02*
X70898Y-41935D01*
X70881Y-41935D01*
X70865Y-41940D01*
X70853Y-41952D01*
X70848Y-41963D01*
X70842Y-41985D01*
X70842Y-42002D01*
X70848Y-42025D01*
X70853Y-42036D01*
X70865Y-42047D01*
X70881Y-42053D01*
X70893Y-42053D01*
X70910Y-42047D01*
X70915Y-42042D01*
X70915Y-42002D01*
X70893Y-42002D01*
X70966Y-42053D02*
X70966Y-41935D01*
X71033Y-42053D01*
X71033Y-41935D01*
X71089Y-42053D02*
X71089Y-41935D01*
X71118Y-41935D01*
X71134Y-41940D01*
X71146Y-41952D01*
X71151Y-41963D01*
X71157Y-41985D01*
X71157Y-42002D01*
X71151Y-42025D01*
X71146Y-42036D01*
X71134Y-42047D01*
X71118Y-42053D01*
X71089Y-42053D01*
X71980Y-44053D02*
X71940Y-43997D01*
X71912Y-44053D02*
X71912Y-43935D01*
X71957Y-43935D01*
X71969Y-43940D01*
X71974Y-43946D01*
X71980Y-43957D01*
X71980Y-43974D01*
X71974Y-43985D01*
X71969Y-43991D01*
X71957Y-43997D01*
X71912Y-43997D01*
X72019Y-43935D02*
X72098Y-44053D01*
X72098Y-43935D02*
X72019Y-44053D01*
X71910Y-44935D02*
X71977Y-44935D01*
X71943Y-45053D02*
X71943Y-44935D01*
X72005Y-44935D02*
X72084Y-45053D01*
X72084Y-44935D02*
X72005Y-45053D01*
G54D13*
X76750Y-39250D02*
X76750Y-38750D01*
X77250Y-39250D02*
X77250Y-38760D01*
X77400Y-39250D02*
X76600Y-39250D01*
X76600Y-39250D02*
X76600Y-38750D01*
X76600Y-38750D02*
X77400Y-38750D01*
X77400Y-38750D02*
X77400Y-39250D01*
X77250Y-45750D02*
X77250Y-45250D01*
X77750Y-45750D02*
X77750Y-45260D01*
X77900Y-45750D02*
X77100Y-45750D01*
X77100Y-45750D02*
X77100Y-45250D01*
X77100Y-45250D02*
X77900Y-45250D01*
X77900Y-45250D02*
X77900Y-45750D01*
X76000Y-45000D02*
X76500Y-45000D01*
X76000Y-45500D02*
X76490Y-45500D01*
X76000Y-45650D02*
X76000Y-44850D01*
X76000Y-44850D02*
X76500Y-44850D01*
X76500Y-44850D02*
X76500Y-45650D01*
X76500Y-45650D02*
X76000Y-45650D01*
G54D14*
X71500Y-44250D02*
X70500Y-44250D01*
X70500Y-45250D02*
X70500Y-42250D01*
X70500Y-42250D02*
X71500Y-42250D01*
X71500Y-42250D02*
X71500Y-45250D01*
X71500Y-45250D02*
X70500Y-45250D01*
X80000Y-48500D02*
X80000Y-49500D01*
X80000Y-49500D02*
X79000Y-48500D01*
X79000Y-49500D02*
X80000Y-48500D01*
X81000Y-49500D02*
X79000Y-49500D01*
X79000Y-48500D02*
X81000Y-48500D01*
X79000Y-49500D02*
X79000Y-48500D01*
X81000Y-48500D02*
X81000Y-49500D01*
X73250Y-46750D02*
X73250Y-47750D01*
X73250Y-47750D02*
X72250Y-46750D01*
X72250Y-47750D02*
X73250Y-46750D01*
X74250Y-47750D02*
X72250Y-47750D01*
X72250Y-46750D02*
X74250Y-46750D01*
X72250Y-47750D02*
X72250Y-46750D01*
X74250Y-46750D02*
X74250Y-47750D01*
G54D13*
X67500Y-42079D02*
X67618Y-41961D01*
X67618Y-41961D02*
X67382Y-41961D01*
X67382Y-41961D02*
X67500Y-42079D01*
X67461Y-42039D02*
X67539Y-42039D01*
X67579Y-42000D02*
X67421Y-42000D01*
X67185Y-42118D02*
X67815Y-42118D01*
X67815Y-41882D02*
X67185Y-41882D01*
X67815Y-41606D02*
X67815Y-42394D01*
X67815Y-42394D02*
X67185Y-42394D01*
X67185Y-42394D02*
X67185Y-41606D01*
X67185Y-41606D02*
X67815Y-41606D01*
X70194Y-35805D02*
X70361Y-35805D01*
X70361Y-35805D02*
X70194Y-35638D01*
X70194Y-35638D02*
X70194Y-35805D01*
X70194Y-35750D02*
X70250Y-35805D01*
X70305Y-35805D02*
X70194Y-35694D01*
X69943Y-35610D02*
X70389Y-36056D01*
X70556Y-35889D02*
X70110Y-35443D01*
X70751Y-35694D02*
X70194Y-36251D01*
X70194Y-36251D02*
X69748Y-35805D01*
X69748Y-35805D02*
X70305Y-35248D01*
X70305Y-35248D02*
X70751Y-35694D01*
X70305Y-48305D02*
X70305Y-48138D01*
X70305Y-48138D02*
X70138Y-48305D01*
X70138Y-48305D02*
X70305Y-48305D01*
X70250Y-48305D02*
X70305Y-48250D01*
X70305Y-48194D02*
X70194Y-48305D01*
X70110Y-48556D02*
X70556Y-48110D01*
X70389Y-47943D02*
X69943Y-48389D01*
X70194Y-47748D02*
X70751Y-48305D01*
X70751Y-48305D02*
X70305Y-48751D01*
X70305Y-48751D02*
X69748Y-48194D01*
X69748Y-48194D02*
X70194Y-47748D01*
X76421Y-33000D02*
X76539Y-33118D01*
X76539Y-33118D02*
X76539Y-32882D01*
X76539Y-32882D02*
X76421Y-33000D01*
X76461Y-32961D02*
X76461Y-33039D01*
X76500Y-33079D02*
X76500Y-32921D01*
X76382Y-32685D02*
X76382Y-33315D01*
X76618Y-33315D02*
X76618Y-32685D01*
X76894Y-33315D02*
X76106Y-33315D01*
X76106Y-33315D02*
X76106Y-32685D01*
X76106Y-32685D02*
X76894Y-32685D01*
X76894Y-32685D02*
X76894Y-33315D01*
X76579Y-51000D02*
X76461Y-50882D01*
X76461Y-50882D02*
X76461Y-51118D01*
X76461Y-51118D02*
X76579Y-51000D01*
X76539Y-51039D02*
X76539Y-50961D01*
X76500Y-50921D02*
X76500Y-51079D01*
X76618Y-51315D02*
X76618Y-50685D01*
X76382Y-50685D02*
X76382Y-51315D01*
X76106Y-50685D02*
X76894Y-50685D01*
X76894Y-50685D02*
X76894Y-51315D01*
X76894Y-51315D02*
X76106Y-51315D01*
X76106Y-51315D02*
X76106Y-50685D01*
X82694Y-35694D02*
X82694Y-35861D01*
X82694Y-35861D02*
X82861Y-35694D01*
X82861Y-35694D02*
X82694Y-35694D01*
X82750Y-35694D02*
X82694Y-35750D01*
X82694Y-35805D02*
X82805Y-35694D01*
X82889Y-35443D02*
X82443Y-35889D01*
X82610Y-36056D02*
X83056Y-35610D01*
X82805Y-36251D02*
X82248Y-35694D01*
X82248Y-35694D02*
X82694Y-35248D01*
X82694Y-35248D02*
X83251Y-35805D01*
X83251Y-35805D02*
X82805Y-36251D01*
X82805Y-48194D02*
X82638Y-48194D01*
X82638Y-48194D02*
X82805Y-48361D01*
X82805Y-48361D02*
X82805Y-48194D01*
X82805Y-48250D02*
X82750Y-48194D01*
X82694Y-48194D02*
X82805Y-48305D01*
X83056Y-48389D02*
X82610Y-47943D01*
X82443Y-48110D02*
X82889Y-48556D01*
X82248Y-48305D02*
X82805Y-47748D01*
X82805Y-47748D02*
X83251Y-48194D01*
X83251Y-48194D02*
X82694Y-48751D01*
X82694Y-48751D02*
X82248Y-48305D01*
X85500Y-41921D02*
X85382Y-42039D01*
X85382Y-42039D02*
X85618Y-42039D01*
X85618Y-42039D02*
X85500Y-41921D01*
X85539Y-41961D02*
X85461Y-41961D01*
X85421Y-42000D02*
X85579Y-42000D01*
X85815Y-41882D02*
X85185Y-41882D01*
X85185Y-42118D02*
X85815Y-42118D01*
X85185Y-42394D02*
X85185Y-41606D01*
X85185Y-41606D02*
X85815Y-41606D01*
X85815Y-41606D02*
X85815Y-42394D01*
X85815Y-42394D02*
X85185Y-42394D01*
X73250Y-43103D02*
X72896Y-42750D01*
X73603Y-42750D02*
X73257Y-42403D01*
X73709Y-42643D02*
X73143Y-43209D01*
X73143Y-43209D02*
X72790Y-42856D01*
X72790Y-42856D02*
X73356Y-42290D01*
X73356Y-42290D02*
X73709Y-42643D01*
X68250Y-41750D02*
X68750Y-41750D01*
X68250Y-42250D02*
X68740Y-42250D01*
X68250Y-42400D02*
X68250Y-41600D01*
X68250Y-41600D02*
X68750Y-41600D01*
X68750Y-41600D02*
X68750Y-42400D01*
X68750Y-42400D02*
X68250Y-42400D01*
X71000Y-36146D02*
X71353Y-36500D01*
X70646Y-36500D02*
X70992Y-36846D01*
X70540Y-36606D02*
X71106Y-36040D01*
X71106Y-36040D02*
X71459Y-36393D01*
X71459Y-36393D02*
X70893Y-36959D01*
X70893Y-36959D02*
X70540Y-36606D01*
X70646Y-47500D02*
X71000Y-47146D01*
X71000Y-47853D02*
X71346Y-47507D01*
X71106Y-47959D02*
X70540Y-47393D01*
X70540Y-47393D02*
X70893Y-47040D01*
X70893Y-47040D02*
X71459Y-47606D01*
X71459Y-47606D02*
X71106Y-47959D01*
X76750Y-33750D02*
X76750Y-34250D01*
X76250Y-33750D02*
X76250Y-34240D01*
X76100Y-33750D02*
X76900Y-33750D01*
X76900Y-33750D02*
X76900Y-34250D01*
X76900Y-34250D02*
X76100Y-34250D01*
X76100Y-34250D02*
X76100Y-33750D01*
X76250Y-50250D02*
X76250Y-49750D01*
X76750Y-50250D02*
X76750Y-49760D01*
X76900Y-50250D02*
X76100Y-50250D01*
X76100Y-50250D02*
X76100Y-49750D01*
X76100Y-49750D02*
X76900Y-49750D01*
X76900Y-49750D02*
X76900Y-50250D01*
X82353Y-36500D02*
X82000Y-36853D01*
X82000Y-36146D02*
X81653Y-36492D01*
X81893Y-36040D02*
X82459Y-36606D01*
X82459Y-36606D02*
X82106Y-36959D01*
X82106Y-36959D02*
X81540Y-36393D01*
X81540Y-36393D02*
X81893Y-36040D01*
X82000Y-47853D02*
X81646Y-47500D01*
X82353Y-47500D02*
X82007Y-47153D01*
X82459Y-47393D02*
X81893Y-47959D01*
X81893Y-47959D02*
X81540Y-47606D01*
X81540Y-47606D02*
X82106Y-47040D01*
X82106Y-47040D02*
X82459Y-47393D01*
X84750Y-42250D02*
X84250Y-42250D01*
X84750Y-41750D02*
X84260Y-41750D01*
X84750Y-41600D02*
X84750Y-42400D01*
X84750Y-42400D02*
X84250Y-42400D01*
X84250Y-42400D02*
X84250Y-41600D01*
X84250Y-41600D02*
X84750Y-41600D01*
G54D10*
X75122Y-49431D02*
X75122Y-47068D01*
X75122Y-47068D02*
X77877Y-47068D01*
X77877Y-47068D02*
X77877Y-49431D01*
X77877Y-49431D02*
X75122Y-49431D01*
G54D15*
X74965Y-43614D02*
X74886Y-43535D01*
X74886Y-43457D02*
X75043Y-43614D01*
X75122Y-43614D02*
X74886Y-43378D01*
X75201Y-43614D02*
X74886Y-43614D01*
X74886Y-43614D02*
X74886Y-43299D01*
X74886Y-43299D02*
X75201Y-43614D01*
X78114Y-43299D02*
X78114Y-43614D01*
X78114Y-43614D02*
X77799Y-43614D01*
X77799Y-40386D02*
X78114Y-40386D01*
X78114Y-40386D02*
X78114Y-40701D01*
X74886Y-40701D02*
X74886Y-40386D01*
X74886Y-40386D02*
X75201Y-40386D01*
G54D13*
X75661Y-42950D02*
G75*
G03X75661Y-42950I-111J0D01*
G74*
G01*
X77900Y-43250D02*
X77750Y-43400D01*
X77750Y-43400D02*
X75250Y-43400D01*
X75250Y-43400D02*
X75100Y-43250D01*
X75100Y-43250D02*
X75100Y-40750D01*
X75100Y-40750D02*
X75250Y-40600D01*
X75250Y-40600D02*
X77750Y-40600D01*
X77750Y-40600D02*
X77900Y-40750D01*
X77900Y-40750D02*
X77900Y-43250D01*
G54D16*
X76980Y-39432D02*
X76974Y-39437D01*
X76957Y-39443D01*
X76946Y-39443D01*
X76929Y-39437D01*
X76918Y-39426D01*
X76912Y-39415D01*
X76907Y-39392D01*
X76907Y-39375D01*
X76912Y-39353D01*
X76918Y-39342D01*
X76929Y-39331D01*
X76946Y-39325D01*
X76957Y-39325D01*
X76974Y-39331D01*
X76980Y-39336D01*
X77092Y-39443D02*
X77025Y-39443D01*
X77059Y-39443D02*
X77059Y-39325D01*
X77047Y-39342D01*
X77036Y-39353D01*
X77025Y-39359D01*
X77480Y-45932D02*
X77474Y-45937D01*
X77457Y-45943D01*
X77446Y-45943D01*
X77429Y-45937D01*
X77418Y-45926D01*
X77412Y-45915D01*
X77407Y-45892D01*
X77407Y-45875D01*
X77412Y-45853D01*
X77418Y-45842D01*
X77429Y-45831D01*
X77446Y-45825D01*
X77457Y-45825D01*
X77474Y-45831D01*
X77480Y-45836D01*
X77525Y-45836D02*
X77530Y-45831D01*
X77542Y-45825D01*
X77570Y-45825D01*
X77581Y-45831D01*
X77587Y-45836D01*
X77592Y-45847D01*
X77592Y-45859D01*
X77587Y-45875D01*
X77519Y-45943D01*
X77592Y-45943D01*
X75902Y-45269D02*
X75907Y-45275D01*
X75913Y-45292D01*
X75913Y-45303D01*
X75907Y-45320D01*
X75896Y-45331D01*
X75885Y-45337D01*
X75862Y-45342D01*
X75845Y-45342D01*
X75823Y-45337D01*
X75812Y-45331D01*
X75801Y-45320D01*
X75795Y-45303D01*
X75795Y-45292D01*
X75801Y-45275D01*
X75806Y-45269D01*
X75795Y-45230D02*
X75795Y-45157D01*
X75840Y-45196D01*
X75840Y-45179D01*
X75845Y-45168D01*
X75851Y-45162D01*
X75862Y-45157D01*
X75890Y-45157D01*
X75902Y-45162D01*
X75907Y-45168D01*
X75913Y-45179D01*
X75913Y-45213D01*
X75907Y-45224D01*
X75902Y-45230D01*
G54D17*
X69930Y-45130D02*
X70216Y-45130D01*
X70273Y-45149D01*
X70311Y-45188D01*
X70330Y-45245D01*
X70330Y-45283D01*
X70330Y-44730D02*
X70330Y-44959D01*
X70330Y-44845D02*
X69930Y-44845D01*
X69988Y-44883D01*
X70026Y-44921D01*
X70045Y-44959D01*
X70178Y-44559D02*
X70178Y-44254D01*
X70311Y-44083D02*
X70330Y-44026D01*
X70330Y-43930D01*
X70311Y-43892D01*
X70292Y-43873D01*
X70254Y-43854D01*
X70216Y-43854D01*
X70178Y-43873D01*
X70159Y-43892D01*
X70140Y-43930D01*
X70121Y-44007D01*
X70102Y-44045D01*
X70083Y-44064D01*
X70045Y-44083D01*
X70007Y-44083D01*
X69969Y-44064D01*
X69950Y-44045D01*
X69930Y-44007D01*
X69930Y-43911D01*
X69950Y-43854D01*
X70121Y-43683D02*
X70121Y-43550D01*
X70330Y-43492D02*
X70330Y-43683D01*
X69930Y-43683D01*
X69930Y-43492D01*
X70330Y-43092D02*
X70140Y-43226D01*
X70330Y-43321D02*
X69930Y-43321D01*
X69930Y-43169D01*
X69950Y-43130D01*
X69969Y-43111D01*
X70007Y-43092D01*
X70064Y-43092D01*
X70102Y-43111D01*
X70121Y-43130D01*
X70140Y-43169D01*
X70140Y-43321D01*
X70330Y-42921D02*
X69930Y-42921D01*
X70216Y-42749D02*
X70216Y-42559D01*
X70330Y-42788D02*
X69930Y-42654D01*
X70330Y-42521D01*
X70330Y-42197D02*
X70330Y-42388D01*
X69930Y-42388D01*
G54D18*
X79022Y-47988D02*
X79022Y-48199D01*
X79008Y-48241D01*
X78980Y-48269D01*
X78938Y-48283D01*
X78910Y-48283D01*
X79149Y-48016D02*
X79163Y-48002D01*
X79191Y-47988D01*
X79261Y-47988D01*
X79289Y-48002D01*
X79303Y-48016D01*
X79318Y-48044D01*
X79318Y-48072D01*
X79303Y-48114D01*
X79135Y-48283D01*
X79318Y-48283D01*
X79444Y-48171D02*
X79669Y-48171D01*
X79796Y-48269D02*
X79838Y-48283D01*
X79908Y-48283D01*
X79936Y-48269D01*
X79950Y-48255D01*
X79964Y-48227D01*
X79964Y-48199D01*
X79950Y-48171D01*
X79936Y-48157D01*
X79908Y-48142D01*
X79852Y-48128D01*
X79824Y-48114D01*
X79810Y-48100D01*
X79796Y-48072D01*
X79796Y-48044D01*
X79810Y-48016D01*
X79824Y-48002D01*
X79852Y-47988D01*
X79922Y-47988D01*
X79964Y-48002D01*
X80091Y-48283D02*
X80091Y-47988D01*
X80203Y-47988D01*
X80232Y-48002D01*
X80246Y-48016D01*
X80260Y-48044D01*
X80260Y-48086D01*
X80246Y-48114D01*
X80232Y-48128D01*
X80203Y-48142D01*
X80091Y-48142D01*
X80372Y-48199D02*
X80513Y-48199D01*
X80344Y-48283D02*
X80442Y-47988D01*
X80541Y-48283D01*
X80808Y-48283D02*
X80710Y-48142D01*
X80639Y-48283D02*
X80639Y-47988D01*
X80752Y-47988D01*
X80780Y-48002D01*
X80794Y-48016D01*
X80808Y-48044D01*
X80808Y-48086D01*
X80794Y-48114D01*
X80780Y-48128D01*
X80752Y-48142D01*
X80639Y-48142D01*
X80935Y-48128D02*
X81033Y-48128D01*
X81075Y-48283D02*
X80935Y-48283D01*
X80935Y-47988D01*
X81075Y-47988D01*
G54D17*
X72307Y-46180D02*
X72307Y-46466D01*
X72288Y-46523D01*
X72250Y-46561D01*
X72192Y-46580D01*
X72154Y-46580D01*
X72459Y-46180D02*
X72707Y-46180D01*
X72573Y-46333D01*
X72630Y-46333D01*
X72669Y-46352D01*
X72688Y-46371D01*
X72707Y-46409D01*
X72707Y-46504D01*
X72688Y-46542D01*
X72669Y-46561D01*
X72630Y-46580D01*
X72516Y-46580D01*
X72478Y-46561D01*
X72459Y-46542D01*
X72878Y-46428D02*
X73183Y-46428D01*
X73316Y-46180D02*
X73545Y-46180D01*
X73430Y-46580D02*
X73430Y-46180D01*
X73678Y-46580D02*
X73678Y-46180D01*
X74059Y-46580D02*
X73869Y-46580D01*
X73869Y-46180D01*
X74135Y-46180D02*
X74364Y-46180D01*
X74250Y-46580D02*
X74250Y-46180D01*
G54D12*
X68053Y-41578D02*
X68053Y-41634D01*
X67935Y-41634D01*
X68053Y-41539D02*
X67935Y-41539D01*
X67935Y-41511D01*
X67940Y-41494D01*
X67952Y-41483D01*
X67963Y-41477D01*
X67985Y-41471D01*
X68002Y-41471D01*
X68025Y-41477D01*
X68036Y-41483D01*
X68047Y-41494D01*
X68053Y-41511D01*
X68053Y-41539D01*
X68053Y-41359D02*
X68053Y-41426D01*
X68053Y-41393D02*
X67935Y-41393D01*
X67952Y-41404D01*
X67963Y-41415D01*
X67969Y-41426D01*
X70982Y-35593D02*
X70942Y-35633D01*
X70858Y-35549D01*
X71009Y-35565D02*
X70926Y-35482D01*
X70946Y-35462D01*
X70962Y-35454D01*
X70978Y-35454D01*
X70990Y-35458D01*
X71009Y-35470D01*
X71021Y-35482D01*
X71033Y-35501D01*
X71037Y-35513D01*
X71037Y-35529D01*
X71029Y-35545D01*
X71009Y-35565D01*
X71001Y-35406D02*
X71053Y-35354D01*
X71057Y-35414D01*
X71069Y-35402D01*
X71081Y-35398D01*
X71089Y-35398D01*
X71101Y-35402D01*
X71121Y-35422D01*
X71125Y-35434D01*
X71125Y-35442D01*
X71121Y-35454D01*
X71097Y-35478D01*
X71085Y-35482D01*
X71077Y-35482D01*
X69906Y-47482D02*
X69866Y-47442D01*
X69950Y-47358D01*
X69934Y-47509D02*
X70017Y-47426D01*
X70037Y-47446D01*
X70045Y-47462D01*
X70045Y-47478D01*
X70041Y-47490D01*
X70029Y-47509D01*
X70017Y-47521D01*
X69998Y-47533D01*
X69986Y-47537D01*
X69970Y-47537D01*
X69954Y-47529D01*
X69934Y-47509D01*
X70109Y-47573D02*
X70053Y-47629D01*
X70121Y-47521D02*
X70041Y-47561D01*
X70093Y-47613D01*
X76921Y-33553D02*
X76865Y-33553D01*
X76865Y-33435D01*
X76960Y-33553D02*
X76960Y-33435D01*
X76988Y-33435D01*
X77005Y-33440D01*
X77016Y-33452D01*
X77022Y-33463D01*
X77028Y-33485D01*
X77028Y-33502D01*
X77022Y-33525D01*
X77016Y-33536D01*
X77005Y-33547D01*
X76988Y-33553D01*
X76960Y-33553D01*
X77067Y-33435D02*
X77146Y-33435D01*
X77095Y-33553D01*
X75553Y-51078D02*
X75553Y-51134D01*
X75435Y-51134D01*
X75553Y-51039D02*
X75435Y-51039D01*
X75435Y-51011D01*
X75440Y-50994D01*
X75452Y-50983D01*
X75463Y-50977D01*
X75485Y-50971D01*
X75502Y-50971D01*
X75525Y-50977D01*
X75536Y-50983D01*
X75547Y-50994D01*
X75553Y-51011D01*
X75553Y-51039D01*
X75485Y-50904D02*
X75480Y-50915D01*
X75474Y-50921D01*
X75463Y-50926D01*
X75457Y-50926D01*
X75446Y-50921D01*
X75440Y-50915D01*
X75435Y-50904D01*
X75435Y-50881D01*
X75440Y-50870D01*
X75446Y-50865D01*
X75457Y-50859D01*
X75463Y-50859D01*
X75474Y-50865D01*
X75480Y-50870D01*
X75485Y-50881D01*
X75485Y-50904D01*
X75491Y-50915D01*
X75497Y-50921D01*
X75508Y-50926D01*
X75530Y-50926D01*
X75542Y-50921D01*
X75547Y-50915D01*
X75553Y-50904D01*
X75553Y-50881D01*
X75547Y-50870D01*
X75542Y-50865D01*
X75530Y-50859D01*
X75508Y-50859D01*
X75497Y-50865D01*
X75491Y-50870D01*
X75485Y-50881D01*
X82866Y-36442D02*
X82827Y-36402D01*
X82910Y-36319D01*
X82894Y-36470D02*
X82978Y-36386D01*
X82998Y-36406D01*
X83005Y-36422D01*
X83005Y-36438D01*
X83001Y-36450D01*
X82990Y-36470D01*
X82978Y-36482D01*
X82958Y-36494D01*
X82946Y-36498D01*
X82930Y-36498D01*
X82914Y-36490D01*
X82894Y-36470D01*
X83021Y-36597D02*
X82974Y-36549D01*
X82998Y-36573D02*
X83081Y-36490D01*
X83061Y-36494D01*
X83045Y-36494D01*
X83033Y-36490D01*
X83101Y-36676D02*
X83053Y-36629D01*
X83077Y-36653D02*
X83161Y-36569D01*
X83141Y-36573D01*
X83125Y-36573D01*
X83113Y-36569D01*
X81942Y-48633D02*
X81902Y-48672D01*
X81819Y-48589D01*
X81970Y-48605D02*
X81886Y-48521D01*
X81906Y-48501D01*
X81922Y-48494D01*
X81938Y-48494D01*
X81950Y-48498D01*
X81970Y-48509D01*
X81982Y-48521D01*
X81994Y-48541D01*
X81998Y-48553D01*
X81998Y-48569D01*
X81990Y-48585D01*
X81970Y-48605D01*
X82097Y-48478D02*
X82049Y-48525D01*
X82073Y-48501D02*
X81990Y-48418D01*
X81994Y-48438D01*
X81994Y-48454D01*
X81990Y-48466D01*
X82053Y-48370D02*
X82053Y-48362D01*
X82057Y-48350D01*
X82077Y-48330D01*
X82089Y-48327D01*
X82097Y-48327D01*
X82109Y-48330D01*
X82117Y-48338D01*
X82125Y-48354D01*
X82125Y-48450D01*
X82176Y-48398D01*
X85053Y-42634D02*
X85053Y-42691D01*
X84935Y-42691D01*
X85053Y-42595D02*
X84935Y-42595D01*
X84935Y-42567D01*
X84940Y-42550D01*
X84952Y-42539D01*
X84963Y-42533D01*
X84985Y-42528D01*
X85002Y-42528D01*
X85025Y-42533D01*
X85036Y-42539D01*
X85047Y-42550D01*
X85053Y-42567D01*
X85053Y-42595D01*
X85053Y-42415D02*
X85053Y-42483D01*
X85053Y-42449D02*
X84935Y-42449D01*
X84952Y-42460D01*
X84963Y-42471D01*
X84969Y-42483D01*
X84935Y-42308D02*
X84935Y-42365D01*
X84991Y-42370D01*
X84985Y-42365D01*
X84980Y-42353D01*
X84980Y-42325D01*
X84985Y-42314D01*
X84991Y-42308D01*
X85002Y-42303D01*
X85030Y-42303D01*
X85042Y-42308D01*
X85047Y-42314D01*
X85053Y-42325D01*
X85053Y-42353D01*
X85047Y-42365D01*
X85042Y-42370D01*
G54D16*
X73549Y-43077D02*
X73482Y-43065D01*
X73501Y-43125D02*
X73418Y-43041D01*
X73450Y-43009D01*
X73462Y-43005D01*
X73470Y-43005D01*
X73482Y-43009D01*
X73493Y-43021D01*
X73497Y-43033D01*
X73497Y-43041D01*
X73493Y-43053D01*
X73462Y-43085D01*
X73629Y-42997D02*
X73581Y-43045D01*
X73605Y-43021D02*
X73521Y-42938D01*
X73525Y-42958D01*
X73525Y-42974D01*
X73521Y-42986D01*
X68163Y-42019D02*
X68107Y-42059D01*
X68163Y-42087D02*
X68045Y-42087D01*
X68045Y-42042D01*
X68051Y-42030D01*
X68056Y-42025D01*
X68067Y-42019D01*
X68084Y-42019D01*
X68095Y-42025D01*
X68101Y-42030D01*
X68107Y-42042D01*
X68107Y-42087D01*
X68056Y-41974D02*
X68051Y-41969D01*
X68045Y-41957D01*
X68045Y-41929D01*
X68051Y-41918D01*
X68056Y-41912D01*
X68067Y-41907D01*
X68079Y-41907D01*
X68095Y-41912D01*
X68163Y-41980D01*
X68163Y-41907D01*
X70748Y-36275D02*
X70680Y-36263D01*
X70700Y-36323D02*
X70616Y-36240D01*
X70648Y-36208D01*
X70660Y-36204D01*
X70668Y-36204D01*
X70680Y-36208D01*
X70692Y-36220D01*
X70696Y-36232D01*
X70696Y-36240D01*
X70692Y-36252D01*
X70660Y-36283D01*
X70763Y-36148D02*
X70819Y-36204D01*
X70712Y-36136D02*
X70752Y-36216D01*
X70803Y-36164D01*
X70672Y-47799D02*
X70684Y-47732D01*
X70624Y-47751D02*
X70708Y-47668D01*
X70740Y-47700D01*
X70744Y-47712D01*
X70744Y-47720D01*
X70740Y-47732D01*
X70728Y-47743D01*
X70716Y-47747D01*
X70708Y-47747D01*
X70696Y-47743D01*
X70664Y-47712D01*
X70831Y-47791D02*
X70791Y-47751D01*
X70748Y-47787D01*
X70756Y-47787D01*
X70767Y-47791D01*
X70787Y-47811D01*
X70791Y-47823D01*
X70791Y-47831D01*
X70787Y-47843D01*
X70767Y-47863D01*
X70756Y-47867D01*
X70748Y-47867D01*
X70736Y-47863D01*
X70716Y-47843D01*
X70712Y-47831D01*
X70712Y-47823D01*
X76480Y-33663D02*
X76441Y-33607D01*
X76412Y-33663D02*
X76412Y-33545D01*
X76457Y-33545D01*
X76469Y-33551D01*
X76474Y-33556D01*
X76480Y-33567D01*
X76480Y-33584D01*
X76474Y-33595D01*
X76469Y-33601D01*
X76457Y-33607D01*
X76412Y-33607D01*
X76547Y-33595D02*
X76536Y-33590D01*
X76530Y-33584D01*
X76525Y-33573D01*
X76525Y-33567D01*
X76530Y-33556D01*
X76536Y-33551D01*
X76547Y-33545D01*
X76570Y-33545D01*
X76581Y-33551D01*
X76587Y-33556D01*
X76592Y-33567D01*
X76592Y-33573D01*
X76587Y-33584D01*
X76581Y-33590D01*
X76570Y-33595D01*
X76547Y-33595D01*
X76536Y-33601D01*
X76530Y-33607D01*
X76525Y-33618D01*
X76525Y-33640D01*
X76530Y-33652D01*
X76536Y-33657D01*
X76547Y-33663D01*
X76570Y-33663D01*
X76581Y-33657D01*
X76587Y-33652D01*
X76592Y-33640D01*
X76592Y-33618D01*
X76587Y-33607D01*
X76581Y-33601D01*
X76570Y-33595D01*
X76480Y-50443D02*
X76441Y-50387D01*
X76412Y-50443D02*
X76412Y-50325D01*
X76457Y-50325D01*
X76469Y-50331D01*
X76474Y-50336D01*
X76480Y-50347D01*
X76480Y-50364D01*
X76474Y-50375D01*
X76469Y-50381D01*
X76457Y-50387D01*
X76412Y-50387D01*
X76536Y-50443D02*
X76559Y-50443D01*
X76570Y-50437D01*
X76575Y-50432D01*
X76587Y-50415D01*
X76592Y-50392D01*
X76592Y-50347D01*
X76587Y-50336D01*
X76581Y-50331D01*
X76570Y-50325D01*
X76547Y-50325D01*
X76536Y-50331D01*
X76530Y-50336D01*
X76525Y-50347D01*
X76525Y-50375D01*
X76530Y-50387D01*
X76536Y-50392D01*
X76547Y-50398D01*
X76570Y-50398D01*
X76581Y-50392D01*
X76587Y-50387D01*
X76592Y-50375D01*
X82184Y-36208D02*
X82196Y-36140D01*
X82136Y-36160D02*
X82220Y-36077D01*
X82251Y-36109D01*
X82255Y-36120D01*
X82255Y-36128D01*
X82251Y-36140D01*
X82240Y-36152D01*
X82228Y-36156D01*
X82220Y-36156D01*
X82208Y-36152D01*
X82176Y-36120D01*
X82263Y-36287D02*
X82216Y-36240D01*
X82240Y-36263D02*
X82323Y-36180D01*
X82303Y-36184D01*
X82287Y-36184D01*
X82275Y-36180D01*
X82371Y-36244D02*
X82379Y-36244D01*
X82390Y-36248D01*
X82410Y-36267D01*
X82414Y-36279D01*
X82414Y-36287D01*
X82410Y-36299D01*
X82402Y-36307D01*
X82387Y-36315D01*
X82291Y-36315D01*
X82343Y-36367D01*
X82259Y-47867D02*
X82192Y-47855D01*
X82212Y-47914D02*
X82128Y-47831D01*
X82160Y-47799D01*
X82172Y-47795D01*
X82180Y-47795D01*
X82192Y-47799D01*
X82204Y-47811D01*
X82208Y-47823D01*
X82208Y-47831D01*
X82204Y-47843D01*
X82172Y-47875D01*
X82339Y-47787D02*
X82291Y-47835D01*
X82315Y-47811D02*
X82232Y-47728D01*
X82236Y-47747D01*
X82236Y-47763D01*
X82232Y-47775D01*
X82283Y-47676D02*
X82335Y-47624D01*
X82339Y-47684D01*
X82351Y-47672D01*
X82363Y-47668D01*
X82371Y-47668D01*
X82383Y-47672D01*
X82402Y-47692D01*
X82406Y-47704D01*
X82406Y-47712D01*
X82402Y-47724D01*
X82379Y-47747D01*
X82367Y-47751D01*
X82359Y-47751D01*
X84943Y-42075D02*
X84887Y-42115D01*
X84943Y-42143D02*
X84825Y-42143D01*
X84825Y-42098D01*
X84831Y-42087D01*
X84836Y-42081D01*
X84847Y-42075D01*
X84864Y-42075D01*
X84875Y-42081D01*
X84881Y-42087D01*
X84887Y-42098D01*
X84887Y-42143D01*
X84943Y-41963D02*
X84943Y-42030D01*
X84943Y-41997D02*
X84825Y-41997D01*
X84842Y-42008D01*
X84853Y-42019D01*
X84859Y-42030D01*
X84825Y-41862D02*
X84825Y-41884D01*
X84831Y-41896D01*
X84836Y-41901D01*
X84853Y-41912D01*
X84875Y-41918D01*
X84920Y-41918D01*
X84932Y-41912D01*
X84937Y-41907D01*
X84943Y-41896D01*
X84943Y-41873D01*
X84937Y-41862D01*
X84932Y-41856D01*
X84920Y-41851D01*
X84892Y-41851D01*
X84881Y-41856D01*
X84875Y-41862D01*
X84870Y-41873D01*
X84870Y-41896D01*
X84875Y-41907D01*
X84881Y-41912D01*
X84892Y-41918D01*
G54D10*
X75215Y-46659D02*
X75272Y-46678D01*
X75365Y-46678D01*
X75403Y-46659D01*
X75422Y-46640D01*
X75440Y-46603D01*
X75440Y-46565D01*
X75422Y-46528D01*
X75403Y-46509D01*
X75365Y-46490D01*
X75290Y-46471D01*
X75253Y-46453D01*
X75234Y-46434D01*
X75215Y-46396D01*
X75215Y-46359D01*
X75234Y-46321D01*
X75253Y-46303D01*
X75290Y-46284D01*
X75384Y-46284D01*
X75440Y-46303D01*
X75571Y-46284D02*
X75665Y-46678D01*
X75740Y-46396D01*
X75815Y-46678D01*
X75909Y-46284D01*
X75965Y-46715D02*
X76265Y-46715D01*
X76359Y-46678D02*
X76359Y-46284D01*
X76509Y-46284D01*
X76546Y-46303D01*
X76565Y-46321D01*
X76584Y-46359D01*
X76584Y-46415D01*
X76565Y-46453D01*
X76546Y-46471D01*
X76509Y-46490D01*
X76359Y-46490D01*
X76753Y-46284D02*
X76753Y-46603D01*
X76771Y-46640D01*
X76790Y-46659D01*
X76828Y-46678D01*
X76903Y-46678D01*
X76940Y-46659D01*
X76959Y-46640D01*
X76978Y-46603D01*
X76978Y-46284D01*
X77146Y-46659D02*
X77203Y-46678D01*
X77296Y-46678D01*
X77334Y-46659D01*
X77353Y-46640D01*
X77371Y-46603D01*
X77371Y-46565D01*
X77353Y-46528D01*
X77334Y-46509D01*
X77296Y-46490D01*
X77221Y-46471D01*
X77184Y-46453D01*
X77165Y-46434D01*
X77146Y-46396D01*
X77146Y-46359D01*
X77165Y-46321D01*
X77184Y-46303D01*
X77221Y-46284D01*
X77315Y-46284D01*
X77371Y-46303D01*
X77540Y-46678D02*
X77540Y-46284D01*
X77540Y-46471D02*
X77765Y-46471D01*
X77765Y-46678D02*
X77765Y-46284D01*
G54D15*
X76275Y-42288D02*
X76275Y-42527D01*
X76289Y-42555D01*
X76303Y-42569D01*
X76331Y-42583D01*
X76387Y-42583D01*
X76415Y-42569D01*
X76429Y-42555D01*
X76443Y-42527D01*
X76443Y-42288D01*
X76738Y-42583D02*
X76570Y-42583D01*
X76654Y-42583D02*
X76654Y-42288D01*
X76626Y-42330D01*
X76598Y-42358D01*
X76570Y-42372D01*
X75320Y-41599D02*
X75460Y-41599D01*
X75291Y-41683D02*
X75390Y-41388D01*
X75488Y-41683D01*
X75544Y-41388D02*
X75713Y-41388D01*
X75629Y-41683D02*
X75629Y-41388D01*
X75811Y-41683D02*
X75811Y-41388D01*
X75910Y-41599D01*
X76008Y-41388D01*
X76008Y-41683D01*
X76148Y-41528D02*
X76247Y-41528D01*
X76289Y-41683D02*
X76148Y-41683D01*
X76148Y-41388D01*
X76289Y-41388D01*
X76570Y-41402D02*
X76542Y-41388D01*
X76500Y-41388D01*
X76457Y-41402D01*
X76429Y-41430D01*
X76415Y-41458D01*
X76401Y-41514D01*
X76401Y-41557D01*
X76415Y-41613D01*
X76429Y-41641D01*
X76457Y-41669D01*
X76500Y-41683D01*
X76528Y-41683D01*
X76570Y-41669D01*
X76584Y-41655D01*
X76584Y-41557D01*
X76528Y-41557D01*
X76696Y-41599D02*
X76837Y-41599D01*
X76668Y-41683D02*
X76766Y-41388D01*
X76865Y-41683D01*
X76935Y-41388D02*
X77118Y-41388D01*
X77019Y-41500D01*
X77061Y-41500D01*
X77090Y-41514D01*
X77104Y-41528D01*
X77118Y-41557D01*
X77118Y-41627D01*
X77104Y-41655D01*
X77090Y-41669D01*
X77061Y-41683D01*
X76977Y-41683D01*
X76949Y-41669D01*
X76935Y-41655D01*
X77230Y-41416D02*
X77244Y-41402D01*
X77272Y-41388D01*
X77342Y-41388D01*
X77370Y-41402D01*
X77385Y-41416D01*
X77399Y-41444D01*
X77399Y-41472D01*
X77385Y-41514D01*
X77216Y-41683D01*
X77399Y-41683D01*
X77567Y-41514D02*
X77539Y-41500D01*
X77525Y-41486D01*
X77511Y-41458D01*
X77511Y-41444D01*
X77525Y-41416D01*
X77539Y-41402D01*
X77567Y-41388D01*
X77623Y-41388D01*
X77651Y-41402D01*
X77665Y-41416D01*
X77680Y-41444D01*
X77680Y-41458D01*
X77665Y-41486D01*
X77651Y-41500D01*
X77623Y-41514D01*
X77567Y-41514D01*
X77539Y-41528D01*
X77525Y-41542D01*
X77511Y-41571D01*
X77511Y-41627D01*
X77525Y-41655D01*
X77539Y-41669D01*
X77567Y-41683D01*
X77623Y-41683D01*
X77651Y-41669D01*
X77665Y-41655D01*
X77680Y-41627D01*
X77680Y-41571D01*
X77665Y-41542D01*
X77651Y-41528D01*
X77623Y-41514D01*
M02*
