%FSLAX34Y34*%
G04 Gerber Fmt 3.4, Leading zero omitted, Abs format*
G04 (created by PCBNEW (2013-jul-14)-product) date Sunday, 05 January 2014 05:56:02 pm*
%MOIN*%
G01*
G70*
G90*
G04 APERTURE LIST*
%ADD10C,0.005906*%
%ADD11C,0.118110*%
%ADD12R,0.051200X0.059000*%
%ADD13R,0.059000X0.051200*%
%ADD14R,0.078700X0.060000*%
%ADD15O,0.078700X0.060000*%
%ADD16R,0.086600X0.060000*%
%ADD17O,0.086600X0.060000*%
%ADD18R,0.060000X0.086600*%
%ADD19O,0.060000X0.086600*%
%ADD20R,0.047200X0.047200*%
%ADD21R,0.108268X0.055118*%
%ADD22R,0.021700X0.051200*%
%ADD23R,0.051200X0.021700*%
%ADD24C,0.035000*%
%ADD25C,0.010000*%
G04 APERTURE END LIST*
G54D10*
G54D11*
X72365Y-42000D03*
X80634Y-42000D03*
G54D12*
X76625Y-39000D03*
X77375Y-39000D03*
X77125Y-45500D03*
X77875Y-45500D03*
G54D13*
X76250Y-44875D03*
X76250Y-45625D03*
G54D14*
X75902Y-37250D03*
G54D15*
X77098Y-37250D03*
X75902Y-36250D03*
X77098Y-36250D03*
X75902Y-35250D03*
X77098Y-35250D03*
G54D16*
X71000Y-44750D03*
G54D17*
X71000Y-43750D03*
X71000Y-42750D03*
G54D18*
X79500Y-49000D03*
G54D19*
X80500Y-49000D03*
G54D18*
X72750Y-47250D03*
G54D19*
X73750Y-47250D03*
G54D20*
X67500Y-41587D03*
X67500Y-42413D03*
G54D10*
G36*
X70542Y-35124D02*
X70875Y-35457D01*
X70542Y-35791D01*
X70208Y-35457D01*
X70542Y-35124D01*
X70542Y-35124D01*
G37*
G36*
X69957Y-35708D02*
X70291Y-36042D01*
X69957Y-36375D01*
X69624Y-36042D01*
X69957Y-35708D01*
X69957Y-35708D01*
G37*
G36*
X69624Y-47957D02*
X69957Y-47624D01*
X70291Y-47957D01*
X69957Y-48291D01*
X69624Y-47957D01*
X69624Y-47957D01*
G37*
G36*
X70208Y-48542D02*
X70542Y-48208D01*
X70875Y-48542D01*
X70542Y-48875D01*
X70208Y-48542D01*
X70208Y-48542D01*
G37*
G54D20*
X76913Y-33000D03*
X76087Y-33000D03*
X76087Y-51000D03*
X76913Y-51000D03*
G54D10*
G36*
X83375Y-36042D02*
X83042Y-36375D01*
X82708Y-36042D01*
X83042Y-35708D01*
X83375Y-36042D01*
X83375Y-36042D01*
G37*
G36*
X82791Y-35457D02*
X82457Y-35791D01*
X82124Y-35457D01*
X82457Y-35124D01*
X82791Y-35457D01*
X82791Y-35457D01*
G37*
G36*
X82457Y-48875D02*
X82124Y-48542D01*
X82457Y-48208D01*
X82791Y-48542D01*
X82457Y-48875D01*
X82457Y-48875D01*
G37*
G36*
X83042Y-48291D02*
X82708Y-47957D01*
X83042Y-47624D01*
X83375Y-47957D01*
X83042Y-48291D01*
X83042Y-48291D01*
G37*
G54D20*
X85500Y-42413D03*
X85500Y-41587D03*
G54D10*
G36*
X72957Y-42625D02*
X73374Y-43042D01*
X73012Y-43404D01*
X72595Y-42987D01*
X72957Y-42625D01*
X72957Y-42625D01*
G37*
G36*
X73487Y-42095D02*
X73904Y-42512D01*
X73542Y-42874D01*
X73125Y-42457D01*
X73487Y-42095D01*
X73487Y-42095D01*
G37*
G54D13*
X68500Y-41625D03*
X68500Y-42375D03*
G54D10*
G36*
X71292Y-36624D02*
X70875Y-36207D01*
X71237Y-35845D01*
X71654Y-36262D01*
X71292Y-36624D01*
X71292Y-36624D01*
G37*
G36*
X70762Y-37154D02*
X70345Y-36737D01*
X70707Y-36375D01*
X71124Y-36792D01*
X70762Y-37154D01*
X70762Y-37154D01*
G37*
G36*
X71124Y-47207D02*
X70707Y-47624D01*
X70345Y-47262D01*
X70762Y-46845D01*
X71124Y-47207D01*
X71124Y-47207D01*
G37*
G36*
X71654Y-47737D02*
X71237Y-48154D01*
X70875Y-47792D01*
X71292Y-47375D01*
X71654Y-47737D01*
X71654Y-47737D01*
G37*
G54D12*
X76875Y-34000D03*
X76125Y-34000D03*
X76125Y-50000D03*
X76875Y-50000D03*
G54D10*
G36*
X81875Y-36792D02*
X82292Y-36375D01*
X82654Y-36737D01*
X82237Y-37154D01*
X81875Y-36792D01*
X81875Y-36792D01*
G37*
G36*
X81345Y-36262D02*
X81762Y-35845D01*
X82124Y-36207D01*
X81707Y-36624D01*
X81345Y-36262D01*
X81345Y-36262D01*
G37*
G36*
X81707Y-47375D02*
X82124Y-47792D01*
X81762Y-48154D01*
X81345Y-47737D01*
X81707Y-47375D01*
X81707Y-47375D01*
G37*
G36*
X82237Y-46845D02*
X82654Y-47262D01*
X82292Y-47624D01*
X81875Y-47207D01*
X82237Y-46845D01*
X82237Y-46845D01*
G37*
G54D13*
X84500Y-42375D03*
X84500Y-41625D03*
G54D21*
X75161Y-48250D03*
X75161Y-47462D03*
X77838Y-47462D03*
X75161Y-49037D03*
X77838Y-49037D03*
G54D22*
X76343Y-43614D03*
X76657Y-43614D03*
X76972Y-43614D03*
X77287Y-43614D03*
X77602Y-43614D03*
X75398Y-43614D03*
X75713Y-43614D03*
X76028Y-43614D03*
G54D23*
X78114Y-43102D03*
X78114Y-42787D03*
X78114Y-42472D03*
X78114Y-42157D03*
X78114Y-41843D03*
X78114Y-41528D03*
X78114Y-41213D03*
X78114Y-40898D03*
G54D22*
X77602Y-40386D03*
X77287Y-40386D03*
X76972Y-40386D03*
X76657Y-40386D03*
X76343Y-40386D03*
X76028Y-40386D03*
X75713Y-40386D03*
X75398Y-40386D03*
G54D23*
X74886Y-40898D03*
X74886Y-41213D03*
X74886Y-41528D03*
X74886Y-41843D03*
X74886Y-42157D03*
X74886Y-42472D03*
X74886Y-42787D03*
X74886Y-43102D03*
G54D24*
X78500Y-45750D03*
X72250Y-46000D03*
X75250Y-46000D03*
X75000Y-38000D03*
X71750Y-38000D03*
X70000Y-39750D03*
X74500Y-39500D03*
X74000Y-40000D03*
X79750Y-45250D03*
X82750Y-37750D03*
X82750Y-41000D03*
X70250Y-46000D03*
X69750Y-46000D03*
X81250Y-47250D03*
X83250Y-45500D03*
X81750Y-45500D03*
X77000Y-39750D03*
X83250Y-43750D03*
X74250Y-46750D03*
X74250Y-45500D03*
X76000Y-39500D03*
X82250Y-42750D03*
X82250Y-43750D03*
X74750Y-45500D03*
X74750Y-46750D03*
X80500Y-46750D03*
X82750Y-46500D03*
X82750Y-43750D03*
X82750Y-42750D03*
X81000Y-45500D03*
X81750Y-42750D03*
X79750Y-44250D03*
X79250Y-42500D03*
X80250Y-44750D03*
X79750Y-42500D03*
X71250Y-38500D03*
X70250Y-38500D03*
X81000Y-40000D03*
X78750Y-40000D03*
X79250Y-40500D03*
X81500Y-40500D03*
X80250Y-39500D03*
X78000Y-39500D03*
X72250Y-41000D03*
X72250Y-36500D03*
X84000Y-46750D03*
X74000Y-35750D03*
X73500Y-36500D03*
X71500Y-37500D03*
X73000Y-37500D03*
X75250Y-45250D03*
X68000Y-44250D03*
X74500Y-50750D03*
X84500Y-38000D03*
X80000Y-34000D03*
X73250Y-34000D03*
X68250Y-38500D03*
X79000Y-45750D03*
X79250Y-47750D03*
X72750Y-45000D03*
G54D25*
X78250Y-45500D02*
X78500Y-45750D01*
X77875Y-45500D02*
X78250Y-45500D01*
X75250Y-46000D02*
X72250Y-46000D01*
X76343Y-43614D02*
X76343Y-43157D01*
X76343Y-43157D02*
X76972Y-42528D01*
X77287Y-40386D02*
X77287Y-42213D01*
X77287Y-42213D02*
X76972Y-42528D01*
X76972Y-42528D02*
X76972Y-43614D01*
X75000Y-38000D02*
X71750Y-38000D01*
X77287Y-40386D02*
X77287Y-39963D01*
X77375Y-39875D02*
X77375Y-39000D01*
X77287Y-39963D02*
X77375Y-39875D01*
X72984Y-43015D02*
X72515Y-43015D01*
X72515Y-43015D02*
X72365Y-42865D01*
X72365Y-42865D02*
X72365Y-42000D01*
X76972Y-43614D02*
X76972Y-44222D01*
X76972Y-44222D02*
X77875Y-45125D01*
X77875Y-45125D02*
X77875Y-45500D01*
X76343Y-43614D02*
X76343Y-44782D01*
X76343Y-44782D02*
X76250Y-44875D01*
X73000Y-39750D02*
X70000Y-39750D01*
X74500Y-41213D02*
X74463Y-41213D01*
X74886Y-41213D02*
X74500Y-41213D01*
X74463Y-41213D02*
X73000Y-39750D01*
X75398Y-39898D02*
X75000Y-39500D01*
X75000Y-39500D02*
X74500Y-39500D01*
X75398Y-40386D02*
X75398Y-39898D01*
X74648Y-40898D02*
X74000Y-40250D01*
X74000Y-40250D02*
X74000Y-40000D01*
X74886Y-40898D02*
X74648Y-40898D01*
X78114Y-43614D02*
X79750Y-45250D01*
X77602Y-43614D02*
X78114Y-43614D01*
X82750Y-41000D02*
X82750Y-37750D01*
X72750Y-40500D02*
X70750Y-40500D01*
X74886Y-41843D02*
X74093Y-41843D01*
X74000Y-41750D02*
X74093Y-41843D01*
X72750Y-40500D02*
X74000Y-41750D01*
X70250Y-41000D02*
X70250Y-46000D01*
X70750Y-40500D02*
X70250Y-41000D01*
X72750Y-40000D02*
X70500Y-40000D01*
X69750Y-40750D02*
X69750Y-46000D01*
X70500Y-40000D02*
X69750Y-40750D01*
X74278Y-41528D02*
X72750Y-40000D01*
X74886Y-41528D02*
X74278Y-41528D01*
X74278Y-41528D02*
X74250Y-41500D01*
X81750Y-46750D02*
X81750Y-45500D01*
X81250Y-47250D02*
X81750Y-46750D01*
X83250Y-45500D02*
X83250Y-43750D01*
X76972Y-39778D02*
X77000Y-39750D01*
X76972Y-39778D02*
X76972Y-40386D01*
X74250Y-46750D02*
X74250Y-47000D01*
X74712Y-47462D02*
X75161Y-47462D01*
X74250Y-47000D02*
X74712Y-47462D01*
X75398Y-43614D02*
X74250Y-44762D01*
X74250Y-45500D02*
X74250Y-44762D01*
X75398Y-43614D02*
X75398Y-43852D01*
X76028Y-40386D02*
X76028Y-39528D01*
X76028Y-39528D02*
X76000Y-39500D01*
X83750Y-43000D02*
X83750Y-41750D01*
X83875Y-41625D02*
X84500Y-41625D01*
X83750Y-41750D02*
X83875Y-41625D01*
X78114Y-42787D02*
X78787Y-42787D01*
X83500Y-43250D02*
X83750Y-43000D01*
X79250Y-43250D02*
X83500Y-43250D01*
X78787Y-42787D02*
X79250Y-43250D01*
X84125Y-41625D02*
X84500Y-41625D01*
X84125Y-41625D02*
X84500Y-41625D01*
X84125Y-41625D02*
X84500Y-41625D01*
X82000Y-42500D02*
X82000Y-38500D01*
X78602Y-43102D02*
X79250Y-43750D01*
X76125Y-34375D02*
X76125Y-34000D01*
X76500Y-34750D02*
X76125Y-34375D01*
X77750Y-34750D02*
X76500Y-34750D01*
X82250Y-42750D02*
X82000Y-42500D01*
X79250Y-43750D02*
X82250Y-43750D01*
X78250Y-34750D02*
X77750Y-34750D01*
X82000Y-38500D02*
X78250Y-34750D01*
X78500Y-43102D02*
X78602Y-43102D01*
X78114Y-43102D02*
X78500Y-43102D01*
X78602Y-43102D02*
X79000Y-43500D01*
X74750Y-45500D02*
X74750Y-45000D01*
X75713Y-43614D02*
X75713Y-44037D01*
X75713Y-44037D02*
X74750Y-45000D01*
X80500Y-46750D02*
X74750Y-46750D01*
X82750Y-42750D02*
X82250Y-42250D01*
X82250Y-42250D02*
X82250Y-38250D01*
X81734Y-36265D02*
X81734Y-36234D01*
X81734Y-36265D02*
X81250Y-36750D01*
X81250Y-36750D02*
X81250Y-37250D01*
X81250Y-37250D02*
X82250Y-38250D01*
X82750Y-43750D02*
X82750Y-46500D01*
X75500Y-39500D02*
X75500Y-39250D01*
X75500Y-39250D02*
X75250Y-39000D01*
X75713Y-40386D02*
X75713Y-39713D01*
X75713Y-39713D02*
X75500Y-39500D01*
X71250Y-39000D02*
X70734Y-38484D01*
X75250Y-39000D02*
X71250Y-39000D01*
X70734Y-38484D02*
X70734Y-36765D01*
X81000Y-47000D02*
X80750Y-47250D01*
X81000Y-45500D02*
X81000Y-47000D01*
X76875Y-50000D02*
X78500Y-50000D01*
X79000Y-47250D02*
X80750Y-47250D01*
X78750Y-47500D02*
X79000Y-47250D01*
X78750Y-49750D02*
X78750Y-47500D01*
X78500Y-50000D02*
X78750Y-49750D01*
X79500Y-41500D02*
X80000Y-41000D01*
X81750Y-41500D02*
X81750Y-42750D01*
X81250Y-41000D02*
X81750Y-41500D01*
X80000Y-41000D02*
X81250Y-41000D01*
X78114Y-41843D02*
X79157Y-41843D01*
X79157Y-41843D02*
X79500Y-41500D01*
X82250Y-44500D02*
X82250Y-47219D01*
X82250Y-47219D02*
X82265Y-47234D01*
X82000Y-44250D02*
X82250Y-44500D01*
X79750Y-44250D02*
X82000Y-44250D01*
X78114Y-42472D02*
X79222Y-42472D01*
X79222Y-42472D02*
X79250Y-42500D01*
X75000Y-46250D02*
X75250Y-46500D01*
X79750Y-46500D02*
X80250Y-46000D01*
X75250Y-46500D02*
X79750Y-46500D01*
X80250Y-44750D02*
X80250Y-46000D01*
X78114Y-42157D02*
X79407Y-42157D01*
X79407Y-42157D02*
X79750Y-42500D01*
X71265Y-47484D02*
X71265Y-47765D01*
X72500Y-46250D02*
X71265Y-47484D01*
X75000Y-46250D02*
X72500Y-46250D01*
X71265Y-47765D02*
X71265Y-47734D01*
X79000Y-41500D02*
X79750Y-40750D01*
X79000Y-41500D02*
X78142Y-41500D01*
X78114Y-41528D02*
X78142Y-41500D01*
X79500Y-38500D02*
X71250Y-38500D01*
X79750Y-38750D02*
X79500Y-38500D01*
X79750Y-40750D02*
X79750Y-38750D01*
X68500Y-42375D02*
X69125Y-42375D01*
X70000Y-38500D02*
X70250Y-38500D01*
X69500Y-39000D02*
X70000Y-38500D01*
X69500Y-42000D02*
X69500Y-39000D01*
X69125Y-42375D02*
X69500Y-42000D01*
X78500Y-40898D02*
X78500Y-40250D01*
X76750Y-38000D02*
X76000Y-37250D01*
X80500Y-38000D02*
X76750Y-38000D01*
X81000Y-38500D02*
X80500Y-38000D01*
X81000Y-40000D02*
X81000Y-38500D01*
X78500Y-40250D02*
X78750Y-40000D01*
X78114Y-40898D02*
X78500Y-40898D01*
X78500Y-40898D02*
X78602Y-40898D01*
X81500Y-40500D02*
X81500Y-38500D01*
X78114Y-41213D02*
X78750Y-41213D01*
X79250Y-40750D02*
X79250Y-40500D01*
X78787Y-41213D02*
X79250Y-40750D01*
X78750Y-41213D02*
X78787Y-41213D01*
X79250Y-36250D02*
X77000Y-36250D01*
X81500Y-38500D02*
X79250Y-36250D01*
X71000Y-43750D02*
X73000Y-43750D01*
X74278Y-42472D02*
X74886Y-42472D01*
X73000Y-43750D02*
X74278Y-42472D01*
X75750Y-38250D02*
X75250Y-37750D01*
X80000Y-38250D02*
X75750Y-38250D01*
X75500Y-36250D02*
X76000Y-36250D01*
X75250Y-36500D02*
X75500Y-36250D01*
X75250Y-37750D02*
X75250Y-36500D01*
X80250Y-38500D02*
X80000Y-38250D01*
X77602Y-40386D02*
X77602Y-40148D01*
X77602Y-40148D02*
X78000Y-39750D01*
X78000Y-39750D02*
X78000Y-39500D01*
X80250Y-39500D02*
X80250Y-38500D01*
X74500Y-42787D02*
X74463Y-42787D01*
X74463Y-42787D02*
X72500Y-44750D01*
X72500Y-44750D02*
X71000Y-44750D01*
X74886Y-42787D02*
X74500Y-42787D01*
X72250Y-36500D02*
X73500Y-35250D01*
X73500Y-35250D02*
X76000Y-35250D01*
X73843Y-42093D02*
X72750Y-41000D01*
X72750Y-41000D02*
X72250Y-41000D01*
X73843Y-42093D02*
X73843Y-42157D01*
X74886Y-42157D02*
X73843Y-42157D01*
X73843Y-42157D02*
X73515Y-42484D01*
X84000Y-46750D02*
X84000Y-47000D01*
X84000Y-47000D02*
X83042Y-47957D01*
X74000Y-36000D02*
X74000Y-35750D01*
X73500Y-36500D02*
X74000Y-36000D01*
X73000Y-37500D02*
X71500Y-37500D01*
X76250Y-45625D02*
X75625Y-45625D01*
X75625Y-45625D02*
X75250Y-45250D01*
X67500Y-43750D02*
X67500Y-42413D01*
X68000Y-44250D02*
X67500Y-43750D01*
X76250Y-45625D02*
X77000Y-45625D01*
X77000Y-45625D02*
X77125Y-45500D01*
X76343Y-40386D02*
X76343Y-41157D01*
X76000Y-43586D02*
X76028Y-43614D01*
X76000Y-41500D02*
X76000Y-43586D01*
X76343Y-41157D02*
X76000Y-41500D01*
X73750Y-48500D02*
X73750Y-48750D01*
X74037Y-49037D02*
X75161Y-49037D01*
X73750Y-48750D02*
X74037Y-49037D01*
X80500Y-49000D02*
X80500Y-49750D01*
X77413Y-50500D02*
X76913Y-51000D01*
X79750Y-50500D02*
X77413Y-50500D01*
X80500Y-49750D02*
X79750Y-50500D01*
X73500Y-48750D02*
X73500Y-49750D01*
X73500Y-49750D02*
X74500Y-50750D01*
X73750Y-47250D02*
X73750Y-48500D01*
X70750Y-48750D02*
X70542Y-48542D01*
X73500Y-48750D02*
X70750Y-48750D01*
X73750Y-48500D02*
X73500Y-48750D01*
X85500Y-40000D02*
X85500Y-41587D01*
X84500Y-38000D02*
X84500Y-39000D01*
X84500Y-39000D02*
X85500Y-40000D01*
X81457Y-35457D02*
X82457Y-35457D01*
X80000Y-34000D02*
X81457Y-35457D01*
X75587Y-33500D02*
X76087Y-33000D01*
X73250Y-34000D02*
X73750Y-33500D01*
X73750Y-33500D02*
X75587Y-33500D01*
X69957Y-36792D02*
X69957Y-36042D01*
X68250Y-38500D02*
X69957Y-36792D01*
X76343Y-40386D02*
X76343Y-39907D01*
X76625Y-39625D02*
X76625Y-39000D01*
X76343Y-39907D02*
X76625Y-39625D01*
X76657Y-43614D02*
X76657Y-44407D01*
X76657Y-44407D02*
X77125Y-44875D01*
X77125Y-44875D02*
X77125Y-45500D01*
X75750Y-45500D02*
X75750Y-44500D01*
X75750Y-45500D02*
X75875Y-45625D01*
X75875Y-45625D02*
X76250Y-45625D01*
X76028Y-44222D02*
X75750Y-44500D01*
X76028Y-43614D02*
X76028Y-44222D01*
X79250Y-47750D02*
X79250Y-48750D01*
X77287Y-44037D02*
X79000Y-45750D01*
X77287Y-43614D02*
X77287Y-44037D01*
X79250Y-48750D02*
X79500Y-49000D01*
X74886Y-43102D02*
X74648Y-43102D01*
X74648Y-43102D02*
X72750Y-45000D01*
X67500Y-41587D02*
X68462Y-41587D01*
X68462Y-41587D02*
X68500Y-41625D01*
X82265Y-36765D02*
X82318Y-36765D01*
X82318Y-36765D02*
X83042Y-36042D01*
X81734Y-47765D02*
X81734Y-47818D01*
X81734Y-47818D02*
X82457Y-48542D01*
X84500Y-42375D02*
X85462Y-42375D01*
X85462Y-42375D02*
X85500Y-42413D01*
X71265Y-36234D02*
X71265Y-36181D01*
X71265Y-36181D02*
X70542Y-35457D01*
X70734Y-47234D02*
X70681Y-47234D01*
X70681Y-47234D02*
X69957Y-47957D01*
X76875Y-34000D02*
X76875Y-33038D01*
X76875Y-33038D02*
X76913Y-33000D01*
X76087Y-51000D02*
X76087Y-50038D01*
X76087Y-50038D02*
X76125Y-50000D01*
G54D10*
G36*
X70694Y-36034D02*
X70681Y-36047D01*
X70654Y-36088D01*
X70635Y-36134D01*
X70635Y-36135D01*
X70634Y-36135D01*
X70588Y-36154D01*
X70547Y-36181D01*
X70513Y-36216D01*
X70222Y-36507D01*
X70222Y-36465D01*
X70222Y-36376D01*
X69957Y-36112D01*
X69693Y-36376D01*
X69693Y-36465D01*
X69763Y-36535D01*
X69798Y-36569D01*
X69839Y-36597D01*
X69885Y-36616D01*
X69933Y-36625D01*
X69982Y-36625D01*
X70030Y-36616D01*
X70076Y-36597D01*
X70117Y-36569D01*
X70222Y-36465D01*
X70222Y-36507D01*
X70151Y-36578D01*
X70123Y-36619D01*
X70104Y-36664D01*
X70095Y-36712D01*
X70095Y-36762D01*
X70104Y-36810D01*
X70123Y-36856D01*
X70151Y-36896D01*
X70185Y-36931D01*
X70434Y-37180D01*
X70434Y-38116D01*
X70376Y-38092D01*
X70294Y-38075D01*
X70211Y-38074D01*
X70129Y-38090D01*
X70052Y-38121D01*
X69982Y-38167D01*
X69943Y-38205D01*
X69941Y-38205D01*
X69915Y-38213D01*
X69888Y-38221D01*
X69887Y-38222D01*
X69885Y-38222D01*
X69861Y-38235D01*
X69836Y-38248D01*
X69835Y-38249D01*
X69833Y-38250D01*
X69812Y-38267D01*
X69790Y-38284D01*
X69788Y-38287D01*
X69788Y-38287D01*
X69788Y-38287D01*
X69787Y-38287D01*
X69287Y-38787D01*
X69270Y-38809D01*
X69252Y-38830D01*
X69251Y-38831D01*
X69250Y-38833D01*
X69237Y-38857D01*
X69224Y-38881D01*
X69223Y-38883D01*
X69223Y-38884D01*
X69214Y-38911D01*
X69206Y-38937D01*
X69206Y-38939D01*
X69205Y-38940D01*
X69203Y-38968D01*
X69200Y-38995D01*
X69200Y-38998D01*
X69200Y-38998D01*
X69200Y-38999D01*
X69200Y-39000D01*
X69200Y-41875D01*
X69033Y-42042D01*
X69016Y-42000D01*
X69016Y-42000D01*
X69016Y-41999D01*
X69035Y-41953D01*
X69045Y-41905D01*
X69045Y-41856D01*
X69045Y-41344D01*
X69035Y-41296D01*
X69016Y-41250D01*
X68989Y-41209D01*
X68954Y-41174D01*
X68913Y-41147D01*
X68867Y-41128D01*
X68819Y-41119D01*
X68770Y-41119D01*
X68180Y-41119D01*
X68132Y-41128D01*
X68086Y-41147D01*
X68045Y-41174D01*
X68010Y-41209D01*
X67983Y-41250D01*
X67974Y-41272D01*
X67957Y-41232D01*
X67930Y-41191D01*
X67895Y-41156D01*
X67854Y-41129D01*
X67808Y-41110D01*
X67760Y-41101D01*
X67711Y-41101D01*
X67356Y-41101D01*
X67471Y-40080D01*
X68016Y-38363D01*
X68883Y-36785D01*
X69405Y-36164D01*
X69430Y-36201D01*
X69464Y-36236D01*
X69534Y-36306D01*
X69623Y-36306D01*
X69887Y-36042D01*
X69881Y-36036D01*
X69952Y-35965D01*
X69957Y-35971D01*
X69963Y-35965D01*
X70034Y-36036D01*
X70028Y-36042D01*
X70292Y-36306D01*
X70381Y-36306D01*
X70485Y-36201D01*
X70513Y-36160D01*
X70532Y-36114D01*
X70541Y-36066D01*
X70541Y-36041D01*
X70566Y-36041D01*
X70614Y-36032D01*
X70660Y-36013D01*
X70668Y-36008D01*
X70694Y-36034D01*
X70694Y-36034D01*
G37*
G54D25*
X70694Y-36034D02*
X70681Y-36047D01*
X70654Y-36088D01*
X70635Y-36134D01*
X70635Y-36135D01*
X70634Y-36135D01*
X70588Y-36154D01*
X70547Y-36181D01*
X70513Y-36216D01*
X70222Y-36507D01*
X70222Y-36465D01*
X70222Y-36376D01*
X69957Y-36112D01*
X69693Y-36376D01*
X69693Y-36465D01*
X69763Y-36535D01*
X69798Y-36569D01*
X69839Y-36597D01*
X69885Y-36616D01*
X69933Y-36625D01*
X69982Y-36625D01*
X70030Y-36616D01*
X70076Y-36597D01*
X70117Y-36569D01*
X70222Y-36465D01*
X70222Y-36507D01*
X70151Y-36578D01*
X70123Y-36619D01*
X70104Y-36664D01*
X70095Y-36712D01*
X70095Y-36762D01*
X70104Y-36810D01*
X70123Y-36856D01*
X70151Y-36896D01*
X70185Y-36931D01*
X70434Y-37180D01*
X70434Y-38116D01*
X70376Y-38092D01*
X70294Y-38075D01*
X70211Y-38074D01*
X70129Y-38090D01*
X70052Y-38121D01*
X69982Y-38167D01*
X69943Y-38205D01*
X69941Y-38205D01*
X69915Y-38213D01*
X69888Y-38221D01*
X69887Y-38222D01*
X69885Y-38222D01*
X69861Y-38235D01*
X69836Y-38248D01*
X69835Y-38249D01*
X69833Y-38250D01*
X69812Y-38267D01*
X69790Y-38284D01*
X69788Y-38287D01*
X69788Y-38287D01*
X69788Y-38287D01*
X69787Y-38287D01*
X69287Y-38787D01*
X69270Y-38809D01*
X69252Y-38830D01*
X69251Y-38831D01*
X69250Y-38833D01*
X69237Y-38857D01*
X69224Y-38881D01*
X69223Y-38883D01*
X69223Y-38884D01*
X69214Y-38911D01*
X69206Y-38937D01*
X69206Y-38939D01*
X69205Y-38940D01*
X69203Y-38968D01*
X69200Y-38995D01*
X69200Y-38998D01*
X69200Y-38998D01*
X69200Y-38999D01*
X69200Y-39000D01*
X69200Y-41875D01*
X69033Y-42042D01*
X69016Y-42000D01*
X69016Y-42000D01*
X69016Y-41999D01*
X69035Y-41953D01*
X69045Y-41905D01*
X69045Y-41856D01*
X69045Y-41344D01*
X69035Y-41296D01*
X69016Y-41250D01*
X68989Y-41209D01*
X68954Y-41174D01*
X68913Y-41147D01*
X68867Y-41128D01*
X68819Y-41119D01*
X68770Y-41119D01*
X68180Y-41119D01*
X68132Y-41128D01*
X68086Y-41147D01*
X68045Y-41174D01*
X68010Y-41209D01*
X67983Y-41250D01*
X67974Y-41272D01*
X67957Y-41232D01*
X67930Y-41191D01*
X67895Y-41156D01*
X67854Y-41129D01*
X67808Y-41110D01*
X67760Y-41101D01*
X67711Y-41101D01*
X67356Y-41101D01*
X67471Y-40080D01*
X68016Y-38363D01*
X68883Y-36785D01*
X69405Y-36164D01*
X69430Y-36201D01*
X69464Y-36236D01*
X69534Y-36306D01*
X69623Y-36306D01*
X69887Y-36042D01*
X69881Y-36036D01*
X69952Y-35965D01*
X69957Y-35971D01*
X69963Y-35965D01*
X70034Y-36036D01*
X70028Y-36042D01*
X70292Y-36306D01*
X70381Y-36306D01*
X70485Y-36201D01*
X70513Y-36160D01*
X70532Y-36114D01*
X70541Y-36066D01*
X70541Y-36041D01*
X70566Y-36041D01*
X70614Y-36032D01*
X70660Y-36013D01*
X70668Y-36008D01*
X70694Y-36034D01*
G54D10*
G36*
X72704Y-43450D02*
X71597Y-43450D01*
X71596Y-43448D01*
X71529Y-43365D01*
X71447Y-43296D01*
X71362Y-43249D01*
X71389Y-43238D01*
X71480Y-43179D01*
X71557Y-43103D01*
X71618Y-43013D01*
X71660Y-42914D01*
X71666Y-42885D01*
X71666Y-42614D01*
X71660Y-42585D01*
X71618Y-42486D01*
X71557Y-42396D01*
X71480Y-42320D01*
X71389Y-42261D01*
X71289Y-42220D01*
X71183Y-42200D01*
X71050Y-42200D01*
X71050Y-42700D01*
X71617Y-42700D01*
X71666Y-42614D01*
X71666Y-42885D01*
X71617Y-42800D01*
X71050Y-42800D01*
X71050Y-42807D01*
X70950Y-42807D01*
X70950Y-42800D01*
X70942Y-42800D01*
X70942Y-42700D01*
X70950Y-42700D01*
X70950Y-42200D01*
X70817Y-42200D01*
X70710Y-42220D01*
X70610Y-42261D01*
X70550Y-42300D01*
X70550Y-41124D01*
X70874Y-40800D01*
X71873Y-40800D01*
X71842Y-40870D01*
X71825Y-40952D01*
X71824Y-41035D01*
X71839Y-41117D01*
X71870Y-41195D01*
X71915Y-41265D01*
X71930Y-41280D01*
X71836Y-41341D01*
X71718Y-41457D01*
X71625Y-41593D01*
X71560Y-41744D01*
X71526Y-41905D01*
X71524Y-42070D01*
X71554Y-42232D01*
X71614Y-42386D01*
X71704Y-42524D01*
X71818Y-42643D01*
X71953Y-42737D01*
X72065Y-42786D01*
X72065Y-42865D01*
X72068Y-42893D01*
X72071Y-42921D01*
X72071Y-42922D01*
X72071Y-42924D01*
X72079Y-42950D01*
X72087Y-42977D01*
X72088Y-42978D01*
X72088Y-42980D01*
X72101Y-43004D01*
X72114Y-43029D01*
X72115Y-43030D01*
X72116Y-43032D01*
X72133Y-43053D01*
X72150Y-43075D01*
X72153Y-43077D01*
X72153Y-43077D01*
X72153Y-43077D01*
X72153Y-43078D01*
X72303Y-43227D01*
X72324Y-43244D01*
X72345Y-43262D01*
X72347Y-43263D01*
X72348Y-43264D01*
X72372Y-43277D01*
X72396Y-43290D01*
X72398Y-43291D01*
X72399Y-43292D01*
X72426Y-43300D01*
X72452Y-43308D01*
X72454Y-43308D01*
X72455Y-43309D01*
X72483Y-43312D01*
X72510Y-43315D01*
X72514Y-43315D01*
X72514Y-43315D01*
X72514Y-43315D01*
X72515Y-43315D01*
X72569Y-43315D01*
X72704Y-43450D01*
X72704Y-43450D01*
G37*
G54D25*
X72704Y-43450D02*
X71597Y-43450D01*
X71596Y-43448D01*
X71529Y-43365D01*
X71447Y-43296D01*
X71362Y-43249D01*
X71389Y-43238D01*
X71480Y-43179D01*
X71557Y-43103D01*
X71618Y-43013D01*
X71660Y-42914D01*
X71666Y-42885D01*
X71666Y-42614D01*
X71660Y-42585D01*
X71618Y-42486D01*
X71557Y-42396D01*
X71480Y-42320D01*
X71389Y-42261D01*
X71289Y-42220D01*
X71183Y-42200D01*
X71050Y-42200D01*
X71050Y-42700D01*
X71617Y-42700D01*
X71666Y-42614D01*
X71666Y-42885D01*
X71617Y-42800D01*
X71050Y-42800D01*
X71050Y-42807D01*
X70950Y-42807D01*
X70950Y-42800D01*
X70942Y-42800D01*
X70942Y-42700D01*
X70950Y-42700D01*
X70950Y-42200D01*
X70817Y-42200D01*
X70710Y-42220D01*
X70610Y-42261D01*
X70550Y-42300D01*
X70550Y-41124D01*
X70874Y-40800D01*
X71873Y-40800D01*
X71842Y-40870D01*
X71825Y-40952D01*
X71824Y-41035D01*
X71839Y-41117D01*
X71870Y-41195D01*
X71915Y-41265D01*
X71930Y-41280D01*
X71836Y-41341D01*
X71718Y-41457D01*
X71625Y-41593D01*
X71560Y-41744D01*
X71526Y-41905D01*
X71524Y-42070D01*
X71554Y-42232D01*
X71614Y-42386D01*
X71704Y-42524D01*
X71818Y-42643D01*
X71953Y-42737D01*
X72065Y-42786D01*
X72065Y-42865D01*
X72068Y-42893D01*
X72071Y-42921D01*
X72071Y-42922D01*
X72071Y-42924D01*
X72079Y-42950D01*
X72087Y-42977D01*
X72088Y-42978D01*
X72088Y-42980D01*
X72101Y-43004D01*
X72114Y-43029D01*
X72115Y-43030D01*
X72116Y-43032D01*
X72133Y-43053D01*
X72150Y-43075D01*
X72153Y-43077D01*
X72153Y-43077D01*
X72153Y-43077D01*
X72153Y-43078D01*
X72303Y-43227D01*
X72324Y-43244D01*
X72345Y-43262D01*
X72347Y-43263D01*
X72348Y-43264D01*
X72372Y-43277D01*
X72396Y-43290D01*
X72398Y-43291D01*
X72399Y-43292D01*
X72426Y-43300D01*
X72452Y-43308D01*
X72454Y-43308D01*
X72455Y-43309D01*
X72483Y-43312D01*
X72510Y-43315D01*
X72514Y-43315D01*
X72514Y-43315D01*
X72514Y-43315D01*
X72515Y-43315D01*
X72569Y-43315D01*
X72704Y-43450D01*
G54D10*
G36*
X75039Y-43548D02*
X74037Y-44549D01*
X74020Y-44571D01*
X74002Y-44592D01*
X74001Y-44593D01*
X74000Y-44595D01*
X73987Y-44619D01*
X73974Y-44643D01*
X73973Y-44645D01*
X73973Y-44646D01*
X73964Y-44673D01*
X73956Y-44699D01*
X73956Y-44701D01*
X73955Y-44702D01*
X73953Y-44730D01*
X73950Y-44757D01*
X73950Y-44760D01*
X73950Y-44760D01*
X73950Y-44761D01*
X73950Y-44762D01*
X73950Y-45198D01*
X73922Y-45225D01*
X73875Y-45294D01*
X73842Y-45370D01*
X73825Y-45452D01*
X73824Y-45535D01*
X73839Y-45617D01*
X73870Y-45695D01*
X73873Y-45700D01*
X72551Y-45700D01*
X72522Y-45670D01*
X72453Y-45624D01*
X72376Y-45592D01*
X72294Y-45575D01*
X72211Y-45574D01*
X72129Y-45590D01*
X72052Y-45621D01*
X71982Y-45667D01*
X71922Y-45725D01*
X71875Y-45794D01*
X71842Y-45870D01*
X71825Y-45952D01*
X71824Y-46035D01*
X71839Y-46117D01*
X71870Y-46195D01*
X71915Y-46265D01*
X71973Y-46325D01*
X71989Y-46336D01*
X71298Y-47027D01*
X71283Y-47013D01*
X70921Y-46651D01*
X70880Y-46623D01*
X70835Y-46604D01*
X70787Y-46595D01*
X70737Y-46595D01*
X70689Y-46604D01*
X70643Y-46623D01*
X70603Y-46651D01*
X70568Y-46685D01*
X70151Y-47103D01*
X70123Y-47143D01*
X70104Y-47189D01*
X70095Y-47237D01*
X70095Y-47287D01*
X70104Y-47335D01*
X70119Y-47371D01*
X70083Y-47407D01*
X70076Y-47402D01*
X70030Y-47383D01*
X69982Y-47374D01*
X69933Y-47374D01*
X69885Y-47383D01*
X69839Y-47402D01*
X69798Y-47430D01*
X69763Y-47464D01*
X69430Y-47798D01*
X69404Y-47836D01*
X68741Y-47000D01*
X67917Y-45397D01*
X67421Y-43666D01*
X67356Y-42899D01*
X67387Y-42899D01*
X67450Y-42836D01*
X67450Y-42463D01*
X67442Y-42463D01*
X67442Y-42363D01*
X67450Y-42363D01*
X67450Y-42355D01*
X67550Y-42355D01*
X67550Y-42363D01*
X67557Y-42363D01*
X67557Y-42463D01*
X67550Y-42463D01*
X67550Y-42836D01*
X67612Y-42899D01*
X67711Y-42899D01*
X67760Y-42899D01*
X67808Y-42889D01*
X67854Y-42870D01*
X67895Y-42843D01*
X67930Y-42808D01*
X67957Y-42767D01*
X67974Y-42727D01*
X67983Y-42749D01*
X68010Y-42790D01*
X68045Y-42825D01*
X68086Y-42852D01*
X68132Y-42871D01*
X68180Y-42881D01*
X68229Y-42881D01*
X68819Y-42881D01*
X68867Y-42871D01*
X68913Y-42852D01*
X68954Y-42825D01*
X68989Y-42790D01*
X69016Y-42749D01*
X69035Y-42703D01*
X69041Y-42675D01*
X69125Y-42675D01*
X69152Y-42672D01*
X69180Y-42669D01*
X69181Y-42669D01*
X69183Y-42669D01*
X69209Y-42661D01*
X69236Y-42653D01*
X69237Y-42652D01*
X69239Y-42652D01*
X69263Y-42639D01*
X69288Y-42626D01*
X69289Y-42625D01*
X69291Y-42624D01*
X69312Y-42607D01*
X69334Y-42590D01*
X69336Y-42587D01*
X69336Y-42587D01*
X69336Y-42587D01*
X69337Y-42587D01*
X69450Y-42474D01*
X69450Y-45698D01*
X69422Y-45725D01*
X69375Y-45794D01*
X69342Y-45870D01*
X69325Y-45952D01*
X69324Y-46035D01*
X69339Y-46117D01*
X69370Y-46195D01*
X69415Y-46265D01*
X69473Y-46325D01*
X69541Y-46372D01*
X69618Y-46406D01*
X69699Y-46424D01*
X69782Y-46425D01*
X69864Y-46411D01*
X69942Y-46381D01*
X70000Y-46344D01*
X70041Y-46372D01*
X70118Y-46406D01*
X70199Y-46424D01*
X70282Y-46425D01*
X70364Y-46411D01*
X70442Y-46381D01*
X70512Y-46336D01*
X70573Y-46279D01*
X70621Y-46210D01*
X70655Y-46134D01*
X70673Y-46053D01*
X70675Y-45958D01*
X70658Y-45876D01*
X70627Y-45799D01*
X70580Y-45730D01*
X70550Y-45698D01*
X70550Y-45300D01*
X70591Y-45300D01*
X71457Y-45300D01*
X71505Y-45290D01*
X71551Y-45271D01*
X71592Y-45244D01*
X71627Y-45209D01*
X71654Y-45168D01*
X71673Y-45122D01*
X71683Y-45074D01*
X71683Y-45050D01*
X72327Y-45050D01*
X72339Y-45117D01*
X72370Y-45195D01*
X72415Y-45265D01*
X72473Y-45325D01*
X72541Y-45372D01*
X72618Y-45406D01*
X72699Y-45424D01*
X72782Y-45425D01*
X72864Y-45411D01*
X72942Y-45381D01*
X73012Y-45336D01*
X73073Y-45279D01*
X73121Y-45210D01*
X73155Y-45134D01*
X73173Y-45053D01*
X73174Y-44999D01*
X74713Y-43460D01*
X75039Y-43460D01*
X75039Y-43548D01*
X75039Y-43548D01*
G37*
G54D25*
X75039Y-43548D02*
X74037Y-44549D01*
X74020Y-44571D01*
X74002Y-44592D01*
X74001Y-44593D01*
X74000Y-44595D01*
X73987Y-44619D01*
X73974Y-44643D01*
X73973Y-44645D01*
X73973Y-44646D01*
X73964Y-44673D01*
X73956Y-44699D01*
X73956Y-44701D01*
X73955Y-44702D01*
X73953Y-44730D01*
X73950Y-44757D01*
X73950Y-44760D01*
X73950Y-44760D01*
X73950Y-44761D01*
X73950Y-44762D01*
X73950Y-45198D01*
X73922Y-45225D01*
X73875Y-45294D01*
X73842Y-45370D01*
X73825Y-45452D01*
X73824Y-45535D01*
X73839Y-45617D01*
X73870Y-45695D01*
X73873Y-45700D01*
X72551Y-45700D01*
X72522Y-45670D01*
X72453Y-45624D01*
X72376Y-45592D01*
X72294Y-45575D01*
X72211Y-45574D01*
X72129Y-45590D01*
X72052Y-45621D01*
X71982Y-45667D01*
X71922Y-45725D01*
X71875Y-45794D01*
X71842Y-45870D01*
X71825Y-45952D01*
X71824Y-46035D01*
X71839Y-46117D01*
X71870Y-46195D01*
X71915Y-46265D01*
X71973Y-46325D01*
X71989Y-46336D01*
X71298Y-47027D01*
X71283Y-47013D01*
X70921Y-46651D01*
X70880Y-46623D01*
X70835Y-46604D01*
X70787Y-46595D01*
X70737Y-46595D01*
X70689Y-46604D01*
X70643Y-46623D01*
X70603Y-46651D01*
X70568Y-46685D01*
X70151Y-47103D01*
X70123Y-47143D01*
X70104Y-47189D01*
X70095Y-47237D01*
X70095Y-47287D01*
X70104Y-47335D01*
X70119Y-47371D01*
X70083Y-47407D01*
X70076Y-47402D01*
X70030Y-47383D01*
X69982Y-47374D01*
X69933Y-47374D01*
X69885Y-47383D01*
X69839Y-47402D01*
X69798Y-47430D01*
X69763Y-47464D01*
X69430Y-47798D01*
X69404Y-47836D01*
X68741Y-47000D01*
X67917Y-45397D01*
X67421Y-43666D01*
X67356Y-42899D01*
X67387Y-42899D01*
X67450Y-42836D01*
X67450Y-42463D01*
X67442Y-42463D01*
X67442Y-42363D01*
X67450Y-42363D01*
X67450Y-42355D01*
X67550Y-42355D01*
X67550Y-42363D01*
X67557Y-42363D01*
X67557Y-42463D01*
X67550Y-42463D01*
X67550Y-42836D01*
X67612Y-42899D01*
X67711Y-42899D01*
X67760Y-42899D01*
X67808Y-42889D01*
X67854Y-42870D01*
X67895Y-42843D01*
X67930Y-42808D01*
X67957Y-42767D01*
X67974Y-42727D01*
X67983Y-42749D01*
X68010Y-42790D01*
X68045Y-42825D01*
X68086Y-42852D01*
X68132Y-42871D01*
X68180Y-42881D01*
X68229Y-42881D01*
X68819Y-42881D01*
X68867Y-42871D01*
X68913Y-42852D01*
X68954Y-42825D01*
X68989Y-42790D01*
X69016Y-42749D01*
X69035Y-42703D01*
X69041Y-42675D01*
X69125Y-42675D01*
X69152Y-42672D01*
X69180Y-42669D01*
X69181Y-42669D01*
X69183Y-42669D01*
X69209Y-42661D01*
X69236Y-42653D01*
X69237Y-42652D01*
X69239Y-42652D01*
X69263Y-42639D01*
X69288Y-42626D01*
X69289Y-42625D01*
X69291Y-42624D01*
X69312Y-42607D01*
X69334Y-42590D01*
X69336Y-42587D01*
X69336Y-42587D01*
X69336Y-42587D01*
X69337Y-42587D01*
X69450Y-42474D01*
X69450Y-45698D01*
X69422Y-45725D01*
X69375Y-45794D01*
X69342Y-45870D01*
X69325Y-45952D01*
X69324Y-46035D01*
X69339Y-46117D01*
X69370Y-46195D01*
X69415Y-46265D01*
X69473Y-46325D01*
X69541Y-46372D01*
X69618Y-46406D01*
X69699Y-46424D01*
X69782Y-46425D01*
X69864Y-46411D01*
X69942Y-46381D01*
X70000Y-46344D01*
X70041Y-46372D01*
X70118Y-46406D01*
X70199Y-46424D01*
X70282Y-46425D01*
X70364Y-46411D01*
X70442Y-46381D01*
X70512Y-46336D01*
X70573Y-46279D01*
X70621Y-46210D01*
X70655Y-46134D01*
X70673Y-46053D01*
X70675Y-45958D01*
X70658Y-45876D01*
X70627Y-45799D01*
X70580Y-45730D01*
X70550Y-45698D01*
X70550Y-45300D01*
X70591Y-45300D01*
X71457Y-45300D01*
X71505Y-45290D01*
X71551Y-45271D01*
X71592Y-45244D01*
X71627Y-45209D01*
X71654Y-45168D01*
X71673Y-45122D01*
X71683Y-45074D01*
X71683Y-45050D01*
X72327Y-45050D01*
X72339Y-45117D01*
X72370Y-45195D01*
X72415Y-45265D01*
X72473Y-45325D01*
X72541Y-45372D01*
X72618Y-45406D01*
X72699Y-45424D01*
X72782Y-45425D01*
X72864Y-45411D01*
X72942Y-45381D01*
X73012Y-45336D01*
X73073Y-45279D01*
X73121Y-45210D01*
X73155Y-45134D01*
X73173Y-45053D01*
X73174Y-44999D01*
X74713Y-43460D01*
X75039Y-43460D01*
X75039Y-43548D01*
G54D10*
G36*
X75579Y-35750D02*
X75501Y-35791D01*
X75417Y-35859D01*
X75349Y-35942D01*
X75305Y-36022D01*
X75290Y-36034D01*
X75288Y-36037D01*
X75288Y-36037D01*
X75288Y-36037D01*
X75287Y-36037D01*
X75037Y-36287D01*
X75020Y-36309D01*
X75002Y-36330D01*
X75001Y-36331D01*
X75000Y-36333D01*
X74987Y-36357D01*
X74974Y-36381D01*
X74973Y-36383D01*
X74973Y-36384D01*
X74964Y-36411D01*
X74956Y-36437D01*
X74956Y-36439D01*
X74955Y-36440D01*
X74953Y-36468D01*
X74950Y-36495D01*
X74950Y-36498D01*
X74950Y-36498D01*
X74950Y-36499D01*
X74950Y-36500D01*
X74950Y-37576D01*
X74879Y-37590D01*
X74802Y-37621D01*
X74732Y-37667D01*
X74698Y-37700D01*
X72051Y-37700D01*
X72022Y-37670D01*
X71953Y-37624D01*
X71876Y-37592D01*
X71794Y-37575D01*
X71711Y-37574D01*
X71629Y-37590D01*
X71552Y-37621D01*
X71482Y-37667D01*
X71422Y-37725D01*
X71375Y-37794D01*
X71342Y-37870D01*
X71325Y-37952D01*
X71324Y-38035D01*
X71333Y-38083D01*
X71294Y-38075D01*
X71211Y-38074D01*
X71129Y-38090D01*
X71052Y-38121D01*
X71034Y-38132D01*
X71034Y-37235D01*
X71318Y-36952D01*
X71345Y-36911D01*
X71364Y-36865D01*
X71364Y-36864D01*
X71365Y-36864D01*
X71411Y-36845D01*
X71452Y-36818D01*
X71486Y-36783D01*
X71827Y-36443D01*
X71825Y-36452D01*
X71824Y-36535D01*
X71839Y-36617D01*
X71870Y-36695D01*
X71915Y-36765D01*
X71973Y-36825D01*
X72041Y-36872D01*
X72118Y-36906D01*
X72199Y-36924D01*
X72282Y-36925D01*
X72364Y-36911D01*
X72442Y-36881D01*
X72512Y-36836D01*
X72573Y-36779D01*
X72621Y-36710D01*
X72655Y-36634D01*
X72673Y-36553D01*
X72674Y-36499D01*
X73624Y-35550D01*
X75344Y-35550D01*
X75345Y-35551D01*
X75412Y-35634D01*
X75494Y-35703D01*
X75579Y-35750D01*
X75579Y-35750D01*
G37*
G54D25*
X75579Y-35750D02*
X75501Y-35791D01*
X75417Y-35859D01*
X75349Y-35942D01*
X75305Y-36022D01*
X75290Y-36034D01*
X75288Y-36037D01*
X75288Y-36037D01*
X75288Y-36037D01*
X75287Y-36037D01*
X75037Y-36287D01*
X75020Y-36309D01*
X75002Y-36330D01*
X75001Y-36331D01*
X75000Y-36333D01*
X74987Y-36357D01*
X74974Y-36381D01*
X74973Y-36383D01*
X74973Y-36384D01*
X74964Y-36411D01*
X74956Y-36437D01*
X74956Y-36439D01*
X74955Y-36440D01*
X74953Y-36468D01*
X74950Y-36495D01*
X74950Y-36498D01*
X74950Y-36498D01*
X74950Y-36499D01*
X74950Y-36500D01*
X74950Y-37576D01*
X74879Y-37590D01*
X74802Y-37621D01*
X74732Y-37667D01*
X74698Y-37700D01*
X72051Y-37700D01*
X72022Y-37670D01*
X71953Y-37624D01*
X71876Y-37592D01*
X71794Y-37575D01*
X71711Y-37574D01*
X71629Y-37590D01*
X71552Y-37621D01*
X71482Y-37667D01*
X71422Y-37725D01*
X71375Y-37794D01*
X71342Y-37870D01*
X71325Y-37952D01*
X71324Y-38035D01*
X71333Y-38083D01*
X71294Y-38075D01*
X71211Y-38074D01*
X71129Y-38090D01*
X71052Y-38121D01*
X71034Y-38132D01*
X71034Y-37235D01*
X71318Y-36952D01*
X71345Y-36911D01*
X71364Y-36865D01*
X71364Y-36864D01*
X71365Y-36864D01*
X71411Y-36845D01*
X71452Y-36818D01*
X71486Y-36783D01*
X71827Y-36443D01*
X71825Y-36452D01*
X71824Y-36535D01*
X71839Y-36617D01*
X71870Y-36695D01*
X71915Y-36765D01*
X71973Y-36825D01*
X72041Y-36872D01*
X72118Y-36906D01*
X72199Y-36924D01*
X72282Y-36925D01*
X72364Y-36911D01*
X72442Y-36881D01*
X72512Y-36836D01*
X72573Y-36779D01*
X72621Y-36710D01*
X72655Y-36634D01*
X72673Y-36553D01*
X72674Y-36499D01*
X73624Y-35550D01*
X75344Y-35550D01*
X75345Y-35551D01*
X75412Y-35634D01*
X75494Y-35703D01*
X75579Y-35750D01*
G54D10*
G36*
X76144Y-33050D02*
X76137Y-33050D01*
X76137Y-33057D01*
X76037Y-33057D01*
X76037Y-33050D01*
X75663Y-33050D01*
X75601Y-33112D01*
X75601Y-33211D01*
X75601Y-33260D01*
X75610Y-33308D01*
X75629Y-33354D01*
X75656Y-33395D01*
X75691Y-33430D01*
X75732Y-33457D01*
X75772Y-33474D01*
X75750Y-33483D01*
X75709Y-33510D01*
X75674Y-33545D01*
X75647Y-33586D01*
X75628Y-33632D01*
X75619Y-33680D01*
X75619Y-33729D01*
X75619Y-34319D01*
X75628Y-34367D01*
X75647Y-34413D01*
X75674Y-34454D01*
X75709Y-34489D01*
X75750Y-34516D01*
X75796Y-34535D01*
X75844Y-34545D01*
X75878Y-34545D01*
X75892Y-34562D01*
X75909Y-34584D01*
X75912Y-34586D01*
X75912Y-34586D01*
X75912Y-34586D01*
X75912Y-34587D01*
X76028Y-34702D01*
X76006Y-34700D01*
X75998Y-34700D01*
X75805Y-34700D01*
X75698Y-34710D01*
X75595Y-34741D01*
X75501Y-34791D01*
X75417Y-34859D01*
X75349Y-34942D01*
X75345Y-34950D01*
X73500Y-34950D01*
X73472Y-34952D01*
X73444Y-34955D01*
X73443Y-34955D01*
X73441Y-34955D01*
X73415Y-34963D01*
X73388Y-34971D01*
X73387Y-34972D01*
X73385Y-34972D01*
X73361Y-34985D01*
X73336Y-34998D01*
X73335Y-34999D01*
X73333Y-35000D01*
X73312Y-35017D01*
X73290Y-35034D01*
X73288Y-35037D01*
X73288Y-35037D01*
X73288Y-35037D01*
X73287Y-35037D01*
X72250Y-36074D01*
X72211Y-36074D01*
X72129Y-36090D01*
X72052Y-36121D01*
X71982Y-36167D01*
X71922Y-36225D01*
X71904Y-36251D01*
X71904Y-36237D01*
X71895Y-36189D01*
X71876Y-36143D01*
X71848Y-36103D01*
X71814Y-36068D01*
X71396Y-35651D01*
X71356Y-35623D01*
X71310Y-35604D01*
X71262Y-35595D01*
X71212Y-35595D01*
X71164Y-35604D01*
X71128Y-35619D01*
X71092Y-35583D01*
X71097Y-35576D01*
X71116Y-35530D01*
X71125Y-35482D01*
X71125Y-35433D01*
X71116Y-35385D01*
X71097Y-35339D01*
X71069Y-35298D01*
X71035Y-35263D01*
X70701Y-34930D01*
X70663Y-34905D01*
X71445Y-34276D01*
X73042Y-33441D01*
X74770Y-32933D01*
X75601Y-32857D01*
X75601Y-32887D01*
X75663Y-32950D01*
X76037Y-32950D01*
X76037Y-32942D01*
X76137Y-32942D01*
X76137Y-32950D01*
X76144Y-32950D01*
X76144Y-33050D01*
X76144Y-33050D01*
G37*
G54D25*
X76144Y-33050D02*
X76137Y-33050D01*
X76137Y-33057D01*
X76037Y-33057D01*
X76037Y-33050D01*
X75663Y-33050D01*
X75601Y-33112D01*
X75601Y-33211D01*
X75601Y-33260D01*
X75610Y-33308D01*
X75629Y-33354D01*
X75656Y-33395D01*
X75691Y-33430D01*
X75732Y-33457D01*
X75772Y-33474D01*
X75750Y-33483D01*
X75709Y-33510D01*
X75674Y-33545D01*
X75647Y-33586D01*
X75628Y-33632D01*
X75619Y-33680D01*
X75619Y-33729D01*
X75619Y-34319D01*
X75628Y-34367D01*
X75647Y-34413D01*
X75674Y-34454D01*
X75709Y-34489D01*
X75750Y-34516D01*
X75796Y-34535D01*
X75844Y-34545D01*
X75878Y-34545D01*
X75892Y-34562D01*
X75909Y-34584D01*
X75912Y-34586D01*
X75912Y-34586D01*
X75912Y-34586D01*
X75912Y-34587D01*
X76028Y-34702D01*
X76006Y-34700D01*
X75998Y-34700D01*
X75805Y-34700D01*
X75698Y-34710D01*
X75595Y-34741D01*
X75501Y-34791D01*
X75417Y-34859D01*
X75349Y-34942D01*
X75345Y-34950D01*
X73500Y-34950D01*
X73472Y-34952D01*
X73444Y-34955D01*
X73443Y-34955D01*
X73441Y-34955D01*
X73415Y-34963D01*
X73388Y-34971D01*
X73387Y-34972D01*
X73385Y-34972D01*
X73361Y-34985D01*
X73336Y-34998D01*
X73335Y-34999D01*
X73333Y-35000D01*
X73312Y-35017D01*
X73290Y-35034D01*
X73288Y-35037D01*
X73288Y-35037D01*
X73288Y-35037D01*
X73287Y-35037D01*
X72250Y-36074D01*
X72211Y-36074D01*
X72129Y-36090D01*
X72052Y-36121D01*
X71982Y-36167D01*
X71922Y-36225D01*
X71904Y-36251D01*
X71904Y-36237D01*
X71895Y-36189D01*
X71876Y-36143D01*
X71848Y-36103D01*
X71814Y-36068D01*
X71396Y-35651D01*
X71356Y-35623D01*
X71310Y-35604D01*
X71262Y-35595D01*
X71212Y-35595D01*
X71164Y-35604D01*
X71128Y-35619D01*
X71092Y-35583D01*
X71097Y-35576D01*
X71116Y-35530D01*
X71125Y-35482D01*
X71125Y-35433D01*
X71116Y-35385D01*
X71097Y-35339D01*
X71069Y-35298D01*
X71035Y-35263D01*
X70701Y-34930D01*
X70663Y-34905D01*
X71445Y-34276D01*
X73042Y-33441D01*
X74770Y-32933D01*
X75601Y-32857D01*
X75601Y-32887D01*
X75663Y-32950D01*
X76037Y-32950D01*
X76037Y-32942D01*
X76137Y-32942D01*
X76137Y-32950D01*
X76144Y-32950D01*
X76144Y-33050D01*
G54D10*
G36*
X76682Y-39050D02*
X76675Y-39050D01*
X76675Y-39473D01*
X76672Y-39475D01*
X76625Y-39544D01*
X76592Y-39620D01*
X76575Y-39702D01*
X76574Y-39785D01*
X76589Y-39867D01*
X76594Y-39880D01*
X76523Y-39880D01*
X76500Y-39884D01*
X76476Y-39880D01*
X76455Y-39880D01*
X76420Y-39914D01*
X76389Y-39935D01*
X76354Y-39970D01*
X76342Y-39988D01*
X76330Y-39970D01*
X76328Y-39967D01*
X76328Y-39772D01*
X76371Y-39710D01*
X76405Y-39634D01*
X76423Y-39553D01*
X76423Y-39545D01*
X76512Y-39545D01*
X76575Y-39482D01*
X76575Y-39050D01*
X76181Y-39050D01*
X76135Y-39095D01*
X76126Y-39092D01*
X76044Y-39075D01*
X75961Y-39074D01*
X75879Y-39090D01*
X75802Y-39121D01*
X75777Y-39137D01*
X75777Y-39137D01*
X75777Y-39135D01*
X75764Y-39111D01*
X75751Y-39086D01*
X75750Y-39085D01*
X75749Y-39083D01*
X75732Y-39062D01*
X75715Y-39040D01*
X75712Y-39038D01*
X75712Y-39038D01*
X75712Y-39038D01*
X75712Y-39037D01*
X75474Y-38800D01*
X76119Y-38800D01*
X76119Y-38887D01*
X76181Y-38950D01*
X76575Y-38950D01*
X76575Y-38942D01*
X76675Y-38942D01*
X76675Y-38950D01*
X76682Y-38950D01*
X76682Y-39050D01*
X76682Y-39050D01*
G37*
G54D25*
X76682Y-39050D02*
X76675Y-39050D01*
X76675Y-39473D01*
X76672Y-39475D01*
X76625Y-39544D01*
X76592Y-39620D01*
X76575Y-39702D01*
X76574Y-39785D01*
X76589Y-39867D01*
X76594Y-39880D01*
X76523Y-39880D01*
X76500Y-39884D01*
X76476Y-39880D01*
X76455Y-39880D01*
X76420Y-39914D01*
X76389Y-39935D01*
X76354Y-39970D01*
X76342Y-39988D01*
X76330Y-39970D01*
X76328Y-39967D01*
X76328Y-39772D01*
X76371Y-39710D01*
X76405Y-39634D01*
X76423Y-39553D01*
X76423Y-39545D01*
X76512Y-39545D01*
X76575Y-39482D01*
X76575Y-39050D01*
X76181Y-39050D01*
X76135Y-39095D01*
X76126Y-39092D01*
X76044Y-39075D01*
X75961Y-39074D01*
X75879Y-39090D01*
X75802Y-39121D01*
X75777Y-39137D01*
X75777Y-39137D01*
X75777Y-39135D01*
X75764Y-39111D01*
X75751Y-39086D01*
X75750Y-39085D01*
X75749Y-39083D01*
X75732Y-39062D01*
X75715Y-39040D01*
X75712Y-39038D01*
X75712Y-39038D01*
X75712Y-39038D01*
X75712Y-39037D01*
X75474Y-38800D01*
X76119Y-38800D01*
X76119Y-38887D01*
X76181Y-38950D01*
X76575Y-38950D01*
X76575Y-38942D01*
X76675Y-38942D01*
X76675Y-38950D01*
X76682Y-38950D01*
X76682Y-39050D01*
G54D10*
G36*
X76987Y-42088D02*
X76759Y-42315D01*
X76759Y-42315D01*
X76130Y-42944D01*
X76113Y-42966D01*
X76095Y-42987D01*
X76094Y-42988D01*
X76093Y-42990D01*
X76080Y-43014D01*
X76067Y-43038D01*
X76066Y-43040D01*
X76066Y-43041D01*
X76057Y-43068D01*
X76049Y-43094D01*
X76049Y-43096D01*
X76048Y-43097D01*
X76046Y-43125D01*
X76043Y-43152D01*
X76043Y-43155D01*
X76043Y-43155D01*
X76043Y-43156D01*
X76043Y-43157D01*
X76043Y-43195D01*
X76040Y-43198D01*
X76028Y-43217D01*
X76015Y-43198D01*
X75980Y-43163D01*
X75952Y-43144D01*
X75915Y-43108D01*
X75894Y-43108D01*
X75870Y-43112D01*
X75846Y-43108D01*
X75796Y-43108D01*
X75579Y-43108D01*
X75555Y-43112D01*
X75531Y-43108D01*
X75481Y-43108D01*
X75392Y-43108D01*
X75392Y-42968D01*
X75387Y-42944D01*
X75392Y-42920D01*
X75392Y-42870D01*
X75392Y-42653D01*
X75387Y-42629D01*
X75392Y-42605D01*
X75392Y-42555D01*
X75392Y-42338D01*
X75387Y-42314D01*
X75392Y-42290D01*
X75392Y-42240D01*
X75392Y-42023D01*
X75387Y-42000D01*
X75392Y-41976D01*
X75392Y-41926D01*
X75392Y-41709D01*
X75387Y-41685D01*
X75392Y-41661D01*
X75392Y-41611D01*
X75392Y-41394D01*
X75387Y-41370D01*
X75392Y-41346D01*
X75392Y-41296D01*
X75392Y-41079D01*
X75387Y-41055D01*
X75392Y-41031D01*
X75392Y-40981D01*
X75392Y-40892D01*
X75531Y-40892D01*
X75555Y-40887D01*
X75579Y-40892D01*
X75629Y-40892D01*
X75846Y-40892D01*
X75870Y-40887D01*
X75894Y-40892D01*
X75944Y-40892D01*
X76161Y-40892D01*
X76185Y-40887D01*
X76209Y-40892D01*
X76230Y-40892D01*
X76267Y-40855D01*
X76295Y-40836D01*
X76330Y-40801D01*
X76342Y-40783D01*
X76354Y-40801D01*
X76389Y-40836D01*
X76420Y-40857D01*
X76455Y-40892D01*
X76476Y-40892D01*
X76500Y-40887D01*
X76523Y-40892D01*
X76573Y-40892D01*
X76790Y-40892D01*
X76814Y-40887D01*
X76838Y-40892D01*
X76888Y-40892D01*
X76987Y-40892D01*
X76987Y-42088D01*
X76987Y-42088D01*
G37*
G54D25*
X76987Y-42088D02*
X76759Y-42315D01*
X76759Y-42315D01*
X76130Y-42944D01*
X76113Y-42966D01*
X76095Y-42987D01*
X76094Y-42988D01*
X76093Y-42990D01*
X76080Y-43014D01*
X76067Y-43038D01*
X76066Y-43040D01*
X76066Y-43041D01*
X76057Y-43068D01*
X76049Y-43094D01*
X76049Y-43096D01*
X76048Y-43097D01*
X76046Y-43125D01*
X76043Y-43152D01*
X76043Y-43155D01*
X76043Y-43155D01*
X76043Y-43156D01*
X76043Y-43157D01*
X76043Y-43195D01*
X76040Y-43198D01*
X76028Y-43217D01*
X76015Y-43198D01*
X75980Y-43163D01*
X75952Y-43144D01*
X75915Y-43108D01*
X75894Y-43108D01*
X75870Y-43112D01*
X75846Y-43108D01*
X75796Y-43108D01*
X75579Y-43108D01*
X75555Y-43112D01*
X75531Y-43108D01*
X75481Y-43108D01*
X75392Y-43108D01*
X75392Y-42968D01*
X75387Y-42944D01*
X75392Y-42920D01*
X75392Y-42870D01*
X75392Y-42653D01*
X75387Y-42629D01*
X75392Y-42605D01*
X75392Y-42555D01*
X75392Y-42338D01*
X75387Y-42314D01*
X75392Y-42290D01*
X75392Y-42240D01*
X75392Y-42023D01*
X75387Y-42000D01*
X75392Y-41976D01*
X75392Y-41926D01*
X75392Y-41709D01*
X75387Y-41685D01*
X75392Y-41661D01*
X75392Y-41611D01*
X75392Y-41394D01*
X75387Y-41370D01*
X75392Y-41346D01*
X75392Y-41296D01*
X75392Y-41079D01*
X75387Y-41055D01*
X75392Y-41031D01*
X75392Y-40981D01*
X75392Y-40892D01*
X75531Y-40892D01*
X75555Y-40887D01*
X75579Y-40892D01*
X75629Y-40892D01*
X75846Y-40892D01*
X75870Y-40887D01*
X75894Y-40892D01*
X75944Y-40892D01*
X76161Y-40892D01*
X76185Y-40887D01*
X76209Y-40892D01*
X76230Y-40892D01*
X76267Y-40855D01*
X76295Y-40836D01*
X76330Y-40801D01*
X76342Y-40783D01*
X76354Y-40801D01*
X76389Y-40836D01*
X76420Y-40857D01*
X76455Y-40892D01*
X76476Y-40892D01*
X76500Y-40887D01*
X76523Y-40892D01*
X76573Y-40892D01*
X76790Y-40892D01*
X76814Y-40887D01*
X76838Y-40892D01*
X76888Y-40892D01*
X76987Y-40892D01*
X76987Y-42088D01*
G54D10*
G36*
X78450Y-48520D02*
X78404Y-48511D01*
X78355Y-48511D01*
X77272Y-48511D01*
X77224Y-48521D01*
X77178Y-48540D01*
X77137Y-48567D01*
X77103Y-48602D01*
X77075Y-48643D01*
X77056Y-48688D01*
X77047Y-48737D01*
X77047Y-48786D01*
X77047Y-49337D01*
X77056Y-49385D01*
X77075Y-49431D01*
X77091Y-49455D01*
X76594Y-49455D01*
X76546Y-49464D01*
X76500Y-49483D01*
X76500Y-49483D01*
X76499Y-49483D01*
X76453Y-49464D01*
X76405Y-49455D01*
X76356Y-49455D01*
X75908Y-49455D01*
X75924Y-49431D01*
X75943Y-49385D01*
X75952Y-49337D01*
X75952Y-49288D01*
X75952Y-49149D01*
X75890Y-49087D01*
X75211Y-49087D01*
X75211Y-49500D01*
X75273Y-49562D01*
X75663Y-49562D01*
X75647Y-49586D01*
X75628Y-49632D01*
X75619Y-49680D01*
X75619Y-49729D01*
X75619Y-50319D01*
X75628Y-50367D01*
X75647Y-50413D01*
X75674Y-50454D01*
X75709Y-50489D01*
X75750Y-50516D01*
X75772Y-50525D01*
X75732Y-50542D01*
X75691Y-50569D01*
X75656Y-50604D01*
X75629Y-50645D01*
X75610Y-50691D01*
X75601Y-50739D01*
X75601Y-50788D01*
X75601Y-51144D01*
X75111Y-51085D01*
X75111Y-49500D01*
X75111Y-49087D01*
X74432Y-49087D01*
X74370Y-49149D01*
X74370Y-49288D01*
X74370Y-49337D01*
X74379Y-49385D01*
X74398Y-49431D01*
X74425Y-49472D01*
X74460Y-49507D01*
X74501Y-49534D01*
X74547Y-49553D01*
X74595Y-49562D01*
X75048Y-49562D01*
X75111Y-49500D01*
X75111Y-51085D01*
X74517Y-51014D01*
X72804Y-50458D01*
X71232Y-49579D01*
X71125Y-49488D01*
X71125Y-48566D01*
X71125Y-48517D01*
X71116Y-48469D01*
X71097Y-48423D01*
X71069Y-48382D01*
X70965Y-48277D01*
X70876Y-48277D01*
X70612Y-48542D01*
X70876Y-48806D01*
X70965Y-48806D01*
X71035Y-48736D01*
X71069Y-48701D01*
X71097Y-48660D01*
X71116Y-48614D01*
X71125Y-48566D01*
X71125Y-49488D01*
X70663Y-49095D01*
X70701Y-49069D01*
X70736Y-49035D01*
X70806Y-48965D01*
X70806Y-48876D01*
X70542Y-48612D01*
X70536Y-48618D01*
X70465Y-48547D01*
X70471Y-48542D01*
X70465Y-48536D01*
X70536Y-48465D01*
X70542Y-48471D01*
X70806Y-48207D01*
X70806Y-48118D01*
X70701Y-48014D01*
X70660Y-47986D01*
X70614Y-47967D01*
X70566Y-47958D01*
X70541Y-47958D01*
X70541Y-47933D01*
X70532Y-47885D01*
X70513Y-47839D01*
X70508Y-47831D01*
X70534Y-47805D01*
X70547Y-47818D01*
X70588Y-47845D01*
X70634Y-47864D01*
X70635Y-47864D01*
X70635Y-47865D01*
X70654Y-47911D01*
X70681Y-47952D01*
X70716Y-47986D01*
X71078Y-48348D01*
X71119Y-48376D01*
X71164Y-48395D01*
X71212Y-48404D01*
X71262Y-48404D01*
X71310Y-48395D01*
X71356Y-48376D01*
X71396Y-48348D01*
X71431Y-48314D01*
X71848Y-47896D01*
X71876Y-47856D01*
X71895Y-47810D01*
X71904Y-47762D01*
X71904Y-47712D01*
X71895Y-47664D01*
X71876Y-47619D01*
X71848Y-47578D01*
X71814Y-47543D01*
X71722Y-47451D01*
X72200Y-46974D01*
X72200Y-47707D01*
X72209Y-47755D01*
X72228Y-47801D01*
X72255Y-47842D01*
X72290Y-47877D01*
X72331Y-47904D01*
X72377Y-47923D01*
X72425Y-47933D01*
X72474Y-47933D01*
X73074Y-47933D01*
X73122Y-47923D01*
X73168Y-47904D01*
X73209Y-47877D01*
X73244Y-47842D01*
X73271Y-47801D01*
X73290Y-47755D01*
X73300Y-47707D01*
X73300Y-47698D01*
X73320Y-47730D01*
X73396Y-47807D01*
X73486Y-47868D01*
X73585Y-47910D01*
X73614Y-47916D01*
X73700Y-47867D01*
X73700Y-47300D01*
X73692Y-47300D01*
X73692Y-47200D01*
X73700Y-47200D01*
X73700Y-46632D01*
X73614Y-46583D01*
X73585Y-46589D01*
X73486Y-46631D01*
X73396Y-46692D01*
X73320Y-46769D01*
X73300Y-46801D01*
X73300Y-46792D01*
X73290Y-46744D01*
X73271Y-46698D01*
X73244Y-46657D01*
X73209Y-46622D01*
X73168Y-46595D01*
X73122Y-46576D01*
X73074Y-46567D01*
X73025Y-46567D01*
X72607Y-46567D01*
X72624Y-46550D01*
X73873Y-46550D01*
X73850Y-46603D01*
X73800Y-46632D01*
X73800Y-47200D01*
X73807Y-47200D01*
X73807Y-47300D01*
X73800Y-47300D01*
X73800Y-47867D01*
X73885Y-47916D01*
X73914Y-47910D01*
X74013Y-47868D01*
X74103Y-47807D01*
X74179Y-47730D01*
X74238Y-47639D01*
X74279Y-47539D01*
X74293Y-47467D01*
X74370Y-47544D01*
X74370Y-47762D01*
X74379Y-47811D01*
X74398Y-47856D01*
X74379Y-47901D01*
X74370Y-47949D01*
X74370Y-47999D01*
X74370Y-48550D01*
X74379Y-48598D01*
X74398Y-48643D01*
X74379Y-48688D01*
X74370Y-48737D01*
X74370Y-48786D01*
X74370Y-48924D01*
X74432Y-48987D01*
X75111Y-48987D01*
X75111Y-48979D01*
X75211Y-48979D01*
X75211Y-48987D01*
X75890Y-48987D01*
X75952Y-48924D01*
X75952Y-48786D01*
X75952Y-48737D01*
X75943Y-48688D01*
X75924Y-48643D01*
X75943Y-48598D01*
X75952Y-48550D01*
X75952Y-48500D01*
X75952Y-47949D01*
X75943Y-47901D01*
X75924Y-47856D01*
X75943Y-47811D01*
X75952Y-47762D01*
X75952Y-47713D01*
X75952Y-47162D01*
X75943Y-47114D01*
X75924Y-47068D01*
X75911Y-47050D01*
X77088Y-47050D01*
X77075Y-47068D01*
X77056Y-47114D01*
X77047Y-47162D01*
X77047Y-47211D01*
X77047Y-47762D01*
X77056Y-47811D01*
X77075Y-47856D01*
X77103Y-47897D01*
X77137Y-47932D01*
X77178Y-47959D01*
X77224Y-47978D01*
X77272Y-47988D01*
X77321Y-47988D01*
X78404Y-47988D01*
X78450Y-47979D01*
X78450Y-48520D01*
X78450Y-48520D01*
G37*
G54D25*
X78450Y-48520D02*
X78404Y-48511D01*
X78355Y-48511D01*
X77272Y-48511D01*
X77224Y-48521D01*
X77178Y-48540D01*
X77137Y-48567D01*
X77103Y-48602D01*
X77075Y-48643D01*
X77056Y-48688D01*
X77047Y-48737D01*
X77047Y-48786D01*
X77047Y-49337D01*
X77056Y-49385D01*
X77075Y-49431D01*
X77091Y-49455D01*
X76594Y-49455D01*
X76546Y-49464D01*
X76500Y-49483D01*
X76500Y-49483D01*
X76499Y-49483D01*
X76453Y-49464D01*
X76405Y-49455D01*
X76356Y-49455D01*
X75908Y-49455D01*
X75924Y-49431D01*
X75943Y-49385D01*
X75952Y-49337D01*
X75952Y-49288D01*
X75952Y-49149D01*
X75890Y-49087D01*
X75211Y-49087D01*
X75211Y-49500D01*
X75273Y-49562D01*
X75663Y-49562D01*
X75647Y-49586D01*
X75628Y-49632D01*
X75619Y-49680D01*
X75619Y-49729D01*
X75619Y-50319D01*
X75628Y-50367D01*
X75647Y-50413D01*
X75674Y-50454D01*
X75709Y-50489D01*
X75750Y-50516D01*
X75772Y-50525D01*
X75732Y-50542D01*
X75691Y-50569D01*
X75656Y-50604D01*
X75629Y-50645D01*
X75610Y-50691D01*
X75601Y-50739D01*
X75601Y-50788D01*
X75601Y-51144D01*
X75111Y-51085D01*
X75111Y-49500D01*
X75111Y-49087D01*
X74432Y-49087D01*
X74370Y-49149D01*
X74370Y-49288D01*
X74370Y-49337D01*
X74379Y-49385D01*
X74398Y-49431D01*
X74425Y-49472D01*
X74460Y-49507D01*
X74501Y-49534D01*
X74547Y-49553D01*
X74595Y-49562D01*
X75048Y-49562D01*
X75111Y-49500D01*
X75111Y-51085D01*
X74517Y-51014D01*
X72804Y-50458D01*
X71232Y-49579D01*
X71125Y-49488D01*
X71125Y-48566D01*
X71125Y-48517D01*
X71116Y-48469D01*
X71097Y-48423D01*
X71069Y-48382D01*
X70965Y-48277D01*
X70876Y-48277D01*
X70612Y-48542D01*
X70876Y-48806D01*
X70965Y-48806D01*
X71035Y-48736D01*
X71069Y-48701D01*
X71097Y-48660D01*
X71116Y-48614D01*
X71125Y-48566D01*
X71125Y-49488D01*
X70663Y-49095D01*
X70701Y-49069D01*
X70736Y-49035D01*
X70806Y-48965D01*
X70806Y-48876D01*
X70542Y-48612D01*
X70536Y-48618D01*
X70465Y-48547D01*
X70471Y-48542D01*
X70465Y-48536D01*
X70536Y-48465D01*
X70542Y-48471D01*
X70806Y-48207D01*
X70806Y-48118D01*
X70701Y-48014D01*
X70660Y-47986D01*
X70614Y-47967D01*
X70566Y-47958D01*
X70541Y-47958D01*
X70541Y-47933D01*
X70532Y-47885D01*
X70513Y-47839D01*
X70508Y-47831D01*
X70534Y-47805D01*
X70547Y-47818D01*
X70588Y-47845D01*
X70634Y-47864D01*
X70635Y-47864D01*
X70635Y-47865D01*
X70654Y-47911D01*
X70681Y-47952D01*
X70716Y-47986D01*
X71078Y-48348D01*
X71119Y-48376D01*
X71164Y-48395D01*
X71212Y-48404D01*
X71262Y-48404D01*
X71310Y-48395D01*
X71356Y-48376D01*
X71396Y-48348D01*
X71431Y-48314D01*
X71848Y-47896D01*
X71876Y-47856D01*
X71895Y-47810D01*
X71904Y-47762D01*
X71904Y-47712D01*
X71895Y-47664D01*
X71876Y-47619D01*
X71848Y-47578D01*
X71814Y-47543D01*
X71722Y-47451D01*
X72200Y-46974D01*
X72200Y-47707D01*
X72209Y-47755D01*
X72228Y-47801D01*
X72255Y-47842D01*
X72290Y-47877D01*
X72331Y-47904D01*
X72377Y-47923D01*
X72425Y-47933D01*
X72474Y-47933D01*
X73074Y-47933D01*
X73122Y-47923D01*
X73168Y-47904D01*
X73209Y-47877D01*
X73244Y-47842D01*
X73271Y-47801D01*
X73290Y-47755D01*
X73300Y-47707D01*
X73300Y-47698D01*
X73320Y-47730D01*
X73396Y-47807D01*
X73486Y-47868D01*
X73585Y-47910D01*
X73614Y-47916D01*
X73700Y-47867D01*
X73700Y-47300D01*
X73692Y-47300D01*
X73692Y-47200D01*
X73700Y-47200D01*
X73700Y-46632D01*
X73614Y-46583D01*
X73585Y-46589D01*
X73486Y-46631D01*
X73396Y-46692D01*
X73320Y-46769D01*
X73300Y-46801D01*
X73300Y-46792D01*
X73290Y-46744D01*
X73271Y-46698D01*
X73244Y-46657D01*
X73209Y-46622D01*
X73168Y-46595D01*
X73122Y-46576D01*
X73074Y-46567D01*
X73025Y-46567D01*
X72607Y-46567D01*
X72624Y-46550D01*
X73873Y-46550D01*
X73850Y-46603D01*
X73800Y-46632D01*
X73800Y-47200D01*
X73807Y-47200D01*
X73807Y-47300D01*
X73800Y-47300D01*
X73800Y-47867D01*
X73885Y-47916D01*
X73914Y-47910D01*
X74013Y-47868D01*
X74103Y-47807D01*
X74179Y-47730D01*
X74238Y-47639D01*
X74279Y-47539D01*
X74293Y-47467D01*
X74370Y-47544D01*
X74370Y-47762D01*
X74379Y-47811D01*
X74398Y-47856D01*
X74379Y-47901D01*
X74370Y-47949D01*
X74370Y-47999D01*
X74370Y-48550D01*
X74379Y-48598D01*
X74398Y-48643D01*
X74379Y-48688D01*
X74370Y-48737D01*
X74370Y-48786D01*
X74370Y-48924D01*
X74432Y-48987D01*
X75111Y-48987D01*
X75111Y-48979D01*
X75211Y-48979D01*
X75211Y-48987D01*
X75890Y-48987D01*
X75952Y-48924D01*
X75952Y-48786D01*
X75952Y-48737D01*
X75943Y-48688D01*
X75924Y-48643D01*
X75943Y-48598D01*
X75952Y-48550D01*
X75952Y-48500D01*
X75952Y-47949D01*
X75943Y-47901D01*
X75924Y-47856D01*
X75943Y-47811D01*
X75952Y-47762D01*
X75952Y-47713D01*
X75952Y-47162D01*
X75943Y-47114D01*
X75924Y-47068D01*
X75911Y-47050D01*
X77088Y-47050D01*
X77075Y-47068D01*
X77056Y-47114D01*
X77047Y-47162D01*
X77047Y-47211D01*
X77047Y-47762D01*
X77056Y-47811D01*
X77075Y-47856D01*
X77103Y-47897D01*
X77137Y-47932D01*
X77178Y-47959D01*
X77224Y-47978D01*
X77272Y-47988D01*
X77321Y-47988D01*
X78404Y-47988D01*
X78450Y-47979D01*
X78450Y-48520D01*
G54D10*
G36*
X79950Y-45875D02*
X79625Y-46200D01*
X76200Y-46200D01*
X76200Y-46068D01*
X76200Y-45675D01*
X75767Y-45675D01*
X75705Y-45737D01*
X75705Y-45905D01*
X75714Y-45953D01*
X75733Y-45999D01*
X75760Y-46040D01*
X75795Y-46075D01*
X75836Y-46102D01*
X75882Y-46121D01*
X75930Y-46131D01*
X75979Y-46131D01*
X76137Y-46131D01*
X76200Y-46068D01*
X76200Y-46200D01*
X75626Y-46200D01*
X75655Y-46134D01*
X75673Y-46053D01*
X75675Y-45958D01*
X75658Y-45876D01*
X75627Y-45799D01*
X75580Y-45730D01*
X75522Y-45670D01*
X75453Y-45624D01*
X75376Y-45592D01*
X75294Y-45575D01*
X75211Y-45574D01*
X75166Y-45583D01*
X75173Y-45553D01*
X75175Y-45458D01*
X75158Y-45376D01*
X75127Y-45299D01*
X75080Y-45230D01*
X75050Y-45198D01*
X75050Y-45124D01*
X75925Y-44249D01*
X75942Y-44227D01*
X75960Y-44206D01*
X75961Y-44205D01*
X75962Y-44203D01*
X75975Y-44179D01*
X75988Y-44155D01*
X75989Y-44153D01*
X75989Y-44152D01*
X75998Y-44125D01*
X76006Y-44099D01*
X76006Y-44097D01*
X76007Y-44096D01*
X76009Y-44068D01*
X76012Y-44041D01*
X76012Y-44038D01*
X76012Y-44038D01*
X76012Y-44037D01*
X76013Y-44037D01*
X76013Y-44032D01*
X76015Y-44029D01*
X76028Y-44010D01*
X76040Y-44029D01*
X76043Y-44032D01*
X76043Y-44369D01*
X75930Y-44369D01*
X75882Y-44378D01*
X75836Y-44397D01*
X75795Y-44424D01*
X75760Y-44459D01*
X75733Y-44500D01*
X75714Y-44546D01*
X75705Y-44594D01*
X75705Y-44643D01*
X75705Y-45155D01*
X75714Y-45203D01*
X75733Y-45249D01*
X75733Y-45250D01*
X75733Y-45250D01*
X75714Y-45296D01*
X75705Y-45344D01*
X75705Y-45512D01*
X75767Y-45575D01*
X76200Y-45575D01*
X76200Y-45567D01*
X76300Y-45567D01*
X76300Y-45575D01*
X76307Y-45575D01*
X76307Y-45675D01*
X76300Y-45675D01*
X76300Y-46068D01*
X76362Y-46131D01*
X76520Y-46131D01*
X76569Y-46131D01*
X76617Y-46121D01*
X76663Y-46102D01*
X76704Y-46075D01*
X76739Y-46040D01*
X76754Y-46018D01*
X76796Y-46035D01*
X76844Y-46045D01*
X77012Y-46045D01*
X77075Y-45982D01*
X77075Y-45550D01*
X77067Y-45550D01*
X77067Y-45450D01*
X77075Y-45450D01*
X77075Y-45017D01*
X77012Y-44955D01*
X76844Y-44955D01*
X76796Y-44964D01*
X76795Y-44965D01*
X76795Y-44594D01*
X76785Y-44546D01*
X76766Y-44500D01*
X76739Y-44459D01*
X76704Y-44424D01*
X76663Y-44397D01*
X76643Y-44388D01*
X76643Y-44032D01*
X76645Y-44029D01*
X76657Y-44011D01*
X76669Y-44029D01*
X76672Y-44032D01*
X76672Y-44222D01*
X76674Y-44249D01*
X76677Y-44277D01*
X76677Y-44278D01*
X76677Y-44280D01*
X76685Y-44306D01*
X76693Y-44333D01*
X76694Y-44334D01*
X76694Y-44336D01*
X76707Y-44360D01*
X76720Y-44385D01*
X76721Y-44386D01*
X76722Y-44388D01*
X76739Y-44409D01*
X76756Y-44431D01*
X76759Y-44433D01*
X76759Y-44433D01*
X76759Y-44433D01*
X76759Y-44434D01*
X77280Y-44955D01*
X77237Y-44955D01*
X77175Y-45017D01*
X77175Y-45450D01*
X77182Y-45450D01*
X77182Y-45550D01*
X77175Y-45550D01*
X77175Y-45982D01*
X77237Y-46045D01*
X77405Y-46045D01*
X77453Y-46035D01*
X77499Y-46016D01*
X77500Y-46016D01*
X77500Y-46016D01*
X77546Y-46035D01*
X77594Y-46045D01*
X77643Y-46045D01*
X78155Y-46045D01*
X78187Y-46038D01*
X78223Y-46075D01*
X78291Y-46122D01*
X78368Y-46156D01*
X78449Y-46174D01*
X78532Y-46175D01*
X78614Y-46161D01*
X78692Y-46131D01*
X78750Y-46094D01*
X78791Y-46122D01*
X78868Y-46156D01*
X78949Y-46174D01*
X79032Y-46175D01*
X79114Y-46161D01*
X79192Y-46131D01*
X79262Y-46086D01*
X79323Y-46029D01*
X79371Y-45960D01*
X79405Y-45884D01*
X79423Y-45803D01*
X79425Y-45708D01*
X79408Y-45626D01*
X79377Y-45549D01*
X79330Y-45480D01*
X79272Y-45420D01*
X79203Y-45374D01*
X79126Y-45342D01*
X79044Y-45325D01*
X78999Y-45324D01*
X77784Y-44110D01*
X77828Y-44091D01*
X77869Y-44064D01*
X77904Y-44029D01*
X77932Y-43988D01*
X77950Y-43942D01*
X77956Y-43914D01*
X77989Y-43914D01*
X79324Y-45249D01*
X79324Y-45285D01*
X79339Y-45367D01*
X79370Y-45445D01*
X79415Y-45515D01*
X79473Y-45575D01*
X79541Y-45622D01*
X79618Y-45656D01*
X79699Y-45674D01*
X79782Y-45675D01*
X79864Y-45661D01*
X79942Y-45631D01*
X79950Y-45626D01*
X79950Y-45875D01*
X79950Y-45875D01*
G37*
G54D25*
X79950Y-45875D02*
X79625Y-46200D01*
X76200Y-46200D01*
X76200Y-46068D01*
X76200Y-45675D01*
X75767Y-45675D01*
X75705Y-45737D01*
X75705Y-45905D01*
X75714Y-45953D01*
X75733Y-45999D01*
X75760Y-46040D01*
X75795Y-46075D01*
X75836Y-46102D01*
X75882Y-46121D01*
X75930Y-46131D01*
X75979Y-46131D01*
X76137Y-46131D01*
X76200Y-46068D01*
X76200Y-46200D01*
X75626Y-46200D01*
X75655Y-46134D01*
X75673Y-46053D01*
X75675Y-45958D01*
X75658Y-45876D01*
X75627Y-45799D01*
X75580Y-45730D01*
X75522Y-45670D01*
X75453Y-45624D01*
X75376Y-45592D01*
X75294Y-45575D01*
X75211Y-45574D01*
X75166Y-45583D01*
X75173Y-45553D01*
X75175Y-45458D01*
X75158Y-45376D01*
X75127Y-45299D01*
X75080Y-45230D01*
X75050Y-45198D01*
X75050Y-45124D01*
X75925Y-44249D01*
X75942Y-44227D01*
X75960Y-44206D01*
X75961Y-44205D01*
X75962Y-44203D01*
X75975Y-44179D01*
X75988Y-44155D01*
X75989Y-44153D01*
X75989Y-44152D01*
X75998Y-44125D01*
X76006Y-44099D01*
X76006Y-44097D01*
X76007Y-44096D01*
X76009Y-44068D01*
X76012Y-44041D01*
X76012Y-44038D01*
X76012Y-44038D01*
X76012Y-44037D01*
X76013Y-44037D01*
X76013Y-44032D01*
X76015Y-44029D01*
X76028Y-44010D01*
X76040Y-44029D01*
X76043Y-44032D01*
X76043Y-44369D01*
X75930Y-44369D01*
X75882Y-44378D01*
X75836Y-44397D01*
X75795Y-44424D01*
X75760Y-44459D01*
X75733Y-44500D01*
X75714Y-44546D01*
X75705Y-44594D01*
X75705Y-44643D01*
X75705Y-45155D01*
X75714Y-45203D01*
X75733Y-45249D01*
X75733Y-45250D01*
X75733Y-45250D01*
X75714Y-45296D01*
X75705Y-45344D01*
X75705Y-45512D01*
X75767Y-45575D01*
X76200Y-45575D01*
X76200Y-45567D01*
X76300Y-45567D01*
X76300Y-45575D01*
X76307Y-45575D01*
X76307Y-45675D01*
X76300Y-45675D01*
X76300Y-46068D01*
X76362Y-46131D01*
X76520Y-46131D01*
X76569Y-46131D01*
X76617Y-46121D01*
X76663Y-46102D01*
X76704Y-46075D01*
X76739Y-46040D01*
X76754Y-46018D01*
X76796Y-46035D01*
X76844Y-46045D01*
X77012Y-46045D01*
X77075Y-45982D01*
X77075Y-45550D01*
X77067Y-45550D01*
X77067Y-45450D01*
X77075Y-45450D01*
X77075Y-45017D01*
X77012Y-44955D01*
X76844Y-44955D01*
X76796Y-44964D01*
X76795Y-44965D01*
X76795Y-44594D01*
X76785Y-44546D01*
X76766Y-44500D01*
X76739Y-44459D01*
X76704Y-44424D01*
X76663Y-44397D01*
X76643Y-44388D01*
X76643Y-44032D01*
X76645Y-44029D01*
X76657Y-44011D01*
X76669Y-44029D01*
X76672Y-44032D01*
X76672Y-44222D01*
X76674Y-44249D01*
X76677Y-44277D01*
X76677Y-44278D01*
X76677Y-44280D01*
X76685Y-44306D01*
X76693Y-44333D01*
X76694Y-44334D01*
X76694Y-44336D01*
X76707Y-44360D01*
X76720Y-44385D01*
X76721Y-44386D01*
X76722Y-44388D01*
X76739Y-44409D01*
X76756Y-44431D01*
X76759Y-44433D01*
X76759Y-44433D01*
X76759Y-44433D01*
X76759Y-44434D01*
X77280Y-44955D01*
X77237Y-44955D01*
X77175Y-45017D01*
X77175Y-45450D01*
X77182Y-45450D01*
X77182Y-45550D01*
X77175Y-45550D01*
X77175Y-45982D01*
X77237Y-46045D01*
X77405Y-46045D01*
X77453Y-46035D01*
X77499Y-46016D01*
X77500Y-46016D01*
X77500Y-46016D01*
X77546Y-46035D01*
X77594Y-46045D01*
X77643Y-46045D01*
X78155Y-46045D01*
X78187Y-46038D01*
X78223Y-46075D01*
X78291Y-46122D01*
X78368Y-46156D01*
X78449Y-46174D01*
X78532Y-46175D01*
X78614Y-46161D01*
X78692Y-46131D01*
X78750Y-46094D01*
X78791Y-46122D01*
X78868Y-46156D01*
X78949Y-46174D01*
X79032Y-46175D01*
X79114Y-46161D01*
X79192Y-46131D01*
X79262Y-46086D01*
X79323Y-46029D01*
X79371Y-45960D01*
X79405Y-45884D01*
X79423Y-45803D01*
X79425Y-45708D01*
X79408Y-45626D01*
X79377Y-45549D01*
X79330Y-45480D01*
X79272Y-45420D01*
X79203Y-45374D01*
X79126Y-45342D01*
X79044Y-45325D01*
X78999Y-45324D01*
X77784Y-44110D01*
X77828Y-44091D01*
X77869Y-44064D01*
X77904Y-44029D01*
X77932Y-43988D01*
X77950Y-43942D01*
X77956Y-43914D01*
X77989Y-43914D01*
X79324Y-45249D01*
X79324Y-45285D01*
X79339Y-45367D01*
X79370Y-45445D01*
X79415Y-45515D01*
X79473Y-45575D01*
X79541Y-45622D01*
X79618Y-45656D01*
X79699Y-45674D01*
X79782Y-45675D01*
X79864Y-45661D01*
X79942Y-45631D01*
X79950Y-45626D01*
X79950Y-45875D01*
G54D10*
G36*
X82338Y-49096D02*
X81445Y-49793D01*
X81050Y-49993D01*
X81050Y-49183D01*
X81050Y-49050D01*
X81050Y-48950D01*
X81050Y-48817D01*
X81029Y-48710D01*
X80988Y-48610D01*
X80929Y-48519D01*
X80853Y-48442D01*
X80763Y-48381D01*
X80664Y-48339D01*
X80635Y-48333D01*
X80550Y-48382D01*
X80550Y-48950D01*
X81050Y-48950D01*
X81050Y-49050D01*
X80550Y-49050D01*
X80550Y-49617D01*
X80635Y-49666D01*
X80664Y-49660D01*
X80763Y-49618D01*
X80853Y-49557D01*
X80929Y-49480D01*
X80988Y-49389D01*
X81029Y-49289D01*
X81050Y-49183D01*
X81050Y-49993D01*
X79837Y-50605D01*
X78102Y-51090D01*
X77399Y-51144D01*
X77399Y-51112D01*
X77336Y-51050D01*
X76963Y-51050D01*
X76963Y-51057D01*
X76863Y-51057D01*
X76863Y-51050D01*
X76855Y-51050D01*
X76855Y-50950D01*
X76863Y-50950D01*
X76863Y-50942D01*
X76963Y-50942D01*
X76963Y-50950D01*
X77336Y-50950D01*
X77399Y-50887D01*
X77399Y-50788D01*
X77399Y-50739D01*
X77389Y-50691D01*
X77370Y-50645D01*
X77343Y-50604D01*
X77308Y-50569D01*
X77267Y-50542D01*
X77227Y-50525D01*
X77249Y-50516D01*
X77290Y-50489D01*
X77325Y-50454D01*
X77352Y-50413D01*
X77371Y-50367D01*
X77381Y-50319D01*
X77381Y-50300D01*
X78500Y-50300D01*
X78527Y-50297D01*
X78555Y-50294D01*
X78556Y-50294D01*
X78558Y-50294D01*
X78584Y-50286D01*
X78611Y-50278D01*
X78612Y-50277D01*
X78614Y-50277D01*
X78638Y-50264D01*
X78663Y-50251D01*
X78664Y-50250D01*
X78666Y-50249D01*
X78687Y-50232D01*
X78709Y-50215D01*
X78711Y-50212D01*
X78711Y-50212D01*
X78711Y-50212D01*
X78712Y-50212D01*
X78962Y-49962D01*
X78979Y-49940D01*
X78997Y-49919D01*
X78998Y-49918D01*
X78999Y-49916D01*
X79012Y-49892D01*
X79025Y-49868D01*
X79026Y-49866D01*
X79026Y-49865D01*
X79035Y-49838D01*
X79043Y-49812D01*
X79043Y-49810D01*
X79044Y-49809D01*
X79046Y-49781D01*
X79049Y-49754D01*
X79049Y-49751D01*
X79049Y-49751D01*
X79049Y-49750D01*
X79050Y-49750D01*
X79050Y-49633D01*
X79081Y-49654D01*
X79127Y-49673D01*
X79175Y-49683D01*
X79224Y-49683D01*
X79824Y-49683D01*
X79872Y-49673D01*
X79918Y-49654D01*
X79959Y-49627D01*
X79994Y-49592D01*
X80021Y-49551D01*
X80040Y-49505D01*
X80050Y-49457D01*
X80050Y-49448D01*
X80070Y-49480D01*
X80146Y-49557D01*
X80236Y-49618D01*
X80335Y-49660D01*
X80364Y-49666D01*
X80450Y-49617D01*
X80450Y-49050D01*
X80442Y-49050D01*
X80442Y-48950D01*
X80450Y-48950D01*
X80450Y-48382D01*
X80364Y-48333D01*
X80335Y-48339D01*
X80236Y-48381D01*
X80146Y-48442D01*
X80070Y-48519D01*
X80050Y-48551D01*
X80050Y-48542D01*
X80040Y-48494D01*
X80021Y-48448D01*
X79994Y-48407D01*
X79959Y-48372D01*
X79918Y-48345D01*
X79872Y-48326D01*
X79824Y-48317D01*
X79775Y-48317D01*
X79550Y-48317D01*
X79550Y-48051D01*
X79573Y-48029D01*
X79621Y-47960D01*
X79655Y-47884D01*
X79673Y-47803D01*
X79675Y-47708D01*
X79658Y-47626D01*
X79627Y-47550D01*
X80750Y-47550D01*
X80777Y-47547D01*
X80805Y-47544D01*
X80806Y-47544D01*
X80808Y-47544D01*
X80834Y-47536D01*
X80861Y-47528D01*
X80862Y-47527D01*
X80864Y-47527D01*
X80888Y-47514D01*
X80908Y-47504D01*
X80915Y-47515D01*
X80973Y-47575D01*
X81041Y-47622D01*
X81109Y-47652D01*
X81104Y-47664D01*
X81095Y-47712D01*
X81095Y-47762D01*
X81104Y-47810D01*
X81123Y-47856D01*
X81151Y-47896D01*
X81185Y-47931D01*
X81603Y-48348D01*
X81643Y-48376D01*
X81689Y-48395D01*
X81737Y-48404D01*
X81787Y-48404D01*
X81835Y-48395D01*
X81871Y-48380D01*
X81907Y-48416D01*
X81902Y-48423D01*
X81883Y-48469D01*
X81874Y-48517D01*
X81874Y-48566D01*
X81883Y-48614D01*
X81902Y-48660D01*
X81930Y-48701D01*
X81964Y-48736D01*
X82298Y-49069D01*
X82338Y-49096D01*
X82338Y-49096D01*
G37*
G54D25*
X82338Y-49096D02*
X81445Y-49793D01*
X81050Y-49993D01*
X81050Y-49183D01*
X81050Y-49050D01*
X81050Y-48950D01*
X81050Y-48817D01*
X81029Y-48710D01*
X80988Y-48610D01*
X80929Y-48519D01*
X80853Y-48442D01*
X80763Y-48381D01*
X80664Y-48339D01*
X80635Y-48333D01*
X80550Y-48382D01*
X80550Y-48950D01*
X81050Y-48950D01*
X81050Y-49050D01*
X80550Y-49050D01*
X80550Y-49617D01*
X80635Y-49666D01*
X80664Y-49660D01*
X80763Y-49618D01*
X80853Y-49557D01*
X80929Y-49480D01*
X80988Y-49389D01*
X81029Y-49289D01*
X81050Y-49183D01*
X81050Y-49993D01*
X79837Y-50605D01*
X78102Y-51090D01*
X77399Y-51144D01*
X77399Y-51112D01*
X77336Y-51050D01*
X76963Y-51050D01*
X76963Y-51057D01*
X76863Y-51057D01*
X76863Y-51050D01*
X76855Y-51050D01*
X76855Y-50950D01*
X76863Y-50950D01*
X76863Y-50942D01*
X76963Y-50942D01*
X76963Y-50950D01*
X77336Y-50950D01*
X77399Y-50887D01*
X77399Y-50788D01*
X77399Y-50739D01*
X77389Y-50691D01*
X77370Y-50645D01*
X77343Y-50604D01*
X77308Y-50569D01*
X77267Y-50542D01*
X77227Y-50525D01*
X77249Y-50516D01*
X77290Y-50489D01*
X77325Y-50454D01*
X77352Y-50413D01*
X77371Y-50367D01*
X77381Y-50319D01*
X77381Y-50300D01*
X78500Y-50300D01*
X78527Y-50297D01*
X78555Y-50294D01*
X78556Y-50294D01*
X78558Y-50294D01*
X78584Y-50286D01*
X78611Y-50278D01*
X78612Y-50277D01*
X78614Y-50277D01*
X78638Y-50264D01*
X78663Y-50251D01*
X78664Y-50250D01*
X78666Y-50249D01*
X78687Y-50232D01*
X78709Y-50215D01*
X78711Y-50212D01*
X78711Y-50212D01*
X78711Y-50212D01*
X78712Y-50212D01*
X78962Y-49962D01*
X78979Y-49940D01*
X78997Y-49919D01*
X78998Y-49918D01*
X78999Y-49916D01*
X79012Y-49892D01*
X79025Y-49868D01*
X79026Y-49866D01*
X79026Y-49865D01*
X79035Y-49838D01*
X79043Y-49812D01*
X79043Y-49810D01*
X79044Y-49809D01*
X79046Y-49781D01*
X79049Y-49754D01*
X79049Y-49751D01*
X79049Y-49751D01*
X79049Y-49750D01*
X79050Y-49750D01*
X79050Y-49633D01*
X79081Y-49654D01*
X79127Y-49673D01*
X79175Y-49683D01*
X79224Y-49683D01*
X79824Y-49683D01*
X79872Y-49673D01*
X79918Y-49654D01*
X79959Y-49627D01*
X79994Y-49592D01*
X80021Y-49551D01*
X80040Y-49505D01*
X80050Y-49457D01*
X80050Y-49448D01*
X80070Y-49480D01*
X80146Y-49557D01*
X80236Y-49618D01*
X80335Y-49660D01*
X80364Y-49666D01*
X80450Y-49617D01*
X80450Y-49050D01*
X80442Y-49050D01*
X80442Y-48950D01*
X80450Y-48950D01*
X80450Y-48382D01*
X80364Y-48333D01*
X80335Y-48339D01*
X80236Y-48381D01*
X80146Y-48442D01*
X80070Y-48519D01*
X80050Y-48551D01*
X80050Y-48542D01*
X80040Y-48494D01*
X80021Y-48448D01*
X79994Y-48407D01*
X79959Y-48372D01*
X79918Y-48345D01*
X79872Y-48326D01*
X79824Y-48317D01*
X79775Y-48317D01*
X79550Y-48317D01*
X79550Y-48051D01*
X79573Y-48029D01*
X79621Y-47960D01*
X79655Y-47884D01*
X79673Y-47803D01*
X79675Y-47708D01*
X79658Y-47626D01*
X79627Y-47550D01*
X80750Y-47550D01*
X80777Y-47547D01*
X80805Y-47544D01*
X80806Y-47544D01*
X80808Y-47544D01*
X80834Y-47536D01*
X80861Y-47528D01*
X80862Y-47527D01*
X80864Y-47527D01*
X80888Y-47514D01*
X80908Y-47504D01*
X80915Y-47515D01*
X80973Y-47575D01*
X81041Y-47622D01*
X81109Y-47652D01*
X81104Y-47664D01*
X81095Y-47712D01*
X81095Y-47762D01*
X81104Y-47810D01*
X81123Y-47856D01*
X81151Y-47896D01*
X81185Y-47931D01*
X81603Y-48348D01*
X81643Y-48376D01*
X81689Y-48395D01*
X81737Y-48404D01*
X81787Y-48404D01*
X81835Y-48395D01*
X81871Y-48380D01*
X81907Y-48416D01*
X81902Y-48423D01*
X81883Y-48469D01*
X81874Y-48517D01*
X81874Y-48566D01*
X81883Y-48614D01*
X81902Y-48660D01*
X81930Y-48701D01*
X81964Y-48736D01*
X82298Y-49069D01*
X82338Y-49096D01*
G54D10*
G36*
X82534Y-35463D02*
X82463Y-35534D01*
X82457Y-35528D01*
X82387Y-35599D01*
X82387Y-35457D01*
X82123Y-35193D01*
X82034Y-35193D01*
X81964Y-35263D01*
X81930Y-35298D01*
X81902Y-35339D01*
X81883Y-35385D01*
X81874Y-35433D01*
X81874Y-35482D01*
X81883Y-35530D01*
X81902Y-35576D01*
X81930Y-35617D01*
X82034Y-35722D01*
X82123Y-35722D01*
X82387Y-35457D01*
X82387Y-35599D01*
X82193Y-35792D01*
X82193Y-35881D01*
X82298Y-35985D01*
X82339Y-36013D01*
X82385Y-36032D01*
X82433Y-36041D01*
X82458Y-36041D01*
X82458Y-36066D01*
X82467Y-36114D01*
X82486Y-36160D01*
X82491Y-36168D01*
X82465Y-36194D01*
X82452Y-36181D01*
X82411Y-36154D01*
X82365Y-36135D01*
X82364Y-36135D01*
X82364Y-36134D01*
X82345Y-36088D01*
X82318Y-36047D01*
X82283Y-36013D01*
X81921Y-35651D01*
X81880Y-35623D01*
X81835Y-35604D01*
X81787Y-35595D01*
X81737Y-35595D01*
X81689Y-35604D01*
X81643Y-35623D01*
X81603Y-35651D01*
X81568Y-35685D01*
X81151Y-36103D01*
X81123Y-36143D01*
X81104Y-36189D01*
X81095Y-36237D01*
X81095Y-36287D01*
X81104Y-36335D01*
X81123Y-36380D01*
X81151Y-36421D01*
X81152Y-36423D01*
X81037Y-36537D01*
X81020Y-36559D01*
X81002Y-36580D01*
X81001Y-36581D01*
X81000Y-36583D01*
X80987Y-36607D01*
X80974Y-36631D01*
X80973Y-36633D01*
X80973Y-36634D01*
X80964Y-36661D01*
X80956Y-36687D01*
X80956Y-36689D01*
X80955Y-36690D01*
X80953Y-36718D01*
X80950Y-36745D01*
X80950Y-36748D01*
X80950Y-36748D01*
X80950Y-36749D01*
X80950Y-36750D01*
X80950Y-37025D01*
X78462Y-34537D01*
X78440Y-34520D01*
X78419Y-34502D01*
X78418Y-34501D01*
X78416Y-34500D01*
X78392Y-34487D01*
X78368Y-34474D01*
X78366Y-34473D01*
X78365Y-34473D01*
X78338Y-34464D01*
X78312Y-34456D01*
X78310Y-34456D01*
X78309Y-34455D01*
X78281Y-34453D01*
X78254Y-34450D01*
X78251Y-34450D01*
X78251Y-34450D01*
X78250Y-34450D01*
X78250Y-34450D01*
X77750Y-34450D01*
X77328Y-34450D01*
X77352Y-34413D01*
X77371Y-34367D01*
X77381Y-34319D01*
X77381Y-34270D01*
X77381Y-33680D01*
X77371Y-33632D01*
X77352Y-33586D01*
X77325Y-33545D01*
X77290Y-33510D01*
X77249Y-33483D01*
X77227Y-33474D01*
X77267Y-33457D01*
X77308Y-33430D01*
X77343Y-33395D01*
X77370Y-33354D01*
X77389Y-33308D01*
X77399Y-33260D01*
X77399Y-33211D01*
X77399Y-32857D01*
X78356Y-32958D01*
X80076Y-33490D01*
X81661Y-34347D01*
X82335Y-34905D01*
X82298Y-34930D01*
X82263Y-34964D01*
X82193Y-35034D01*
X82193Y-35123D01*
X82457Y-35387D01*
X82463Y-35381D01*
X82534Y-35452D01*
X82528Y-35457D01*
X82534Y-35463D01*
X82534Y-35463D01*
G37*
G54D25*
X82534Y-35463D02*
X82463Y-35534D01*
X82457Y-35528D01*
X82387Y-35599D01*
X82387Y-35457D01*
X82123Y-35193D01*
X82034Y-35193D01*
X81964Y-35263D01*
X81930Y-35298D01*
X81902Y-35339D01*
X81883Y-35385D01*
X81874Y-35433D01*
X81874Y-35482D01*
X81883Y-35530D01*
X81902Y-35576D01*
X81930Y-35617D01*
X82034Y-35722D01*
X82123Y-35722D01*
X82387Y-35457D01*
X82387Y-35599D01*
X82193Y-35792D01*
X82193Y-35881D01*
X82298Y-35985D01*
X82339Y-36013D01*
X82385Y-36032D01*
X82433Y-36041D01*
X82458Y-36041D01*
X82458Y-36066D01*
X82467Y-36114D01*
X82486Y-36160D01*
X82491Y-36168D01*
X82465Y-36194D01*
X82452Y-36181D01*
X82411Y-36154D01*
X82365Y-36135D01*
X82364Y-36135D01*
X82364Y-36134D01*
X82345Y-36088D01*
X82318Y-36047D01*
X82283Y-36013D01*
X81921Y-35651D01*
X81880Y-35623D01*
X81835Y-35604D01*
X81787Y-35595D01*
X81737Y-35595D01*
X81689Y-35604D01*
X81643Y-35623D01*
X81603Y-35651D01*
X81568Y-35685D01*
X81151Y-36103D01*
X81123Y-36143D01*
X81104Y-36189D01*
X81095Y-36237D01*
X81095Y-36287D01*
X81104Y-36335D01*
X81123Y-36380D01*
X81151Y-36421D01*
X81152Y-36423D01*
X81037Y-36537D01*
X81020Y-36559D01*
X81002Y-36580D01*
X81001Y-36581D01*
X81000Y-36583D01*
X80987Y-36607D01*
X80974Y-36631D01*
X80973Y-36633D01*
X80973Y-36634D01*
X80964Y-36661D01*
X80956Y-36687D01*
X80956Y-36689D01*
X80955Y-36690D01*
X80953Y-36718D01*
X80950Y-36745D01*
X80950Y-36748D01*
X80950Y-36748D01*
X80950Y-36749D01*
X80950Y-36750D01*
X80950Y-37025D01*
X78462Y-34537D01*
X78440Y-34520D01*
X78419Y-34502D01*
X78418Y-34501D01*
X78416Y-34500D01*
X78392Y-34487D01*
X78368Y-34474D01*
X78366Y-34473D01*
X78365Y-34473D01*
X78338Y-34464D01*
X78312Y-34456D01*
X78310Y-34456D01*
X78309Y-34455D01*
X78281Y-34453D01*
X78254Y-34450D01*
X78251Y-34450D01*
X78251Y-34450D01*
X78250Y-34450D01*
X78250Y-34450D01*
X77750Y-34450D01*
X77328Y-34450D01*
X77352Y-34413D01*
X77371Y-34367D01*
X77381Y-34319D01*
X77381Y-34270D01*
X77381Y-33680D01*
X77371Y-33632D01*
X77352Y-33586D01*
X77325Y-33545D01*
X77290Y-33510D01*
X77249Y-33483D01*
X77227Y-33474D01*
X77267Y-33457D01*
X77308Y-33430D01*
X77343Y-33395D01*
X77370Y-33354D01*
X77389Y-33308D01*
X77399Y-33260D01*
X77399Y-33211D01*
X77399Y-32857D01*
X78356Y-32958D01*
X80076Y-33490D01*
X81661Y-34347D01*
X82335Y-34905D01*
X82298Y-34930D01*
X82263Y-34964D01*
X82193Y-35034D01*
X82193Y-35123D01*
X82457Y-35387D01*
X82463Y-35381D01*
X82534Y-35452D01*
X82528Y-35457D01*
X82534Y-35463D01*
G54D10*
G36*
X85642Y-41101D02*
X85612Y-41101D01*
X85550Y-41163D01*
X85550Y-41537D01*
X85557Y-41537D01*
X85557Y-41637D01*
X85550Y-41637D01*
X85550Y-41644D01*
X85450Y-41644D01*
X85450Y-41637D01*
X85442Y-41637D01*
X85442Y-41537D01*
X85450Y-41537D01*
X85450Y-41163D01*
X85387Y-41101D01*
X85288Y-41101D01*
X85239Y-41101D01*
X85191Y-41110D01*
X85145Y-41129D01*
X85104Y-41156D01*
X85069Y-41191D01*
X85042Y-41232D01*
X85025Y-41272D01*
X85016Y-41250D01*
X84989Y-41209D01*
X84954Y-41174D01*
X84913Y-41147D01*
X84867Y-41128D01*
X84819Y-41119D01*
X84770Y-41119D01*
X84180Y-41119D01*
X84132Y-41128D01*
X84086Y-41147D01*
X84045Y-41174D01*
X84010Y-41209D01*
X83983Y-41250D01*
X83964Y-41296D01*
X83958Y-41325D01*
X83875Y-41325D01*
X83847Y-41327D01*
X83819Y-41330D01*
X83818Y-41330D01*
X83816Y-41330D01*
X83790Y-41338D01*
X83763Y-41346D01*
X83762Y-41347D01*
X83760Y-41347D01*
X83736Y-41360D01*
X83711Y-41373D01*
X83710Y-41374D01*
X83708Y-41375D01*
X83687Y-41392D01*
X83665Y-41409D01*
X83663Y-41412D01*
X83663Y-41412D01*
X83663Y-41412D01*
X83662Y-41412D01*
X83537Y-41537D01*
X83520Y-41559D01*
X83502Y-41580D01*
X83501Y-41581D01*
X83500Y-41583D01*
X83487Y-41607D01*
X83474Y-41631D01*
X83473Y-41633D01*
X83473Y-41634D01*
X83464Y-41661D01*
X83456Y-41687D01*
X83456Y-41689D01*
X83455Y-41690D01*
X83453Y-41718D01*
X83450Y-41745D01*
X83450Y-41748D01*
X83450Y-41748D01*
X83450Y-41749D01*
X83450Y-41750D01*
X83450Y-42875D01*
X83375Y-42950D01*
X83126Y-42950D01*
X83155Y-42884D01*
X83173Y-42803D01*
X83175Y-42708D01*
X83158Y-42626D01*
X83127Y-42549D01*
X83080Y-42480D01*
X83022Y-42420D01*
X82953Y-42374D01*
X82876Y-42342D01*
X82794Y-42325D01*
X82749Y-42324D01*
X82550Y-42125D01*
X82550Y-41376D01*
X82618Y-41406D01*
X82699Y-41424D01*
X82782Y-41425D01*
X82864Y-41411D01*
X82942Y-41381D01*
X83012Y-41336D01*
X83073Y-41279D01*
X83121Y-41210D01*
X83155Y-41134D01*
X83173Y-41053D01*
X83175Y-40958D01*
X83158Y-40876D01*
X83127Y-40799D01*
X83080Y-40730D01*
X83050Y-40698D01*
X83050Y-38051D01*
X83073Y-38029D01*
X83121Y-37960D01*
X83155Y-37884D01*
X83173Y-37803D01*
X83175Y-37708D01*
X83158Y-37626D01*
X83127Y-37549D01*
X83080Y-37480D01*
X83022Y-37420D01*
X82953Y-37374D01*
X82876Y-37342D01*
X82794Y-37325D01*
X82711Y-37324D01*
X82629Y-37340D01*
X82552Y-37371D01*
X82482Y-37417D01*
X82422Y-37475D01*
X82375Y-37544D01*
X82342Y-37620D01*
X82325Y-37702D01*
X82324Y-37785D01*
X82339Y-37867D01*
X82370Y-37945D01*
X82371Y-37947D01*
X81550Y-37125D01*
X81550Y-36874D01*
X81582Y-36841D01*
X81588Y-36845D01*
X81634Y-36864D01*
X81635Y-36864D01*
X81635Y-36865D01*
X81654Y-36911D01*
X81681Y-36952D01*
X81716Y-36986D01*
X82078Y-37348D01*
X82119Y-37376D01*
X82164Y-37395D01*
X82212Y-37404D01*
X82262Y-37404D01*
X82310Y-37395D01*
X82356Y-37376D01*
X82396Y-37348D01*
X82431Y-37314D01*
X82848Y-36896D01*
X82876Y-36856D01*
X82895Y-36810D01*
X82904Y-36762D01*
X82904Y-36712D01*
X82895Y-36664D01*
X82880Y-36628D01*
X82916Y-36592D01*
X82923Y-36597D01*
X82969Y-36616D01*
X83017Y-36625D01*
X83066Y-36625D01*
X83114Y-36616D01*
X83160Y-36597D01*
X83201Y-36569D01*
X83236Y-36535D01*
X83569Y-36201D01*
X83594Y-36164D01*
X84188Y-36892D01*
X85033Y-38482D01*
X85554Y-40207D01*
X85642Y-41101D01*
X85642Y-41101D01*
G37*
G54D25*
X85642Y-41101D02*
X85612Y-41101D01*
X85550Y-41163D01*
X85550Y-41537D01*
X85557Y-41537D01*
X85557Y-41637D01*
X85550Y-41637D01*
X85550Y-41644D01*
X85450Y-41644D01*
X85450Y-41637D01*
X85442Y-41637D01*
X85442Y-41537D01*
X85450Y-41537D01*
X85450Y-41163D01*
X85387Y-41101D01*
X85288Y-41101D01*
X85239Y-41101D01*
X85191Y-41110D01*
X85145Y-41129D01*
X85104Y-41156D01*
X85069Y-41191D01*
X85042Y-41232D01*
X85025Y-41272D01*
X85016Y-41250D01*
X84989Y-41209D01*
X84954Y-41174D01*
X84913Y-41147D01*
X84867Y-41128D01*
X84819Y-41119D01*
X84770Y-41119D01*
X84180Y-41119D01*
X84132Y-41128D01*
X84086Y-41147D01*
X84045Y-41174D01*
X84010Y-41209D01*
X83983Y-41250D01*
X83964Y-41296D01*
X83958Y-41325D01*
X83875Y-41325D01*
X83847Y-41327D01*
X83819Y-41330D01*
X83818Y-41330D01*
X83816Y-41330D01*
X83790Y-41338D01*
X83763Y-41346D01*
X83762Y-41347D01*
X83760Y-41347D01*
X83736Y-41360D01*
X83711Y-41373D01*
X83710Y-41374D01*
X83708Y-41375D01*
X83687Y-41392D01*
X83665Y-41409D01*
X83663Y-41412D01*
X83663Y-41412D01*
X83663Y-41412D01*
X83662Y-41412D01*
X83537Y-41537D01*
X83520Y-41559D01*
X83502Y-41580D01*
X83501Y-41581D01*
X83500Y-41583D01*
X83487Y-41607D01*
X83474Y-41631D01*
X83473Y-41633D01*
X83473Y-41634D01*
X83464Y-41661D01*
X83456Y-41687D01*
X83456Y-41689D01*
X83455Y-41690D01*
X83453Y-41718D01*
X83450Y-41745D01*
X83450Y-41748D01*
X83450Y-41748D01*
X83450Y-41749D01*
X83450Y-41750D01*
X83450Y-42875D01*
X83375Y-42950D01*
X83126Y-42950D01*
X83155Y-42884D01*
X83173Y-42803D01*
X83175Y-42708D01*
X83158Y-42626D01*
X83127Y-42549D01*
X83080Y-42480D01*
X83022Y-42420D01*
X82953Y-42374D01*
X82876Y-42342D01*
X82794Y-42325D01*
X82749Y-42324D01*
X82550Y-42125D01*
X82550Y-41376D01*
X82618Y-41406D01*
X82699Y-41424D01*
X82782Y-41425D01*
X82864Y-41411D01*
X82942Y-41381D01*
X83012Y-41336D01*
X83073Y-41279D01*
X83121Y-41210D01*
X83155Y-41134D01*
X83173Y-41053D01*
X83175Y-40958D01*
X83158Y-40876D01*
X83127Y-40799D01*
X83080Y-40730D01*
X83050Y-40698D01*
X83050Y-38051D01*
X83073Y-38029D01*
X83121Y-37960D01*
X83155Y-37884D01*
X83173Y-37803D01*
X83175Y-37708D01*
X83158Y-37626D01*
X83127Y-37549D01*
X83080Y-37480D01*
X83022Y-37420D01*
X82953Y-37374D01*
X82876Y-37342D01*
X82794Y-37325D01*
X82711Y-37324D01*
X82629Y-37340D01*
X82552Y-37371D01*
X82482Y-37417D01*
X82422Y-37475D01*
X82375Y-37544D01*
X82342Y-37620D01*
X82325Y-37702D01*
X82324Y-37785D01*
X82339Y-37867D01*
X82370Y-37945D01*
X82371Y-37947D01*
X81550Y-37125D01*
X81550Y-36874D01*
X81582Y-36841D01*
X81588Y-36845D01*
X81634Y-36864D01*
X81635Y-36864D01*
X81635Y-36865D01*
X81654Y-36911D01*
X81681Y-36952D01*
X81716Y-36986D01*
X82078Y-37348D01*
X82119Y-37376D01*
X82164Y-37395D01*
X82212Y-37404D01*
X82262Y-37404D01*
X82310Y-37395D01*
X82356Y-37376D01*
X82396Y-37348D01*
X82431Y-37314D01*
X82848Y-36896D01*
X82876Y-36856D01*
X82895Y-36810D01*
X82904Y-36762D01*
X82904Y-36712D01*
X82895Y-36664D01*
X82880Y-36628D01*
X82916Y-36592D01*
X82923Y-36597D01*
X82969Y-36616D01*
X83017Y-36625D01*
X83066Y-36625D01*
X83114Y-36616D01*
X83160Y-36597D01*
X83201Y-36569D01*
X83236Y-36535D01*
X83569Y-36201D01*
X83594Y-36164D01*
X84188Y-36892D01*
X85033Y-38482D01*
X85554Y-40207D01*
X85642Y-41101D01*
G54D10*
G36*
X85645Y-42899D02*
X85500Y-44044D01*
X84932Y-45754D01*
X84042Y-47320D01*
X83596Y-47837D01*
X83569Y-47798D01*
X83535Y-47763D01*
X83465Y-47693D01*
X83376Y-47693D01*
X83306Y-47764D01*
X83306Y-47623D01*
X83306Y-47534D01*
X83236Y-47464D01*
X83201Y-47430D01*
X83160Y-47402D01*
X83114Y-47383D01*
X83066Y-47374D01*
X83017Y-47374D01*
X82969Y-47383D01*
X82923Y-47402D01*
X82882Y-47430D01*
X82777Y-47534D01*
X82777Y-47623D01*
X83042Y-47887D01*
X83306Y-47623D01*
X83306Y-47764D01*
X83112Y-47957D01*
X83118Y-47963D01*
X83047Y-48034D01*
X83042Y-48028D01*
X83036Y-48034D01*
X82965Y-47963D01*
X82971Y-47957D01*
X82707Y-47693D01*
X82618Y-47693D01*
X82514Y-47798D01*
X82486Y-47839D01*
X82467Y-47885D01*
X82458Y-47933D01*
X82458Y-47958D01*
X82433Y-47958D01*
X82385Y-47967D01*
X82339Y-47986D01*
X82331Y-47991D01*
X82305Y-47965D01*
X82318Y-47952D01*
X82345Y-47911D01*
X82364Y-47865D01*
X82364Y-47864D01*
X82365Y-47864D01*
X82411Y-47845D01*
X82452Y-47818D01*
X82486Y-47783D01*
X82848Y-47421D01*
X82876Y-47380D01*
X82895Y-47335D01*
X82904Y-47287D01*
X82904Y-47237D01*
X82895Y-47189D01*
X82876Y-47143D01*
X82848Y-47103D01*
X82814Y-47068D01*
X82661Y-46915D01*
X82699Y-46924D01*
X82782Y-46925D01*
X82864Y-46911D01*
X82942Y-46881D01*
X83012Y-46836D01*
X83073Y-46779D01*
X83121Y-46710D01*
X83155Y-46634D01*
X83173Y-46553D01*
X83175Y-46458D01*
X83158Y-46376D01*
X83127Y-46299D01*
X83080Y-46230D01*
X83050Y-46198D01*
X83050Y-45876D01*
X83118Y-45906D01*
X83199Y-45924D01*
X83282Y-45925D01*
X83364Y-45911D01*
X83442Y-45881D01*
X83512Y-45836D01*
X83573Y-45779D01*
X83621Y-45710D01*
X83655Y-45634D01*
X83673Y-45553D01*
X83675Y-45458D01*
X83658Y-45376D01*
X83627Y-45299D01*
X83580Y-45230D01*
X83550Y-45198D01*
X83550Y-44051D01*
X83573Y-44029D01*
X83621Y-43960D01*
X83655Y-43884D01*
X83673Y-43803D01*
X83675Y-43708D01*
X83658Y-43626D01*
X83627Y-43549D01*
X83612Y-43527D01*
X83612Y-43527D01*
X83614Y-43527D01*
X83638Y-43514D01*
X83663Y-43501D01*
X83664Y-43500D01*
X83666Y-43499D01*
X83687Y-43482D01*
X83709Y-43465D01*
X83711Y-43462D01*
X83711Y-43462D01*
X83711Y-43462D01*
X83712Y-43462D01*
X83962Y-43212D01*
X83979Y-43190D01*
X83997Y-43169D01*
X83998Y-43168D01*
X83999Y-43166D01*
X84012Y-43142D01*
X84025Y-43118D01*
X84026Y-43116D01*
X84026Y-43115D01*
X84035Y-43088D01*
X84043Y-43062D01*
X84043Y-43060D01*
X84044Y-43059D01*
X84046Y-43031D01*
X84049Y-43004D01*
X84049Y-43001D01*
X84049Y-43001D01*
X84049Y-43000D01*
X84050Y-43000D01*
X84050Y-42828D01*
X84086Y-42852D01*
X84132Y-42871D01*
X84180Y-42881D01*
X84229Y-42881D01*
X84819Y-42881D01*
X84867Y-42871D01*
X84913Y-42852D01*
X84954Y-42825D01*
X84989Y-42790D01*
X85016Y-42749D01*
X85025Y-42727D01*
X85042Y-42767D01*
X85069Y-42808D01*
X85104Y-42843D01*
X85145Y-42870D01*
X85191Y-42889D01*
X85239Y-42899D01*
X85288Y-42899D01*
X85645Y-42899D01*
X85645Y-42899D01*
G37*
G54D25*
X85645Y-42899D02*
X85500Y-44044D01*
X84932Y-45754D01*
X84042Y-47320D01*
X83596Y-47837D01*
X83569Y-47798D01*
X83535Y-47763D01*
X83465Y-47693D01*
X83376Y-47693D01*
X83306Y-47764D01*
X83306Y-47623D01*
X83306Y-47534D01*
X83236Y-47464D01*
X83201Y-47430D01*
X83160Y-47402D01*
X83114Y-47383D01*
X83066Y-47374D01*
X83017Y-47374D01*
X82969Y-47383D01*
X82923Y-47402D01*
X82882Y-47430D01*
X82777Y-47534D01*
X82777Y-47623D01*
X83042Y-47887D01*
X83306Y-47623D01*
X83306Y-47764D01*
X83112Y-47957D01*
X83118Y-47963D01*
X83047Y-48034D01*
X83042Y-48028D01*
X83036Y-48034D01*
X82965Y-47963D01*
X82971Y-47957D01*
X82707Y-47693D01*
X82618Y-47693D01*
X82514Y-47798D01*
X82486Y-47839D01*
X82467Y-47885D01*
X82458Y-47933D01*
X82458Y-47958D01*
X82433Y-47958D01*
X82385Y-47967D01*
X82339Y-47986D01*
X82331Y-47991D01*
X82305Y-47965D01*
X82318Y-47952D01*
X82345Y-47911D01*
X82364Y-47865D01*
X82364Y-47864D01*
X82365Y-47864D01*
X82411Y-47845D01*
X82452Y-47818D01*
X82486Y-47783D01*
X82848Y-47421D01*
X82876Y-47380D01*
X82895Y-47335D01*
X82904Y-47287D01*
X82904Y-47237D01*
X82895Y-47189D01*
X82876Y-47143D01*
X82848Y-47103D01*
X82814Y-47068D01*
X82661Y-46915D01*
X82699Y-46924D01*
X82782Y-46925D01*
X82864Y-46911D01*
X82942Y-46881D01*
X83012Y-46836D01*
X83073Y-46779D01*
X83121Y-46710D01*
X83155Y-46634D01*
X83173Y-46553D01*
X83175Y-46458D01*
X83158Y-46376D01*
X83127Y-46299D01*
X83080Y-46230D01*
X83050Y-46198D01*
X83050Y-45876D01*
X83118Y-45906D01*
X83199Y-45924D01*
X83282Y-45925D01*
X83364Y-45911D01*
X83442Y-45881D01*
X83512Y-45836D01*
X83573Y-45779D01*
X83621Y-45710D01*
X83655Y-45634D01*
X83673Y-45553D01*
X83675Y-45458D01*
X83658Y-45376D01*
X83627Y-45299D01*
X83580Y-45230D01*
X83550Y-45198D01*
X83550Y-44051D01*
X83573Y-44029D01*
X83621Y-43960D01*
X83655Y-43884D01*
X83673Y-43803D01*
X83675Y-43708D01*
X83658Y-43626D01*
X83627Y-43549D01*
X83612Y-43527D01*
X83612Y-43527D01*
X83614Y-43527D01*
X83638Y-43514D01*
X83663Y-43501D01*
X83664Y-43500D01*
X83666Y-43499D01*
X83687Y-43482D01*
X83709Y-43465D01*
X83711Y-43462D01*
X83711Y-43462D01*
X83711Y-43462D01*
X83712Y-43462D01*
X83962Y-43212D01*
X83979Y-43190D01*
X83997Y-43169D01*
X83998Y-43168D01*
X83999Y-43166D01*
X84012Y-43142D01*
X84025Y-43118D01*
X84026Y-43116D01*
X84026Y-43115D01*
X84035Y-43088D01*
X84043Y-43062D01*
X84043Y-43060D01*
X84044Y-43059D01*
X84046Y-43031D01*
X84049Y-43004D01*
X84049Y-43001D01*
X84049Y-43001D01*
X84049Y-43000D01*
X84050Y-43000D01*
X84050Y-42828D01*
X84086Y-42852D01*
X84132Y-42871D01*
X84180Y-42881D01*
X84229Y-42881D01*
X84819Y-42881D01*
X84867Y-42871D01*
X84913Y-42852D01*
X84954Y-42825D01*
X84989Y-42790D01*
X85016Y-42749D01*
X85025Y-42727D01*
X85042Y-42767D01*
X85069Y-42808D01*
X85104Y-42843D01*
X85145Y-42870D01*
X85191Y-42889D01*
X85239Y-42899D01*
X85288Y-42899D01*
X85645Y-42899D01*
M02*
