%FSLAX34Y34*%
G04 Gerber Fmt 3.4, Leading zero omitted, Abs format*
G04 (created by PCBNEW (2013-jul-14)-product) date Sunday, 05 January 2014 05:56:02 pm*
%MOIN*%
G01*
G70*
G90*
G04 APERTURE LIST*
%ADD10C,0.005906*%
%ADD11C,0.118110*%
%ADD12R,0.051200X0.059000*%
%ADD13R,0.059000X0.051200*%
%ADD14R,0.078700X0.060000*%
%ADD15O,0.078700X0.060000*%
%ADD16R,0.086600X0.060000*%
%ADD17O,0.086600X0.060000*%
%ADD18R,0.060000X0.086600*%
%ADD19O,0.060000X0.086600*%
%ADD20R,0.047200X0.047200*%
%ADD21R,0.108268X0.055118*%
%ADD22R,0.021700X0.051200*%
%ADD23R,0.051200X0.021700*%
G04 APERTURE END LIST*
G54D10*
G54D11*
X72365Y-42000D03*
X80634Y-42000D03*
G54D12*
X76625Y-39000D03*
X77375Y-39000D03*
X77125Y-45500D03*
X77875Y-45500D03*
G54D13*
X76250Y-44875D03*
X76250Y-45625D03*
G54D14*
X75902Y-37250D03*
G54D15*
X77098Y-37250D03*
X75902Y-36250D03*
X77098Y-36250D03*
X75902Y-35250D03*
X77098Y-35250D03*
G54D16*
X71000Y-44750D03*
G54D17*
X71000Y-43750D03*
X71000Y-42750D03*
G54D18*
X79500Y-49000D03*
G54D19*
X80500Y-49000D03*
G54D18*
X72750Y-47250D03*
G54D19*
X73750Y-47250D03*
G54D20*
X67500Y-41587D03*
X67500Y-42413D03*
G54D10*
G36*
X70542Y-35124D02*
X70875Y-35457D01*
X70542Y-35791D01*
X70208Y-35457D01*
X70542Y-35124D01*
X70542Y-35124D01*
G37*
G36*
X69957Y-35708D02*
X70291Y-36042D01*
X69957Y-36375D01*
X69624Y-36042D01*
X69957Y-35708D01*
X69957Y-35708D01*
G37*
G36*
X69624Y-47957D02*
X69957Y-47624D01*
X70291Y-47957D01*
X69957Y-48291D01*
X69624Y-47957D01*
X69624Y-47957D01*
G37*
G36*
X70208Y-48542D02*
X70542Y-48208D01*
X70875Y-48542D01*
X70542Y-48875D01*
X70208Y-48542D01*
X70208Y-48542D01*
G37*
G54D20*
X76913Y-33000D03*
X76087Y-33000D03*
X76087Y-51000D03*
X76913Y-51000D03*
G54D10*
G36*
X83375Y-36042D02*
X83042Y-36375D01*
X82708Y-36042D01*
X83042Y-35708D01*
X83375Y-36042D01*
X83375Y-36042D01*
G37*
G36*
X82791Y-35457D02*
X82457Y-35791D01*
X82124Y-35457D01*
X82457Y-35124D01*
X82791Y-35457D01*
X82791Y-35457D01*
G37*
G36*
X82457Y-48875D02*
X82124Y-48542D01*
X82457Y-48208D01*
X82791Y-48542D01*
X82457Y-48875D01*
X82457Y-48875D01*
G37*
G36*
X83042Y-48291D02*
X82708Y-47957D01*
X83042Y-47624D01*
X83375Y-47957D01*
X83042Y-48291D01*
X83042Y-48291D01*
G37*
G54D20*
X85500Y-42413D03*
X85500Y-41587D03*
G54D10*
G36*
X72957Y-42625D02*
X73374Y-43042D01*
X73012Y-43404D01*
X72595Y-42987D01*
X72957Y-42625D01*
X72957Y-42625D01*
G37*
G36*
X73487Y-42095D02*
X73904Y-42512D01*
X73542Y-42874D01*
X73125Y-42457D01*
X73487Y-42095D01*
X73487Y-42095D01*
G37*
G54D13*
X68500Y-41625D03*
X68500Y-42375D03*
G54D10*
G36*
X71292Y-36624D02*
X70875Y-36207D01*
X71237Y-35845D01*
X71654Y-36262D01*
X71292Y-36624D01*
X71292Y-36624D01*
G37*
G36*
X70762Y-37154D02*
X70345Y-36737D01*
X70707Y-36375D01*
X71124Y-36792D01*
X70762Y-37154D01*
X70762Y-37154D01*
G37*
G36*
X71124Y-47207D02*
X70707Y-47624D01*
X70345Y-47262D01*
X70762Y-46845D01*
X71124Y-47207D01*
X71124Y-47207D01*
G37*
G36*
X71654Y-47737D02*
X71237Y-48154D01*
X70875Y-47792D01*
X71292Y-47375D01*
X71654Y-47737D01*
X71654Y-47737D01*
G37*
G54D12*
X76875Y-34000D03*
X76125Y-34000D03*
X76125Y-50000D03*
X76875Y-50000D03*
G54D10*
G36*
X81875Y-36792D02*
X82292Y-36375D01*
X82654Y-36737D01*
X82237Y-37154D01*
X81875Y-36792D01*
X81875Y-36792D01*
G37*
G36*
X81345Y-36262D02*
X81762Y-35845D01*
X82124Y-36207D01*
X81707Y-36624D01*
X81345Y-36262D01*
X81345Y-36262D01*
G37*
G36*
X81707Y-47375D02*
X82124Y-47792D01*
X81762Y-48154D01*
X81345Y-47737D01*
X81707Y-47375D01*
X81707Y-47375D01*
G37*
G36*
X82237Y-46845D02*
X82654Y-47262D01*
X82292Y-47624D01*
X81875Y-47207D01*
X82237Y-46845D01*
X82237Y-46845D01*
G37*
G54D13*
X84500Y-42375D03*
X84500Y-41625D03*
G54D21*
X75161Y-48250D03*
X75161Y-47462D03*
X77838Y-47462D03*
X75161Y-49037D03*
X77838Y-49037D03*
G54D22*
X76343Y-43614D03*
X76657Y-43614D03*
X76972Y-43614D03*
X77287Y-43614D03*
X77602Y-43614D03*
X75398Y-43614D03*
X75713Y-43614D03*
X76028Y-43614D03*
G54D23*
X78114Y-43102D03*
X78114Y-42787D03*
X78114Y-42472D03*
X78114Y-42157D03*
X78114Y-41843D03*
X78114Y-41528D03*
X78114Y-41213D03*
X78114Y-40898D03*
G54D22*
X77602Y-40386D03*
X77287Y-40386D03*
X76972Y-40386D03*
X76657Y-40386D03*
X76343Y-40386D03*
X76028Y-40386D03*
X75713Y-40386D03*
X75398Y-40386D03*
G54D23*
X74886Y-40898D03*
X74886Y-41213D03*
X74886Y-41528D03*
X74886Y-41843D03*
X74886Y-42157D03*
X74886Y-42472D03*
X74886Y-42787D03*
X74886Y-43102D03*
M02*
